<?xml version="1.0" encoding="utf-8"?>
<svg viewBox="48.5793 202.146 407.9375 62.4" width="407.938" height="62.4" xmlns="http://www.w3.org/2000/svg">
  <path d="M 60.053 238.652 Q 60.053 237.26 61.085 236.348 Q 62.117 235.436 63.605 235.436 L 76.709 235.436 Q 80.261 235.436 82.997 236.852 Q 85.733 238.268 87.245 240.812 Q 88.757 243.356 88.757 246.716 Q 88.757 250.124 87.269 252.692 Q 85.781 255.26 83.069 256.652 Q 80.357 258.044 76.709 258.044 L 67.109 258.044 L 67.109 264.38 Q 67.109 266.876 65.309 268.172 Q 63.509 269.468 60.053 269.468 Z M 76.709 251.948 Q 79.109 251.948 80.405 250.58 Q 81.701 249.212 81.701 246.668 Q 81.701 244.22 80.405 242.876 Q 79.109 241.532 76.709 241.532 L 67.109 241.532 L 67.109 251.948 Z" transform="matrix(1, 0, 0, 1, -8.833926, -16.489971)" style="fill: rgb(51, 51, 51); text-transform: capitalize;"/>
  <path d="M 105.899 250.268 Q 103.019 250.268 101.243 251.756 Q 99.467 253.244 99.467 255.5 L 99.467 265.628 Q 99.467 267.692 97.859 268.58 Q 96.251 269.468 92.891 269.468 L 92.891 249.596 Q 92.891 247.196 94.475 245.9 Q 96.059 244.604 99.179 244.604 L 99.179 247.436 Q 98.459 248.204 97.979 249.068 L 98.315 249.26 Q 101.339 244.604 105.851 244.604 Q 108.011 244.604 109.115 245.756 Q 110.219 246.908 110.219 248.684 Q 110.219 250.028 109.499 251.036 Q 108.155 250.268 105.899 250.268 Z" transform="matrix(1, 0, 0, 1, -8.833926, -16.489971)" style="fill: rgb(51, 51, 51); text-transform: capitalize;"/>
  <path d="M 124.155 269.468 Q 121.179 269.468 118.659 268.268 Q 116.139 267.068 114.651 265.004 Q 113.163 262.94 113.163 260.396 L 113.163 254.252 Q 113.163 251.564 114.675 249.332 Q 116.187 247.1 118.731 245.852 Q 121.275 244.604 124.203 244.604 Q 127.083 244.604 129.507 245.78 Q 131.931 246.956 133.323 249.092 Q 134.715 251.228 134.715 253.916 L 134.715 256.508 Q 134.715 257.66 133.851 258.452 Q 132.987 259.244 131.643 259.244 L 119.547 259.244 L 119.547 259.916 Q 119.547 261.836 120.723 263.06 Q 121.899 264.284 124.203 264.284 Q 126.459 264.284 127.515 263.3 Q 128.571 262.316 128.571 260.828 Q 129.531 260.732 130.011 260.732 Q 131.979 260.732 133.035 261.548 Q 134.091 262.364 134.091 263.948 Q 134.091 265.244 132.795 266.54 Q 131.499 267.836 129.219 268.652 Q 126.939 269.468 124.155 269.468 Z M 128.763 254.588 L 128.763 253.916 Q 128.763 251.996 127.491 250.868 Q 126.219 249.74 124.155 249.74 Q 122.091 249.74 120.819 250.868 Q 119.547 251.996 119.547 253.916 L 119.547 254.588 Z" transform="matrix(1, 0, 0, 1, -8.833926, -16.489971)" style="fill: rgb(51, 51, 51); text-transform: capitalize;"/>
  <path d="M 140.528 249.596 Q 140.528 247.196 142.064 245.9 Q 143.6 244.604 146.72 244.604 L 146.72 247.436 Q 146 248.204 145.52 249.068 L 145.856 249.26 Q 147.392 246.956 149.048 245.78 Q 150.704 244.604 153.008 244.604 Q 157.088 244.604 158.672 248.684 Q 159.872 246.764 161.744 245.684 Q 163.616 244.604 165.968 244.604 Q 169.232 244.604 171.176 247.004 Q 173.12 249.404 173.12 253.1 L 173.12 265.628 Q 173.12 267.692 171.536 268.58 Q 169.952 269.468 166.64 269.468 L 166.64 253.676 Q 166.64 252.044 165.92 251.084 Q 165.2 250.124 163.664 250.124 Q 162.128 250.124 161.072 251.204 Q 160.016 252.284 160.016 254.828 L 160.016 265.628 Q 160.016 267.692 158.456 268.58 Q 156.896 269.468 153.632 269.468 L 153.632 253.676 Q 153.632 252.044 152.912 251.084 Q 152.192 250.124 150.704 250.124 Q 147.008 250.124 147.008 255.068 L 147.008 265.628 Q 147.008 267.692 145.424 268.58 Q 143.84 269.468 140.528 269.468 Z" transform="matrix(1, 0, 0, 1, -8.833926, -16.489971)" style="fill: rgb(51, 51, 51); text-transform: capitalize;"/>
  <path d="M 183.938 242.78 Q 182.114 242.78 180.89 241.7 Q 179.666 240.62 179.666 238.892 Q 179.666 237.164 180.89 236.084 Q 182.114 235.004 183.938 235.004 Q 185.762 235.004 186.986 236.084 Q 188.21 237.164 188.21 238.892 Q 188.21 240.62 186.986 241.7 Q 185.762 242.78 183.938 242.78 Z M 180.626 248.444 Q 180.626 246.38 182.258 245.492 Q 183.89 244.604 187.202 244.604 L 187.202 265.628 Q 187.202 267.692 185.57 268.58 Q 183.938 269.468 180.626 269.468 Z" transform="matrix(1, 0, 0, 1, -8.833926, -16.489971)" style="fill: rgb(51, 51, 51); text-transform: capitalize;"/>
  <path d="M 216.735 264.476 Q 216.735 266.876 215.151 268.172 Q 213.567 269.468 210.447 269.468 L 210.447 266.636 Q 211.167 265.868 211.647 265.004 L 211.311 264.812 Q 208.287 269.468 203.151 269.468 Q 200.751 269.468 198.783 268.34 Q 196.815 267.212 195.687 265.172 Q 194.559 263.132 194.559 260.54 L 194.559 248.444 Q 194.559 246.38 196.167 245.492 Q 197.775 244.604 201.135 244.604 L 201.135 260.06 Q 201.135 261.788 202.191 262.796 Q 203.247 263.804 205.263 263.804 Q 207.567 263.804 208.863 262.34 Q 210.159 260.876 210.159 258.572 L 210.159 248.444 Q 210.159 246.38 211.767 245.492 Q 213.375 244.604 216.735 244.604 Z" transform="matrix(1, 0, 0, 1, -8.833926, -16.489971)" style="fill: rgb(51, 51, 51); text-transform: capitalize;"/>
  <path d="M 223.516 249.596 Q 223.516 247.196 225.052 245.9 Q 226.588 244.604 229.708 244.604 L 229.708 247.436 Q 228.988 248.204 228.508 249.068 L 228.844 249.26 Q 230.38 246.956 232.036 245.78 Q 233.692 244.604 235.996 244.604 Q 240.076 244.604 241.66 248.684 Q 242.86 246.764 244.732 245.684 Q 246.604 244.604 248.956 244.604 Q 252.22 244.604 254.164 247.004 Q 256.108 249.404 256.108 253.1 L 256.108 265.628 Q 256.108 267.692 254.524 268.58 Q 252.94 269.468 249.628 269.468 L 249.628 253.676 Q 249.628 252.044 248.908 251.084 Q 248.188 250.124 246.652 250.124 Q 245.116 250.124 244.06 251.204 Q 243.004 252.284 243.004 254.828 L 243.004 265.628 Q 243.004 267.692 241.444 268.58 Q 239.884 269.468 236.62 269.468 L 236.62 253.676 Q 236.62 252.044 235.9 251.084 Q 235.18 250.124 233.692 250.124 Q 229.996 250.124 229.996 255.068 L 229.996 265.628 Q 229.996 267.692 228.412 268.58 Q 226.828 269.468 223.516 269.468 Z" transform="matrix(1, 0, 0, 1, -8.833926, -16.489971)" style="fill: rgb(51, 51, 51); text-transform: capitalize;"/>
  <path d="M 262.653 240.524 Q 262.653 237.98 264.381 236.492 Q 266.109 235.004 269.037 235.004 L 284.445 259.388 L 284.973 258.956 L 282.813 255.356 L 282.813 235.004 Q 286.221 235.004 287.997 236.3 Q 289.773 237.596 289.773 240.092 L 289.773 264.812 Q 289.773 266.012 289.029 267.092 Q 288.285 268.172 287.037 268.82 Q 285.789 269.468 284.397 269.468 L 267.981 243.5 L 267.453 243.932 L 269.613 247.532 L 269.613 264.38 Q 269.613 266.876 267.837 268.172 Q 266.061 269.468 262.653 269.468 Z" transform="matrix(1, 0, 0, 1, -8.833926, -16.489971)" style="fill: rgb(48, 175, 91); text-transform: capitalize;"/>
  <path d="M 318.297 264.476 Q 318.297 266.876 316.713 268.172 Q 315.129 269.468 312.009 269.468 L 312.009 266.636 Q 312.729 265.868 313.209 265.004 L 312.873 264.812 Q 309.849 269.468 304.713 269.468 Q 302.313 269.468 300.345 268.34 Q 298.377 267.212 297.249 265.172 Q 296.121 263.132 296.121 260.54 L 296.121 248.444 Q 296.121 246.38 297.729 245.492 Q 299.337 244.604 302.697 244.604 L 302.697 260.06 Q 302.697 261.788 303.753 262.796 Q 304.809 263.804 306.825 263.804 Q 309.129 263.804 310.425 262.34 Q 311.721 260.876 311.721 258.572 L 311.721 248.444 Q 311.721 246.38 313.329 245.492 Q 314.937 244.604 318.297 244.604 Z" transform="matrix(1, 0, 0, 1, -8.833926, -16.489971)" style="fill: rgb(48, 175, 91); text-transform: capitalize;"/>
  <path d="M 325.066 249.596 Q 325.066 247.196 326.602 245.9 Q 328.138 244.604 331.258 244.604 L 331.258 247.436 Q 330.538 248.204 330.058 249.068 L 330.394 249.26 Q 331.93 246.956 333.586 245.78 Q 335.242 244.604 337.546 244.604 Q 341.626 244.604 343.21 248.684 Q 344.41 246.764 346.282 245.684 Q 348.154 244.604 350.506 244.604 Q 353.77 244.604 355.714 247.004 Q 357.658 249.404 357.658 253.1 L 357.658 265.628 Q 357.658 267.692 356.074 268.58 Q 354.49 269.468 351.178 269.468 L 351.178 253.676 Q 351.178 252.044 350.458 251.084 Q 349.738 250.124 348.202 250.124 Q 346.666 250.124 345.61 251.204 Q 344.554 252.284 344.554 254.828 L 344.554 265.628 Q 344.554 267.692 342.994 268.58 Q 341.434 269.468 338.17 269.468 L 338.17 253.676 Q 338.17 252.044 337.45 251.084 Q 336.73 250.124 335.242 250.124 Q 331.546 250.124 331.546 255.068 L 331.546 265.628 Q 331.546 267.692 329.962 268.58 Q 328.378 269.468 325.066 269.468 Z" transform="matrix(1, 0, 0, 1, -8.833926, -16.489971)" style="fill: rgb(48, 175, 91); text-transform: capitalize;"/>
  <path d="M 364.203 239.324 Q 364.203 237.308 365.859 236.156 Q 367.515 235.004 370.875 235.004 L 370.875 245.948 Q 370.059 246.524 369.819 246.908 L 370.011 247.148 Q 371.259 245.948 373.347 245.276 Q 375.435 244.604 377.115 244.604 Q 381.387 244.604 383.931 247.028 Q 386.475 249.452 386.475 253.292 L 386.475 260.732 Q 386.475 263.228 385.203 265.22 Q 383.931 267.212 381.843 268.34 Q 379.755 269.468 377.403 269.468 Q 374.763 269.468 372.915 268.436 Q 371.067 267.404 369.579 265.388 L 369.339 265.58 Q 369.579 266.012 370.251 266.828 Q 370.251 268.076 368.859 268.772 Q 367.467 269.468 364.203 269.468 Z M 375.339 263.804 Q 377.547 263.804 378.723 262.892 Q 379.899 261.98 379.899 260.252 L 379.899 253.772 Q 379.899 252.092 378.723 251.18 Q 377.547 250.268 375.339 250.268 Q 373.323 250.268 372.051 251.228 Q 370.779 252.188 370.779 253.58 L 370.779 260.492 Q 370.779 261.932 372.051 262.868 Q 373.323 263.804 375.339 263.804 Z" transform="matrix(1, 0, 0, 1, -8.833926, -16.489971)" style="fill: rgb(48, 175, 91); text-transform: capitalize;"/>
  <path d="M 403.768 269.468 Q 400.792 269.468 398.272 268.268 Q 395.752 267.068 394.264 265.004 Q 392.776 262.94 392.776 260.396 L 392.776 254.252 Q 392.776 251.564 394.288 249.332 Q 395.8 247.1 398.344 245.852 Q 400.888 244.604 403.816 244.604 Q 406.696 244.604 409.12 245.78 Q 411.544 246.956 412.936 249.092 Q 414.328 251.228 414.328 253.916 L 414.328 256.508 Q 414.328 257.66 413.464 258.452 Q 412.6 259.244 411.256 259.244 L 399.16 259.244 L 399.16 259.916 Q 399.16 261.836 400.336 263.06 Q 401.512 264.284 403.816 264.284 Q 406.072 264.284 407.128 263.3 Q 408.184 262.316 408.184 260.828 Q 409.144 260.732 409.624 260.732 Q 411.592 260.732 412.648 261.548 Q 413.704 262.364 413.704 263.948 Q 413.704 265.244 412.408 266.54 Q 411.112 267.836 408.832 268.652 Q 406.552 269.468 403.768 269.468 Z M 408.376 254.588 L 408.376 253.916 Q 408.376 251.996 407.104 250.868 Q 405.832 249.74 403.768 249.74 Q 401.704 249.74 400.432 250.868 Q 399.16 251.996 399.16 253.916 L 399.16 254.588 Z" transform="matrix(1, 0, 0, 1, -8.833926, -16.489971)" style="fill: rgb(48, 175, 91); text-transform: capitalize;"/>
  <path d="M 433.149 250.268 Q 430.269 250.268 428.493 251.756 Q 426.717 253.244 426.717 255.5 L 426.717 265.628 Q 426.717 267.692 425.109 268.58 Q 423.501 269.468 420.141 269.468 L 420.141 249.596 Q 420.141 247.196 421.725 245.9 Q 423.309 244.604 426.429 244.604 L 426.429 247.436 Q 425.709 248.204 425.229 249.068 L 425.565 249.26 Q 428.589 244.604 433.101 244.604 Q 435.261 244.604 436.365 245.756 Q 437.469 246.908 437.469 248.684 Q 437.469 250.028 436.749 251.036 Q 435.405 250.268 433.149 250.268 Z" transform="matrix(1, 0, 0, 1, -8.833926, -16.489971)" style="fill: rgb(48, 175, 91); text-transform: capitalize;"/>
  <path d="M 451.744 269.468 Q 446.848 269.468 444.016 267.812 Q 441.184 266.156 441.184 263.372 Q 441.184 262.124 442.264 261.26 Q 443.344 260.396 445.744 260.396 Q 446.128 262.316 447.664 263.396 Q 449.2 264.476 451.264 264.476 Q 453.664 264.476 454.984 263.9 Q 456.304 263.324 456.304 262.22 Q 456.304 261.26 455.248 260.54 Q 454.192 259.82 451.024 259.052 Q 447.328 258.188 445.288 257.3 Q 443.248 256.412 442.288 255.068 Q 441.328 253.724 441.328 251.516 Q 441.328 248.396 443.944 246.5 Q 446.56 244.604 451.264 244.604 Q 455.872 244.604 458.752 246.188 Q 461.632 247.772 461.632 250.412 Q 461.632 251.756 460.624 252.356 Q 459.616 252.956 457.264 253.004 Q 456.64 251.18 455.368 250.292 Q 454.096 249.404 451.744 249.404 Q 450.064 249.404 448.768 249.98 Q 447.472 250.556 447.472 251.372 Q 447.472 252.284 448.552 252.812 Q 449.632 253.34 452.176 253.868 Q 457.696 255.068 460.12 257.036 Q 462.544 259.004 462.544 262.364 Q 462.544 264.428 461.248 266.06 Q 459.952 267.692 457.504 268.58 Q 455.056 269.468 451.744 269.468 Z" transform="matrix(1, 0, 0, 1, -8.833926, -16.489971)" style="fill: rgb(48, 175, 91); text-transform: capitalize;"/>
</svg>