<?xml version="1.0" encoding="utf-8"?>
<svg viewBox="37.7918 220.7766 412.7963 67.2018" xmlns="http://www.w3.org/2000/svg">
  <path d="M 57.07 238.954 L 57.07 256.99 Q 58.744 256.828 60.013 255.721 Q 61.282 254.614 62.173 252.94 Q 63.064 251.266 63.523 249.241 Q 63.982 247.216 63.982 245.164 Q 63.982 243.868 63.685 242.329 Q 63.388 240.79 62.443 239.467 Q 61.498 238.144 59.689 237.253 Q 57.88 236.362 54.856 236.362 Q 52.426 236.362 50.428 237.01 Q 48.43 237.658 46.972 238.981 Q 45.514 240.304 44.704 242.383 Q 43.894 244.462 43.894 247.27 Q 43.894 248.728 44.083 249.673 Q 44.272 250.618 44.569 251.266 Q 44.866 251.914 45.19 252.346 Q 45.514 252.778 45.784 253.156 Q 42.544 253.156 40.654 251.644 Q 38.764 250.132 38.764 246.892 Q 38.764 244.138 40.087 241.762 Q 41.41 239.386 43.705 237.631 Q 46 235.876 49.051 234.877 Q 52.102 233.878 55.504 233.878 Q 58.798 233.878 61.498 234.742 Q 64.198 235.606 66.142 237.199 Q 68.086 238.792 69.139 241.033 Q 70.192 243.274 70.192 246.028 Q 70.192 248.242 69.382 250.564 Q 68.572 252.886 66.952 254.749 Q 65.332 256.612 62.929 257.8 Q 60.526 258.988 57.34 258.988 L 57.07 258.988 L 57.07 274.378 L 49.294 274.378 L 49.294 240.034 Z" style="fill: rgb(51, 51, 51); text-transform: capitalize;"/>
  <path d="M 82.069 247.378 L 82.069 250.726 Q 83.257 249.322 84.715 248.215 Q 86.173 247.108 87.901 247.108 Q 88.927 247.108 89.764 247.54 Q 90.601 247.972 91.222 248.674 Q 91.843 249.376 92.194 250.213 Q 92.545 251.05 92.545 251.914 Q 92.545 253.102 91.816 254.101 Q 91.087 255.1 89.413 255.1 Q 88.171 255.1 87.685 254.56 Q 87.199 254.02 86.929 253.399 Q 86.659 252.778 86.362 252.238 Q 86.065 251.698 85.309 251.698 Q 84.499 251.698 83.716 252.319 Q 82.933 252.94 82.069 253.858 L 82.069 274.378 L 74.293 274.378 L 74.293 247.378 Z" style="fill: rgb(51, 51, 51); text-transform: capitalize;"/>
  <path d="M 108.381 270.166 Q 110.001 270.166 111.243 269.734 Q 112.485 269.302 113.457 268.573 Q 114.429 267.844 115.239 266.845 Q 116.049 265.846 116.805 264.712 L 118.641 264.712 Q 117.885 266.602 116.832 268.384 Q 115.779 270.166 114.24 271.57 Q 112.701 272.974 110.649 273.838 Q 108.597 274.702 105.843 274.702 Q 103.521 274.702 101.577 274 Q 99.633 273.298 98.202 271.813 Q 96.771 270.328 95.988 267.979 Q 95.205 265.63 95.205 262.336 Q 95.205 260.014 95.718 257.341 Q 96.231 254.668 97.527 252.4 Q 98.823 250.132 101.037 248.62 Q 103.251 247.108 106.653 247.108 Q 109.245 247.108 110.649 247.918 Q 112.053 248.728 112.728 249.808 Q 113.403 250.888 113.538 251.914 Q 113.673 252.94 113.673 253.372 Q 113.673 255.802 112.782 257.638 Q 111.891 259.474 110.406 260.743 Q 108.921 262.012 107.004 262.687 Q 105.087 263.362 103.089 263.47 Q 103.143 267.088 104.304 268.627 Q 105.465 270.166 108.381 270.166 Z M 109.515 253.426 Q 109.515 251.536 108.867 250.753 Q 108.219 249.97 107.463 249.97 Q 106.545 249.97 105.789 250.861 Q 105.033 251.752 104.466 253.237 Q 103.899 254.722 103.548 256.72 Q 103.197 258.718 103.089 260.878 Q 104.439 260.77 105.627 260.149 Q 106.815 259.528 107.679 258.529 Q 108.543 257.53 109.029 256.234 Q 109.515 254.938 109.515 253.426 Z" style="fill: rgb(51, 51, 51); text-transform: capitalize;"/>
  <path d="M 145.377 258.07 Q 145.377 254.83 144.621 253.453 Q 143.865 252.076 142.569 252.076 Q 141.003 252.076 140.274 253.561 Q 139.545 255.046 139.383 257.044 L 139.383 274.378 L 131.607 274.378 L 131.607 255.748 Q 131.607 255.1 131.499 254.425 Q 131.391 253.75 131.121 253.237 Q 130.851 252.724 130.392 252.373 Q 129.933 252.022 129.231 252.022 Q 127.773 252.022 126.99 253.507 Q 126.207 254.992 126.045 257.044 L 126.045 274.378 L 118.269 274.378 L 118.269 247.378 L 126.045 247.378 L 126.045 250.186 Q 127.341 248.242 128.934 247.675 Q 130.527 247.108 131.931 247.108 Q 133.929 247.108 135.657 248.08 Q 137.385 249.052 138.465 251.752 Q 139.113 250.294 139.95 249.376 Q 140.787 248.458 141.678 247.972 Q 142.569 247.486 143.46 247.324 Q 144.351 247.162 145.161 247.162 Q 146.673 247.162 148.05 247.648 Q 149.427 248.134 150.48 249.295 Q 151.533 250.456 152.127 252.373 Q 152.721 254.29 152.721 257.098 Q 152.721 257.8 152.694 258.853 Q 152.667 259.906 152.613 260.986 Q 152.559 262.066 152.532 263.092 Q 152.505 264.118 152.505 264.82 Q 152.505 267.142 153.072 268.303 Q 153.639 269.464 155.313 269.464 Q 156.231 269.464 156.825 269.113 Q 157.419 268.762 157.797 268.114 Q 158.175 267.466 158.418 266.602 Q 158.661 265.738 158.877 264.712 L 161.145 264.712 Q 160.713 267.898 159.849 269.869 Q 158.985 271.84 157.905 272.92 Q 156.825 274 155.556 274.351 Q 154.287 274.702 153.045 274.702 Q 148.995 274.702 147.132 271.948 Q 145.269 269.194 145.269 264.604 Q 145.269 264.118 145.296 263.227 Q 145.323 262.336 145.323 261.364 Q 145.323 260.392 145.35 259.474 Q 145.377 258.556 145.377 258.07 Z" style="fill: rgb(51, 51, 51); text-transform: capitalize;"/>
  <path d="M 168.121 247.378 L 168.121 265.738 Q 168.121 268.006 168.742 268.735 Q 169.363 269.464 170.929 269.464 Q 172.495 269.464 173.548 268.114 Q 174.601 266.764 174.763 264.712 L 177.031 264.712 Q 176.599 268.006 175.519 269.977 Q 174.439 271.948 173.089 273.001 Q 171.739 274.054 170.335 274.378 Q 168.931 274.702 167.851 274.702 Q 163.693 274.702 162.019 272.407 Q 160.345 270.112 160.345 266.332 L 160.345 247.378 Z M 159.751 240.196 Q 159.751 238.414 160.993 237.145 Q 162.235 235.876 164.017 235.876 Q 165.799 235.876 167.068 237.145 Q 168.337 238.414 168.337 240.196 Q 168.337 241.978 167.068 243.22 Q 165.799 244.462 164.017 244.462 Q 162.235 244.462 160.993 243.22 Q 159.751 241.978 159.751 240.196 Z" style="fill: rgb(51, 51, 51); text-transform: capitalize;"/>
  <path d="M 197.401 247.378 L 197.401 265.738 Q 197.401 267.79 197.941 268.627 Q 198.481 269.464 199.885 269.464 Q 201.937 269.464 202.882 268.06 Q 203.827 266.656 204.043 264.712 L 206.311 264.712 Q 205.879 268.006 204.799 269.977 Q 203.719 271.948 202.369 273.001 Q 201.019 274.054 199.615 274.378 Q 198.211 274.702 197.077 274.702 Q 194.161 274.702 192.676 273.352 Q 191.191 272.002 190.651 269.572 Q 190.003 271.3 189.085 272.299 Q 188.167 273.298 187.195 273.838 Q 186.223 274.378 185.251 274.54 Q 184.279 274.702 183.469 274.702 Q 179.635 274.702 177.934 272.434 Q 176.233 270.166 176.233 266.332 L 176.233 247.378 L 184.009 247.378 L 184.009 265.738 Q 184.009 267.79 184.576 268.627 Q 185.143 269.464 186.223 269.464 Q 187.681 269.464 188.653 268.114 Q 189.625 266.764 189.625 264.712 L 189.625 247.378 Z" style="fill: rgb(51, 51, 51); text-transform: capitalize;"/>
  <path d="M 232.08 258.07 Q 232.08 254.83 231.324 253.453 Q 230.568 252.076 229.272 252.076 Q 227.706 252.076 226.977 253.561 Q 226.248 255.046 226.086 257.044 L 226.086 274.378 L 218.31 274.378 L 218.31 255.748 Q 218.31 255.154 218.202 254.506 Q 218.094 253.858 217.851 253.291 Q 217.608 252.724 217.149 252.373 Q 216.69 252.022 215.988 252.022 Q 214.53 252.022 213.72 253.48 Q 212.91 254.938 212.748 257.044 L 212.748 274.378 L 204.972 274.378 L 204.972 247.378 L 212.748 247.378 L 212.748 250.186 Q 214.098 248.188 215.691 247.648 Q 217.284 247.108 218.472 247.108 Q 220.578 247.108 222.414 248.188 Q 224.25 249.268 225.222 251.698 Q 225.87 250.24 226.68 249.349 Q 227.49 248.458 228.381 247.972 Q 229.272 247.486 230.163 247.324 Q 231.054 247.162 231.864 247.162 Q 233.376 247.162 234.753 247.648 Q 236.13 248.134 237.183 249.295 Q 238.236 250.456 238.83 252.373 Q 239.424 254.29 239.424 257.098 Q 239.424 257.8 239.397 258.826 Q 239.37 259.852 239.316 260.959 Q 239.262 262.066 239.235 263.119 Q 239.208 264.172 239.208 264.874 Q 239.208 267.25 239.802 268.357 Q 240.396 269.464 242.286 269.464 Q 243.366 269.464 243.798 269.14 Q 243.798 272.11 242.583 273.406 Q 241.368 274.702 238.938 274.702 Q 236.994 274.702 235.644 273.919 Q 234.294 273.136 233.484 271.759 Q 232.674 270.382 232.323 268.573 Q 231.972 266.764 231.972 264.658 Q 231.972 264.118 231.999 263.227 Q 232.026 262.336 232.026 261.364 Q 232.026 260.392 232.053 259.474 Q 232.08 258.556 232.08 258.07 Z" style="fill: rgb(51, 51, 51); text-transform: capitalize;"/>
  <path d="M 280.81 233.986 L 280.81 274.378 L 273.358 274.378 L 261.154 247.486 L 261.154 274.378 L 255.97 274.378 L 255.97 237.766 Q 253.486 238.954 252.136 241.114 Q 250.786 243.274 250.786 246.514 Q 250.786 248.242 251.002 249.349 Q 251.218 250.456 251.515 251.158 Q 251.812 251.86 252.136 252.319 Q 252.46 252.778 252.73 253.156 Q 249.166 253.156 247.384 251.509 Q 245.602 249.862 245.602 245.974 Q 245.602 243.76 246.466 241.6 Q 247.33 239.44 249.031 237.712 Q 250.732 235.984 253.324 234.931 Q 255.916 233.878 259.372 233.878 Q 260.02 233.878 261.046 233.986 Q 262.072 234.094 263.314 234.634 L 275.896 263.254 L 275.896 233.986 Z" style="fill: rgb(48, 175, 91); text-transform: capitalize;"/>
  <path d="M 308.454 247.378 L 308.454 265.738 Q 308.454 267.79 308.994 268.627 Q 309.534 269.464 310.938 269.464 Q 312.99 269.464 313.935 268.06 Q 314.88 266.656 315.096 264.712 L 317.364 264.712 Q 316.932 268.006 315.852 269.977 Q 314.772 271.948 313.422 273.001 Q 312.072 274.054 310.668 274.378 Q 309.264 274.702 308.13 274.702 Q 305.214 274.702 303.729 273.352 Q 302.244 272.002 301.704 269.572 Q 301.056 271.3 300.138 272.299 Q 299.22 273.298 298.248 273.838 Q 297.276 274.378 296.304 274.54 Q 295.332 274.702 294.522 274.702 Q 290.688 274.702 288.987 272.434 Q 287.286 270.166 287.286 266.332 L 287.286 247.378 L 295.062 247.378 L 295.062 265.738 Q 295.062 267.79 295.629 268.627 Q 296.196 269.464 297.276 269.464 Q 298.734 269.464 299.706 268.114 Q 300.678 266.764 300.678 264.712 L 300.678 247.378 Z" style="fill: rgb(48, 175, 91); text-transform: capitalize;"/>
  <path d="M 343.133 258.07 Q 343.133 254.83 342.377 253.453 Q 341.621 252.076 340.325 252.076 Q 338.759 252.076 338.03 253.561 Q 337.301 255.046 337.139 257.044 L 337.139 274.378 L 329.363 274.378 L 329.363 255.748 Q 329.363 255.1 329.255 254.425 Q 329.147 253.75 328.877 253.237 Q 328.607 252.724 328.148 252.373 Q 327.689 252.022 326.987 252.022 Q 325.529 252.022 324.746 253.507 Q 323.963 254.992 323.801 257.044 L 323.801 274.378 L 316.025 274.378 L 316.025 247.378 L 323.801 247.378 L 323.801 250.186 Q 325.097 248.242 326.69 247.675 Q 328.283 247.108 329.687 247.108 Q 331.685 247.108 333.413 248.08 Q 335.141 249.052 336.221 251.752 Q 336.869 250.294 337.706 249.376 Q 338.543 248.458 339.434 247.972 Q 340.325 247.486 341.216 247.324 Q 342.107 247.162 342.917 247.162 Q 344.429 247.162 345.806 247.648 Q 347.183 248.134 348.236 249.295 Q 349.289 250.456 349.883 252.373 Q 350.477 254.29 350.477 257.098 Q 350.477 257.8 350.45 258.853 Q 350.423 259.906 350.369 260.986 Q 350.315 262.066 350.288 263.092 Q 350.261 264.118 350.261 264.82 Q 350.261 267.142 350.828 268.303 Q 351.395 269.464 353.069 269.464 Q 353.987 269.464 354.581 269.113 Q 355.175 268.762 355.553 268.114 Q 355.931 267.466 356.174 266.602 Q 356.417 265.738 356.633 264.712 L 358.901 264.712 Q 358.469 267.898 357.605 269.869 Q 356.741 271.84 355.661 272.92 Q 354.581 274 353.312 274.351 Q 352.043 274.702 350.801 274.702 Q 346.751 274.702 344.888 271.948 Q 343.025 269.194 343.025 264.604 Q 343.025 264.118 343.052 263.227 Q 343.079 262.336 343.079 261.364 Q 343.079 260.392 343.106 259.474 Q 343.133 258.556 343.133 258.07 Z" style="fill: rgb(48, 175, 91); text-transform: capitalize;"/>
  <path d="M 358.101 237.658 L 365.877 236.578 L 365.877 248.728 Q 367.335 247.702 368.253 247.405 Q 369.171 247.108 370.089 247.108 Q 372.033 247.108 373.626 247.945 Q 375.219 248.782 376.38 250.402 Q 377.541 252.022 378.189 254.425 Q 378.837 256.828 378.837 259.906 Q 378.837 262.282 378.351 264.901 Q 377.865 267.52 376.542 269.707 Q 375.219 271.894 372.924 273.298 Q 370.629 274.702 367.011 274.702 Q 362.421 274.702 360.234 272.434 Q 358.047 270.166 358.047 266.332 Z M 373.275 260.392 Q 373.275 256.018 372.033 253.534 Q 370.791 251.05 368.685 251.05 Q 368.037 251.05 367.173 251.293 Q 366.309 251.536 365.877 252.022 L 365.877 266.278 Q 365.877 268.006 366.633 268.735 Q 367.389 269.464 368.577 269.464 Q 369.981 269.464 370.899 268.627 Q 371.817 267.79 372.33 266.467 Q 372.843 265.144 373.059 263.551 Q 373.275 261.958 373.275 260.392 Z" style="fill: rgb(48, 175, 91); text-transform: capitalize;"/>
  <path d="M 395.851 270.166 Q 397.471 270.166 398.713 269.734 Q 399.955 269.302 400.927 268.573 Q 401.899 267.844 402.709 266.845 Q 403.519 265.846 404.275 264.712 L 406.111 264.712 Q 405.355 266.602 404.302 268.384 Q 403.249 270.166 401.71 271.57 Q 400.171 272.974 398.119 273.838 Q 396.067 274.702 393.313 274.702 Q 390.991 274.702 389.047 274 Q 387.103 273.298 385.672 271.813 Q 384.241 270.328 383.458 267.979 Q 382.675 265.63 382.675 262.336 Q 382.675 260.014 383.188 257.341 Q 383.701 254.668 384.997 252.4 Q 386.293 250.132 388.507 248.62 Q 390.721 247.108 394.123 247.108 Q 396.715 247.108 398.119 247.918 Q 399.523 248.728 400.198 249.808 Q 400.873 250.888 401.008 251.914 Q 401.143 252.94 401.143 253.372 Q 401.143 255.802 400.252 257.638 Q 399.361 259.474 397.876 260.743 Q 396.391 262.012 394.474 262.687 Q 392.557 263.362 390.559 263.47 Q 390.613 267.088 391.774 268.627 Q 392.935 270.166 395.851 270.166 Z M 396.985 253.426 Q 396.985 251.536 396.337 250.753 Q 395.689 249.97 394.933 249.97 Q 394.015 249.97 393.259 250.861 Q 392.503 251.752 391.936 253.237 Q 391.369 254.722 391.018 256.72 Q 390.667 258.718 390.559 260.878 Q 391.909 260.77 393.097 260.149 Q 394.285 259.528 395.149 258.529 Q 396.013 257.53 396.499 256.234 Q 396.985 254.938 396.985 253.426 Z" style="fill: rgb(48, 175, 91); text-transform: capitalize;"/>
  <path d="M 413.528 247.378 L 413.528 250.726 Q 414.716 249.322 416.174 248.215 Q 417.632 247.108 419.36 247.108 Q 420.386 247.108 421.223 247.54 Q 422.06 247.972 422.681 248.674 Q 423.302 249.376 423.653 250.213 Q 424.004 251.05 424.004 251.914 Q 424.004 253.102 423.275 254.101 Q 422.546 255.1 420.872 255.1 Q 419.63 255.1 419.144 254.56 Q 418.658 254.02 418.388 253.399 Q 418.118 252.778 417.821 252.238 Q 417.524 251.698 416.768 251.698 Q 415.958 251.698 415.175 252.319 Q 414.392 252.94 413.528 253.858 L 413.528 274.378 L 405.752 274.378 L 405.752 247.378 Z" style="fill: rgb(48, 175, 91); text-transform: capitalize;"/>
  <path d="M 440.151 245.704 Q 441.501 250.942 442.419 254.209 Q 443.337 257.476 443.877 259.663 Q 444.417 261.85 444.633 263.47 Q 444.849 265.09 444.849 267.088 Q 444.849 269.194 443.985 270.652 Q 443.121 272.11 441.798 273.001 Q 440.475 273.892 438.855 274.297 Q 437.235 274.702 435.777 274.702 Q 433.401 274.702 431.619 273.946 Q 429.837 273.19 428.649 272.029 Q 427.461 270.868 426.867 269.437 Q 426.273 268.006 426.273 266.71 Q 426.273 265.252 426.84 264.226 Q 427.407 263.2 428.271 262.768 Q 429.837 258.718 430.89 254.749 Q 431.943 250.78 432.375 246.784 Z M 432.537 265.198 Q 432.537 266.008 432.051 266.683 Q 431.565 267.358 430.647 267.358 Q 430.215 267.358 429.756 267.223 Q 429.297 267.088 429.027 266.656 Q 429.459 268.546 430.404 269.491 Q 431.349 270.436 433.131 270.436 Q 434.697 270.436 435.831 269.599 Q 436.965 268.762 436.965 266.656 Q 436.965 265.198 436.803 264.037 Q 436.641 262.876 436.29 261.418 Q 435.939 259.96 435.372 257.962 Q 434.805 255.964 433.995 252.94 Q 433.455 255.532 432.672 257.935 Q 431.889 260.338 431.025 262.93 Q 431.619 263.2 432.078 263.767 Q 432.537 264.334 432.537 265.198 Z" style="fill: rgb(48, 175, 91); text-transform: capitalize;"/>
</svg>