<?xml version="1.0" encoding="utf-8"?>
<svg viewBox="71.9963 213.1918 332.155 70.671" xmlns="http://www.w3.org/2000/svg">
  <g transform="matrix(0.9999999999999999, 0, 0, 0.9999999999999999, -27.090687201778387, 67.13780312445465)">
    <rect x="99.087" y="146.054" width="332.155" height="70.671" style="stroke: rgb(0, 0, 0); fill: none; fill-rule: nonzero; paint-order: fill; vector-effect: non-scaling-stroke; stroke-opacity: 0; stroke-width: 0px; stroke-dasharray: 1, 0;"/>
    <path d="M 121.271 167.294 Q 121.271 166.802 121.189 166.45 Q 121.107 166.099 120.902 165.876 Q 120.697 165.653 120.334 165.548 Q 119.97 165.442 119.408 165.442 Q 118.634 165.442 117.427 165.618 L 117.287 164.575 Q 118.388 164.376 119.695 164.165 Q 121.002 163.954 122.379 163.778 Q 123.755 163.602 125.144 163.491 Q 126.533 163.38 127.81 163.38 Q 129.498 163.38 130.98 163.684 Q 132.462 163.989 133.57 164.722 Q 134.677 165.454 135.322 166.684 Q 135.966 167.915 135.966 169.755 Q 135.966 171.899 135.246 173.604 Q 134.525 175.309 133.224 176.493 Q 131.923 177.677 130.101 178.304 Q 128.279 178.931 126.076 178.931 Q 125.584 178.931 125.384 178.778 Q 125.185 178.626 125.185 178.122 L 125.185 177.97 Q 125.185 177.852 125.197 177.794 Q 126.92 177.794 128.156 177.436 Q 129.392 177.079 130.236 176.487 Q 131.08 175.895 131.584 175.14 Q 132.087 174.384 132.357 173.581 Q 132.627 172.778 132.709 171.993 Q 132.791 171.208 132.791 170.575 Q 132.791 168.876 132.316 167.745 Q 131.841 166.614 131.027 165.946 Q 130.212 165.278 129.123 165.003 Q 128.033 164.727 126.802 164.727 Q 126.181 164.727 125.613 164.774 Q 125.045 164.821 124.377 164.903 Q 124.353 165.806 124.312 167.317 Q 124.271 168.829 124.218 170.792 Q 124.166 172.755 124.095 175.093 Q 124.025 177.431 123.955 179.979 Q 123.884 182.528 123.802 185.218 Q 123.72 187.907 123.638 190.579 L 120.861 190.931 L 120.65 190.907 Q 120.791 187.544 120.908 184.532 Q 121.025 181.52 121.101 178.667 Q 121.177 175.813 121.224 173.018 Q 121.271 170.224 121.271 167.294 Z M 141.489 190.884 L 141.301 190.872 Q 141.395 189.759 141.477 188.446 Q 141.559 187.134 141.629 185.78 Q 141.699 184.427 141.752 183.097 Q 141.805 181.766 141.846 180.612 Q 141.887 179.458 141.905 178.544 Q 141.922 177.63 141.922 177.102 Q 141.922 176.669 141.887 176.352 Q 141.852 176.036 141.729 175.825 Q 141.606 175.614 141.371 175.515 Q 141.137 175.415 140.739 175.415 Q 140.539 175.415 140.328 175.438 Q 140.117 175.462 139.86 175.509 Q 139.602 175.556 139.28 175.632 Q 138.957 175.708 138.535 175.813 L 138.36 174.97 Q 140.305 174.266 141.512 173.979 Q 142.719 173.692 143.141 173.692 Q 143.914 173.692 144.248 174.143 Q 144.582 174.595 144.582 175.485 Q 144.582 175.567 144.559 175.966 Q 144.535 176.364 144.494 177.003 Q 144.453 177.641 144.395 178.485 Q 144.336 179.329 144.26 180.296 Q 144.184 181.263 144.09 182.311 Q 143.996 183.36 143.891 184.403 L 144.008 184.415 Q 144.571 182.118 145.28 180.132 Q 145.989 178.145 146.873 176.681 Q 147.758 175.216 148.819 174.378 Q 149.879 173.54 151.145 173.54 Q 151.59 173.54 151.977 173.681 Q 152.364 173.821 152.645 174.073 Q 152.926 174.325 153.09 174.671 Q 153.254 175.016 153.254 175.427 Q 153.254 175.954 153.026 176.44 Q 152.797 176.927 152.305 177.302 L 152.211 177.302 Q 151.719 176.891 151.28 176.71 Q 150.84 176.528 150.348 176.528 Q 149.821 176.528 149.328 176.727 Q 148.836 176.927 148.426 177.302 Q 147.758 177.911 147.184 178.913 Q 146.61 179.915 146.135 181.134 Q 145.66 182.352 145.28 183.694 Q 144.899 185.036 144.623 186.308 Q 144.348 187.579 144.178 188.698 Q 144.008 189.817 143.938 190.579 Z M 166.791 186.946 Q 166.861 186.981 166.973 187.046 Q 167.084 187.11 167.178 187.186 Q 167.272 187.263 167.342 187.35 Q 167.412 187.438 167.412 187.52 Q 167.412 187.567 167.377 187.614 Q 166.721 188.528 165.965 189.202 Q 165.209 189.876 164.395 190.327 Q 163.58 190.778 162.736 190.995 Q 161.893 191.212 161.072 191.212 Q 159.666 191.212 158.494 190.638 Q 157.322 190.063 156.479 189.067 Q 155.635 188.071 155.16 186.729 Q 154.686 185.388 154.686 183.852 Q 154.686 182.599 154.961 181.345 Q 155.236 180.091 155.758 178.954 Q 156.279 177.817 157.029 176.839 Q 157.779 175.86 158.734 175.14 Q 159.69 174.419 160.832 174.009 Q 161.975 173.599 163.287 173.599 Q 164.154 173.599 164.94 173.833 Q 165.725 174.067 166.316 174.507 Q 166.908 174.946 167.26 175.591 Q 167.611 176.235 167.611 177.056 Q 167.611 178.251 166.832 179.141 Q 166.053 180.032 164.682 180.653 Q 163.311 181.274 161.453 181.655 Q 159.596 182.036 157.44 182.224 L 157.44 182.423 Q 157.44 183.923 157.82 185.165 Q 158.201 186.407 158.869 187.292 Q 159.537 188.177 160.44 188.669 Q 161.342 189.161 162.385 189.161 Q 163.44 189.161 164.547 188.64 Q 165.654 188.118 166.791 186.946 Z M 164.588 177.536 Q 164.588 176.997 164.406 176.528 Q 164.225 176.059 163.902 175.714 Q 163.58 175.368 163.135 175.169 Q 162.69 174.97 162.174 174.97 Q 161.412 174.97 160.791 175.239 Q 160.17 175.509 159.678 175.972 Q 159.186 176.434 158.811 177.05 Q 158.436 177.665 158.172 178.356 Q 157.908 179.048 157.744 179.774 Q 157.58 180.501 157.51 181.192 Q 159.174 181.075 160.492 180.788 Q 161.811 180.501 162.719 180.05 Q 163.627 179.599 164.108 178.972 Q 164.588 178.345 164.588 177.536 Z M 169.698 175.005 Q 170.53 174.712 171.297 174.472 Q 172.065 174.231 172.709 174.056 Q 173.354 173.88 173.846 173.786 Q 174.338 173.692 174.62 173.692 Q 175.299 173.692 175.68 174.097 Q 176.061 174.501 176.061 175.485 Q 176.061 175.72 176.014 176.487 Q 175.967 177.255 175.879 178.415 Q 175.792 179.575 175.663 181.063 Q 175.534 182.552 175.37 184.227 L 175.44 184.239 Q 176.26 181.263 177.186 179.241 Q 178.112 177.22 179.073 175.977 Q 180.034 174.735 181.006 174.202 Q 181.979 173.669 182.893 173.669 Q 183.702 173.669 184.264 174.067 Q 184.827 174.466 185.178 175.11 Q 185.53 175.755 185.694 176.569 Q 185.858 177.384 185.858 178.227 Q 185.858 178.966 185.811 179.792 Q 185.764 180.618 185.694 181.421 Q 185.624 182.224 185.547 182.944 Q 185.471 183.665 185.413 184.204 L 185.483 184.216 Q 186.303 181.192 187.235 179.147 Q 188.167 177.102 189.133 175.86 Q 190.1 174.618 191.073 174.085 Q 192.045 173.552 192.959 173.552 Q 193.545 173.552 194.096 173.798 Q 194.647 174.044 195.075 174.589 Q 195.502 175.134 195.76 175.989 Q 196.018 176.845 196.018 178.052 Q 196.018 178.391 195.977 178.983 Q 195.936 179.575 195.877 180.302 Q 195.819 181.028 195.743 181.843 Q 195.667 182.657 195.608 183.442 Q 195.549 184.227 195.508 184.936 Q 195.467 185.645 195.467 186.161 Q 195.467 187.075 195.543 187.649 Q 195.62 188.224 195.795 188.558 Q 195.971 188.891 196.264 189.015 Q 196.557 189.138 196.979 189.138 Q 197.588 189.138 198.245 188.968 Q 198.901 188.798 199.569 188.493 L 199.792 189.102 Q 199.37 189.442 198.725 189.794 Q 198.081 190.145 197.372 190.438 Q 196.663 190.731 195.959 190.913 Q 195.256 191.095 194.717 191.095 Q 194.084 191.095 193.721 190.755 Q 193.358 190.415 193.176 189.829 Q 192.995 189.243 192.942 188.458 Q 192.889 187.673 192.889 186.77 Q 192.889 185.681 192.965 184.485 Q 193.042 183.29 193.135 182.212 Q 193.229 181.134 193.305 180.261 Q 193.381 179.388 193.381 178.942 Q 193.381 177.665 192.93 177.026 Q 192.479 176.388 191.706 176.388 Q 191.108 176.388 190.434 176.956 Q 189.76 177.524 189.086 178.52 Q 188.413 179.516 187.786 180.87 Q 187.159 182.224 186.655 183.806 Q 186.151 185.388 185.805 187.116 Q 185.459 188.845 185.354 190.579 L 182.905 190.884 L 182.717 190.872 Q 182.846 188.411 182.958 186.513 Q 183.069 184.614 183.157 183.196 Q 183.245 181.778 183.297 180.794 Q 183.35 179.809 183.35 179.165 Q 183.35 177.852 182.899 177.184 Q 182.448 176.516 181.745 176.516 Q 181.124 176.516 180.438 177.073 Q 179.752 177.63 179.084 178.614 Q 178.417 179.599 177.801 180.94 Q 177.186 182.282 176.688 183.841 Q 176.19 185.399 175.856 187.122 Q 175.522 188.845 175.417 190.579 L 172.967 190.884 L 172.78 190.872 Q 172.874 189.759 172.956 188.446 Q 173.038 187.134 173.108 185.78 Q 173.178 184.427 173.231 183.097 Q 173.284 181.766 173.325 180.612 Q 173.366 179.458 173.383 178.544 Q 173.401 177.63 173.401 177.102 Q 173.401 176.622 173.331 176.294 Q 173.26 175.966 173.114 175.772 Q 172.967 175.579 172.745 175.497 Q 172.522 175.415 172.217 175.415 Q 171.795 175.415 171.209 175.532 Q 170.624 175.649 169.874 175.849 Z M 205.999 168.794 Q 205.589 168.794 205.273 168.624 Q 204.956 168.454 204.734 168.179 Q 204.511 167.903 204.394 167.546 Q 204.277 167.188 204.277 166.813 Q 204.277 166.286 204.452 165.882 Q 204.628 165.477 204.909 165.202 Q 205.191 164.927 205.53 164.792 Q 205.87 164.657 206.198 164.657 Q 206.597 164.657 206.913 164.804 Q 207.23 164.95 207.458 165.208 Q 207.687 165.466 207.81 165.8 Q 207.933 166.134 207.933 166.52 Q 207.933 166.931 207.792 167.335 Q 207.652 167.739 207.4 168.067 Q 207.148 168.395 206.79 168.595 Q 206.433 168.794 205.999 168.794 Z M 207.019 174.091 Q 206.819 175.427 206.679 176.768 Q 206.538 178.11 206.45 179.364 Q 206.362 180.618 206.321 181.737 Q 206.28 182.856 206.28 183.759 Q 206.28 184.977 206.316 185.85 Q 206.351 186.724 206.433 187.321 Q 206.515 187.919 206.638 188.276 Q 206.761 188.634 206.943 188.827 Q 207.124 189.02 207.364 189.079 Q 207.605 189.138 207.909 189.138 Q 208.472 189.138 209.122 188.968 Q 209.773 188.798 210.441 188.493 L 210.663 189.102 Q 210.241 189.442 209.603 189.794 Q 208.964 190.145 208.261 190.438 Q 207.558 190.731 206.884 190.913 Q 206.21 191.095 205.718 191.095 Q 205.39 191.095 205.12 191.042 Q 204.851 190.989 204.634 190.778 Q 204.417 190.567 204.247 190.157 Q 204.077 189.747 203.966 189.044 Q 203.855 188.341 203.796 187.286 Q 203.737 186.231 203.737 184.731 Q 203.737 183.852 203.755 182.745 Q 203.773 181.638 203.808 180.366 Q 203.843 179.095 203.902 177.683 Q 203.96 176.27 204.054 174.77 Q 204.077 174.442 204.23 174.237 Q 204.382 174.032 204.605 173.921 Q 204.827 173.809 205.079 173.768 Q 205.331 173.727 205.542 173.727 Q 206.327 173.727 207.019 174.091 Z M 217.956 175.907 Q 217.956 176.704 217.903 177.612 Q 217.85 178.52 217.774 179.458 Q 217.698 180.395 217.61 181.327 Q 217.522 182.259 217.446 183.091 Q 217.37 183.923 217.317 184.62 Q 217.265 185.317 217.265 185.786 Q 217.265 187.181 217.792 187.825 Q 218.319 188.47 219.198 188.47 Q 220.194 188.47 221.237 187.397 Q 222.28 186.325 223.229 184.263 Q 224.179 182.2 224.847 179.628 Q 225.515 177.056 225.702 174.079 L 228.186 173.774 L 228.374 173.786 Q 228.268 174.899 228.181 176.147 Q 228.093 177.395 228.022 178.643 Q 227.952 179.891 227.917 181.087 Q 227.882 182.282 227.882 183.29 Q 227.882 185.2 228.104 186.413 Q 228.327 187.626 228.679 188.323 Q 229.03 189.02 229.481 189.284 Q 229.932 189.548 230.39 189.548 Q 230.659 189.548 230.923 189.477 Q 231.186 189.407 231.421 189.308 Q 231.655 189.208 231.848 189.091 Q 232.042 188.974 232.182 188.88 L 232.569 189.419 Q 232.229 189.77 231.796 190.081 Q 231.362 190.391 230.882 190.62 Q 230.401 190.849 229.874 190.977 Q 229.347 191.106 228.807 191.106 Q 228.128 191.106 227.489 190.837 Q 226.85 190.567 226.358 189.934 Q 225.866 189.302 225.567 188.247 Q 225.268 187.192 225.268 185.622 Q 225.268 185.118 225.292 184.602 Q 225.315 184.087 225.362 183.513 Q 225.409 182.938 225.485 182.276 Q 225.561 181.614 225.667 180.817 L 225.538 180.794 Q 224.741 183.735 223.809 185.727 Q 222.878 187.72 221.899 188.938 Q 220.921 190.157 219.936 190.679 Q 218.952 191.2 218.061 191.2 Q 217.393 191.2 216.778 190.972 Q 216.163 190.743 215.682 190.222 Q 215.202 189.7 214.915 188.845 Q 214.628 187.989 214.628 186.735 Q 214.628 185.915 214.722 184.831 Q 214.815 183.747 214.927 182.522 Q 215.038 181.298 215.132 179.991 Q 215.225 178.684 215.225 177.407 Q 215.225 176.891 215.19 176.516 Q 215.155 176.141 215.038 175.895 Q 214.921 175.649 214.692 175.532 Q 214.464 175.415 214.065 175.415 Q 213.667 175.415 213.028 175.532 Q 212.39 175.649 211.686 175.849 L 211.511 175.005 Q 212.472 174.665 213.298 174.413 Q 214.124 174.161 214.774 173.997 Q 215.425 173.833 215.876 173.751 Q 216.327 173.669 216.538 173.669 Q 216.96 173.669 217.229 173.821 Q 217.499 173.974 217.663 174.266 Q 217.827 174.559 217.891 174.97 Q 217.956 175.38 217.956 175.907 Z M 233.08 175.005 Q 233.912 174.712 234.68 174.472 Q 235.448 174.231 236.092 174.056 Q 236.737 173.88 237.229 173.786 Q 237.721 173.692 238.002 173.692 Q 238.682 173.692 239.063 174.097 Q 239.444 174.501 239.444 175.485 Q 239.444 175.72 239.397 176.487 Q 239.35 177.255 239.262 178.415 Q 239.174 179.575 239.045 181.063 Q 238.916 182.552 238.752 184.227 L 238.823 184.239 Q 239.643 181.263 240.569 179.241 Q 241.494 177.22 242.455 175.977 Q 243.416 174.735 244.389 174.202 Q 245.362 173.669 246.276 173.669 Q 247.084 173.669 247.647 174.067 Q 248.209 174.466 248.561 175.11 Q 248.912 175.755 249.076 176.569 Q 249.241 177.384 249.241 178.227 Q 249.241 178.966 249.194 179.792 Q 249.147 180.618 249.076 181.421 Q 249.006 182.224 248.93 182.944 Q 248.854 183.665 248.795 184.204 L 248.866 184.216 Q 249.686 181.192 250.617 179.147 Q 251.549 177.102 252.516 175.86 Q 253.483 174.618 254.455 174.085 Q 255.428 173.552 256.342 173.552 Q 256.928 173.552 257.479 173.798 Q 258.03 174.044 258.457 174.589 Q 258.885 175.134 259.143 175.989 Q 259.401 176.845 259.401 178.052 Q 259.401 178.391 259.36 178.983 Q 259.319 179.575 259.26 180.302 Q 259.201 181.028 259.125 181.843 Q 259.049 182.657 258.991 183.442 Q 258.932 184.227 258.891 184.936 Q 258.85 185.645 258.85 186.161 Q 258.85 187.075 258.926 187.649 Q 259.002 188.224 259.178 188.558 Q 259.354 188.891 259.647 189.015 Q 259.94 189.138 260.362 189.138 Q 260.971 189.138 261.627 188.968 Q 262.284 188.798 262.951 188.493 L 263.174 189.102 Q 262.752 189.442 262.108 189.794 Q 261.463 190.145 260.754 190.438 Q 260.045 190.731 259.342 190.913 Q 258.639 191.095 258.1 191.095 Q 257.467 191.095 257.104 190.755 Q 256.741 190.415 256.559 189.829 Q 256.377 189.243 256.325 188.458 Q 256.272 187.673 256.272 186.77 Q 256.272 185.681 256.348 184.485 Q 256.424 183.29 256.518 182.212 Q 256.612 181.134 256.688 180.261 Q 256.764 179.388 256.764 178.942 Q 256.764 177.665 256.313 177.026 Q 255.862 176.388 255.088 176.388 Q 254.491 176.388 253.817 176.956 Q 253.143 177.524 252.469 178.52 Q 251.795 179.516 251.168 180.87 Q 250.541 182.224 250.037 183.806 Q 249.534 185.388 249.188 187.116 Q 248.842 188.845 248.737 190.579 L 246.287 190.884 L 246.1 190.872 Q 246.229 188.411 246.34 186.513 Q 246.451 184.614 246.539 183.196 Q 246.627 181.778 246.68 180.794 Q 246.733 179.809 246.733 179.165 Q 246.733 177.852 246.282 177.184 Q 245.83 176.516 245.127 176.516 Q 244.506 176.516 243.821 177.073 Q 243.135 177.63 242.467 178.614 Q 241.799 179.599 241.184 180.94 Q 240.569 182.282 240.071 183.841 Q 239.573 185.399 239.239 187.122 Q 238.905 188.845 238.799 190.579 L 236.35 190.884 L 236.162 190.872 Q 236.256 189.759 236.338 188.446 Q 236.42 187.134 236.491 185.78 Q 236.561 184.427 236.614 183.097 Q 236.666 181.766 236.707 180.612 Q 236.748 179.458 236.766 178.544 Q 236.784 177.63 236.784 177.102 Q 236.784 176.622 236.713 176.294 Q 236.643 175.966 236.496 175.772 Q 236.35 175.579 236.127 175.497 Q 235.905 175.415 235.6 175.415 Q 235.178 175.415 234.592 175.532 Q 234.006 175.649 233.256 175.849 Z" style="fill: rgb(51, 51, 51);"/>
    <path d="M 272.5 165.641 Q 273.039 166.602 273.724 167.78 Q 274.41 168.958 275.183 170.265 Q 275.957 171.571 276.795 172.966 Q 277.633 174.36 278.494 175.766 Q 279.355 177.173 280.199 178.544 Q 281.043 179.915 281.834 181.175 Q 282.625 182.434 283.334 183.536 Q 284.043 184.638 284.617 185.505 Q 284.617 182.364 284.629 179.786 Q 284.64 177.208 284.676 175.134 Q 284.711 173.059 284.758 171.448 Q 284.804 169.837 284.881 168.624 Q 284.957 167.411 285.056 166.561 Q 285.156 165.712 285.285 165.161 Q 285.39 164.692 285.584 164.382 Q 285.777 164.071 286.029 163.884 Q 286.281 163.696 286.58 163.62 Q 286.879 163.544 287.207 163.544 Q 287.992 163.544 288.836 163.884 L 288.836 164.001 Q 288.261 164.809 287.845 166.11 Q 287.429 167.411 287.136 168.999 Q 286.844 170.587 286.662 172.345 Q 286.48 174.102 286.375 175.831 Q 286.269 177.559 286.217 179.153 Q 286.164 180.747 286.129 182.001 Q 286.105 183.102 286.082 184.151 Q 286.058 185.2 286.041 186.249 Q 286.023 187.298 286.011 188.37 Q 286 189.442 286 190.579 L 284.57 190.766 L 284.359 190.743 Q 284.008 190.251 283.463 189.425 Q 282.918 188.599 282.238 187.532 Q 281.558 186.466 280.767 185.2 Q 279.976 183.934 279.127 182.563 Q 278.277 181.192 277.398 179.763 Q 276.519 178.333 275.658 176.927 Q 274.797 175.52 273.982 174.184 Q 273.168 172.849 272.453 171.671 Q 271.738 170.493 271.152 169.52 Q 270.566 168.548 270.156 167.868 Q 270.133 170.458 270.08 172.913 Q 270.027 175.368 269.945 177.63 Q 269.863 179.891 269.763 181.925 Q 269.664 183.958 269.547 185.704 Q 269.465 186.934 269.377 187.802 Q 269.289 188.669 269.166 189.249 Q 269.043 189.829 268.861 190.169 Q 268.679 190.509 268.41 190.679 Q 268.14 190.849 267.765 190.895 Q 267.39 190.942 266.875 190.942 L 266.558 190.942 Q 266.465 190.942 266.324 190.936 Q 266.183 190.931 265.961 190.919 L 265.797 190.802 Q 266.301 189.665 266.693 188.259 Q 267.086 186.852 267.379 185.276 Q 267.672 183.7 267.888 182.018 Q 268.105 180.337 268.246 178.649 Q 268.386 176.962 268.474 175.327 Q 268.562 173.692 268.609 172.216 Q 268.656 170.739 268.668 169.474 Q 268.679 168.208 268.679 167.27 Q 268.679 166.766 268.603 166.409 Q 268.527 166.052 268.322 165.823 Q 268.117 165.595 267.765 165.489 Q 267.414 165.384 266.851 165.384 Q 266.453 165.384 265.955 165.431 Q 265.457 165.477 264.824 165.571 L 264.695 164.54 Q 265.679 164.317 266.476 164.141 Q 267.273 163.966 267.918 163.849 Q 268.562 163.731 269.084 163.667 Q 269.605 163.602 270.027 163.602 Q 270.461 163.602 270.783 163.708 Q 271.105 163.813 271.381 164.048 Q 271.656 164.282 271.92 164.675 Q 272.183 165.067 272.5 165.641 Z M 297.478 175.907 Q 297.478 176.704 297.425 177.612 Q 297.373 178.52 297.296 179.458 Q 297.22 180.395 297.132 181.327 Q 297.044 182.259 296.968 183.091 Q 296.892 183.923 296.839 184.62 Q 296.787 185.317 296.787 185.786 Q 296.787 187.181 297.314 187.825 Q 297.841 188.47 298.72 188.47 Q 299.716 188.47 300.759 187.397 Q 301.802 186.325 302.751 184.263 Q 303.701 182.2 304.369 179.628 Q 305.037 177.056 305.224 174.079 L 307.708 173.774 L 307.896 173.786 Q 307.79 174.899 307.703 176.147 Q 307.615 177.395 307.544 178.643 Q 307.474 179.891 307.439 181.087 Q 307.404 182.282 307.404 183.29 Q 307.404 185.2 307.626 186.413 Q 307.849 187.626 308.201 188.323 Q 308.552 189.02 309.003 189.284 Q 309.455 189.548 309.912 189.548 Q 310.181 189.548 310.445 189.477 Q 310.708 189.407 310.943 189.308 Q 311.177 189.208 311.371 189.091 Q 311.564 188.974 311.705 188.88 L 312.091 189.419 Q 311.751 189.77 311.318 190.081 Q 310.884 190.391 310.404 190.62 Q 309.923 190.849 309.396 190.977 Q 308.869 191.106 308.33 191.106 Q 307.65 191.106 307.011 190.837 Q 306.373 190.567 305.88 189.934 Q 305.388 189.302 305.089 188.247 Q 304.79 187.192 304.79 185.622 Q 304.79 185.118 304.814 184.602 Q 304.837 184.087 304.884 183.513 Q 304.931 182.938 305.007 182.276 Q 305.083 181.614 305.189 180.817 L 305.06 180.794 Q 304.263 183.735 303.332 185.727 Q 302.4 187.72 301.421 188.938 Q 300.443 190.157 299.458 190.679 Q 298.474 191.2 297.583 191.2 Q 296.915 191.2 296.3 190.972 Q 295.685 190.743 295.205 190.222 Q 294.724 189.7 294.437 188.845 Q 294.15 187.989 294.15 186.735 Q 294.15 185.915 294.244 184.831 Q 294.337 183.747 294.449 182.522 Q 294.56 181.298 294.654 179.991 Q 294.748 178.684 294.748 177.407 Q 294.748 176.891 294.712 176.516 Q 294.677 176.141 294.56 175.895 Q 294.443 175.649 294.214 175.532 Q 293.986 175.415 293.587 175.415 Q 293.189 175.415 292.55 175.532 Q 291.912 175.649 291.208 175.849 L 291.033 175.005 Q 291.994 174.665 292.82 174.413 Q 293.646 174.161 294.296 173.997 Q 294.947 173.833 295.398 173.751 Q 295.849 173.669 296.06 173.669 Q 296.482 173.669 296.751 173.821 Q 297.021 173.974 297.185 174.266 Q 297.349 174.559 297.414 174.97 Q 297.478 175.38 297.478 175.907 Z M 312.602 175.005 Q 313.434 174.712 314.202 174.472 Q 314.97 174.231 315.614 174.056 Q 316.259 173.88 316.751 173.786 Q 317.243 173.692 317.524 173.692 Q 318.204 173.692 318.585 174.097 Q 318.966 174.501 318.966 175.485 Q 318.966 175.72 318.919 176.487 Q 318.872 177.255 318.784 178.415 Q 318.696 179.575 318.567 181.063 Q 318.438 182.552 318.274 184.227 L 318.345 184.239 Q 319.165 181.263 320.091 179.241 Q 321.017 177.22 321.977 175.977 Q 322.938 174.735 323.911 174.202 Q 324.884 173.669 325.798 173.669 Q 326.606 173.669 327.169 174.067 Q 327.731 174.466 328.083 175.11 Q 328.434 175.755 328.599 176.569 Q 328.763 177.384 328.763 178.227 Q 328.763 178.966 328.716 179.792 Q 328.669 180.618 328.599 181.421 Q 328.528 182.224 328.452 182.944 Q 328.376 183.665 328.317 184.204 L 328.388 184.216 Q 329.208 181.192 330.14 179.147 Q 331.071 177.102 332.038 175.86 Q 333.005 174.618 333.977 174.085 Q 334.95 173.552 335.864 173.552 Q 336.45 173.552 337.001 173.798 Q 337.552 174.044 337.979 174.589 Q 338.407 175.134 338.665 175.989 Q 338.923 176.845 338.923 178.052 Q 338.923 178.391 338.882 178.983 Q 338.841 179.575 338.782 180.302 Q 338.724 181.028 338.647 181.843 Q 338.571 182.657 338.513 183.442 Q 338.454 184.227 338.413 184.936 Q 338.372 185.645 338.372 186.161 Q 338.372 187.075 338.448 187.649 Q 338.524 188.224 338.7 188.558 Q 338.876 188.891 339.169 189.015 Q 339.462 189.138 339.884 189.138 Q 340.493 189.138 341.149 188.968 Q 341.806 188.798 342.474 188.493 L 342.696 189.102 Q 342.274 189.442 341.63 189.794 Q 340.985 190.145 340.276 190.438 Q 339.567 190.731 338.864 190.913 Q 338.161 191.095 337.622 191.095 Q 336.989 191.095 336.626 190.755 Q 336.263 190.415 336.081 189.829 Q 335.899 189.243 335.847 188.458 Q 335.794 187.673 335.794 186.77 Q 335.794 185.681 335.87 184.485 Q 335.946 183.29 336.04 182.212 Q 336.134 181.134 336.21 180.261 Q 336.286 179.388 336.286 178.942 Q 336.286 177.665 335.835 177.026 Q 335.384 176.388 334.61 176.388 Q 334.013 176.388 333.339 176.956 Q 332.665 177.524 331.991 178.52 Q 331.317 179.516 330.69 180.87 Q 330.063 182.224 329.559 183.806 Q 329.056 185.388 328.71 187.116 Q 328.364 188.845 328.259 190.579 L 325.809 190.884 L 325.622 190.872 Q 325.751 188.411 325.862 186.513 Q 325.974 184.614 326.061 183.196 Q 326.149 181.778 326.202 180.794 Q 326.255 179.809 326.255 179.165 Q 326.255 177.852 325.804 177.184 Q 325.352 176.516 324.649 176.516 Q 324.028 176.516 323.343 177.073 Q 322.657 177.63 321.989 178.614 Q 321.321 179.599 320.706 180.94 Q 320.091 182.282 319.593 183.841 Q 319.095 185.399 318.761 187.122 Q 318.427 188.845 318.321 190.579 L 315.872 190.884 L 315.684 190.872 Q 315.778 189.759 315.86 188.446 Q 315.942 187.134 316.013 185.78 Q 316.083 184.427 316.136 183.097 Q 316.188 181.766 316.229 180.612 Q 316.27 179.458 316.288 178.544 Q 316.306 177.63 316.306 177.102 Q 316.306 176.622 316.235 176.294 Q 316.165 175.966 316.018 175.772 Q 315.872 175.579 315.649 175.497 Q 315.427 175.415 315.122 175.415 Q 314.7 175.415 314.114 175.532 Q 313.528 175.649 312.778 175.849 Z M 351.107 159.126 Q 350.884 161.001 350.662 162.993 Q 350.439 164.985 350.234 167.024 Q 350.029 169.063 349.835 171.126 Q 349.642 173.188 349.484 175.198 Q 349.326 177.208 349.209 179.136 Q 349.091 181.063 349.021 182.833 L 349.15 182.845 Q 350.076 180.571 351.142 178.837 Q 352.209 177.102 353.31 175.931 Q 354.412 174.759 355.496 174.161 Q 356.58 173.563 357.541 173.563 Q 358.349 173.563 358.97 173.862 Q 359.591 174.161 360.048 174.659 Q 360.505 175.157 360.81 175.808 Q 361.115 176.458 361.302 177.167 Q 361.49 177.876 361.566 178.602 Q 361.642 179.329 361.642 179.962 Q 361.642 181.708 361.296 183.225 Q 360.951 184.743 360.341 185.991 Q 359.732 187.239 358.9 188.212 Q 358.068 189.184 357.095 189.852 Q 356.123 190.52 355.044 190.866 Q 353.966 191.212 352.876 191.212 Q 352.15 191.212 351.418 191.048 Q 350.685 190.884 349.988 190.544 Q 349.291 190.204 348.669 189.671 Q 348.048 189.138 347.556 188.411 Q 347.146 189.442 346.724 190.099 Q 346.302 190.755 345.939 191.153 L 345.33 191.001 Q 345.974 189.208 346.279 186.694 Q 346.584 184.181 346.748 181.005 Q 346.806 179.645 346.894 177.911 Q 346.982 176.177 347.076 174.255 Q 347.169 172.333 347.275 170.323 Q 347.38 168.313 347.486 166.415 Q 347.591 164.516 347.685 162.817 Q 347.779 161.118 347.861 159.806 Q 347.873 159.524 348.037 159.319 Q 348.201 159.114 348.447 158.991 Q 348.693 158.868 349.003 158.809 Q 349.314 158.751 349.619 158.751 Q 350.334 158.751 351.107 159.126 Z M 358.783 181.099 Q 358.783 180.302 358.66 179.458 Q 358.537 178.614 358.273 177.929 Q 358.009 177.243 357.582 176.804 Q 357.154 176.364 356.544 176.364 Q 355.83 176.364 355.132 176.722 Q 354.435 177.079 353.785 177.683 Q 353.134 178.286 352.537 179.077 Q 351.939 179.868 351.418 180.735 Q 350.896 181.602 350.48 182.487 Q 350.064 183.372 349.765 184.169 Q 349.466 184.966 349.302 185.616 Q 349.138 186.266 349.138 186.653 Q 349.314 187.38 349.683 187.972 Q 350.052 188.563 350.574 188.979 Q 351.095 189.395 351.734 189.618 Q 352.373 189.841 353.087 189.841 Q 354.259 189.841 355.296 189.249 Q 356.334 188.657 357.107 187.532 Q 357.88 186.407 358.332 184.784 Q 358.783 183.161 358.783 181.099 Z M 377.866 186.946 Q 377.937 186.981 378.048 187.046 Q 378.159 187.11 378.253 187.186 Q 378.347 187.263 378.417 187.35 Q 378.488 187.438 378.488 187.52 Q 378.488 187.567 378.452 187.614 Q 377.796 188.528 377.04 189.202 Q 376.284 189.876 375.47 190.327 Q 374.656 190.778 373.812 190.995 Q 372.968 191.212 372.148 191.212 Q 370.741 191.212 369.57 190.638 Q 368.398 190.063 367.554 189.067 Q 366.71 188.071 366.236 186.729 Q 365.761 185.388 365.761 183.852 Q 365.761 182.599 366.036 181.345 Q 366.312 180.091 366.833 178.954 Q 367.355 177.817 368.105 176.839 Q 368.855 175.86 369.81 175.14 Q 370.765 174.419 371.908 174.009 Q 373.05 173.599 374.363 173.599 Q 375.23 173.599 376.015 173.833 Q 376.8 174.067 377.392 174.507 Q 377.984 174.946 378.335 175.591 Q 378.687 176.235 378.687 177.056 Q 378.687 178.251 377.908 179.141 Q 377.128 180.032 375.757 180.653 Q 374.386 181.274 372.529 181.655 Q 370.671 182.036 368.515 182.224 L 368.515 182.423 Q 368.515 183.923 368.896 185.165 Q 369.277 186.407 369.945 187.292 Q 370.613 188.177 371.515 188.669 Q 372.417 189.161 373.46 189.161 Q 374.515 189.161 375.622 188.64 Q 376.73 188.118 377.866 186.946 Z M 375.663 177.536 Q 375.663 176.997 375.482 176.528 Q 375.3 176.059 374.978 175.714 Q 374.656 175.368 374.21 175.169 Q 373.765 174.97 373.249 174.97 Q 372.488 174.97 371.866 175.239 Q 371.245 175.509 370.753 175.972 Q 370.261 176.434 369.886 177.05 Q 369.511 177.665 369.247 178.356 Q 368.984 179.048 368.82 179.774 Q 368.656 180.501 368.585 181.192 Q 370.249 181.075 371.568 180.788 Q 372.886 180.501 373.794 180.05 Q 374.702 179.599 375.183 178.972 Q 375.663 178.345 375.663 177.536 Z M 384.043 190.884 L 383.855 190.872 Q 383.949 189.759 384.031 188.446 Q 384.113 187.134 384.183 185.78 Q 384.254 184.427 384.306 183.097 Q 384.359 181.766 384.4 180.612 Q 384.441 179.458 384.459 178.544 Q 384.476 177.63 384.476 177.102 Q 384.476 176.669 384.441 176.352 Q 384.406 176.036 384.283 175.825 Q 384.16 175.614 383.925 175.515 Q 383.691 175.415 383.293 175.415 Q 383.093 175.415 382.883 175.438 Q 382.672 175.462 382.414 175.509 Q 382.156 175.556 381.834 175.632 Q 381.511 175.708 381.09 175.813 L 380.914 174.97 Q 382.859 174.266 384.066 173.979 Q 385.273 173.692 385.695 173.692 Q 386.468 173.692 386.802 174.143 Q 387.136 174.595 387.136 175.485 Q 387.136 175.567 387.113 175.966 Q 387.09 176.364 387.049 177.003 Q 387.008 177.641 386.949 178.485 Q 386.89 179.329 386.814 180.296 Q 386.738 181.263 386.644 182.311 Q 386.55 183.36 386.445 184.403 L 386.562 184.415 Q 387.125 182.118 387.834 180.132 Q 388.543 178.145 389.427 176.681 Q 390.312 175.216 391.373 174.378 Q 392.433 173.54 393.699 173.54 Q 394.144 173.54 394.531 173.681 Q 394.918 173.821 395.199 174.073 Q 395.48 174.325 395.644 174.671 Q 395.808 175.016 395.808 175.427 Q 395.808 175.954 395.58 176.44 Q 395.351 176.927 394.859 177.302 L 394.765 177.302 Q 394.273 176.891 393.834 176.71 Q 393.394 176.528 392.902 176.528 Q 392.375 176.528 391.883 176.727 Q 391.39 176.927 390.98 177.302 Q 390.312 177.911 389.738 178.913 Q 389.164 179.915 388.689 181.134 Q 388.215 182.352 387.834 183.694 Q 387.453 185.036 387.177 186.308 Q 386.902 187.579 386.732 188.698 Q 386.562 189.817 386.492 190.579 Z M 399.648 186.349 Q 399.73 187.239 400.122 187.884 Q 400.515 188.528 401.089 188.938 Q 401.663 189.349 402.361 189.548 Q 403.058 189.747 403.749 189.747 Q 404.394 189.747 404.991 189.571 Q 405.589 189.395 406.046 189.067 Q 406.503 188.739 406.779 188.259 Q 407.054 187.778 407.054 187.181 Q 407.054 186.559 406.761 186.091 Q 406.468 185.622 405.976 185.235 Q 405.484 184.849 404.833 184.52 Q 404.183 184.192 403.48 183.852 Q 402.859 183.559 402.232 183.261 Q 401.605 182.962 401.019 182.61 Q 400.433 182.259 399.923 181.849 Q 399.413 181.438 399.032 180.94 Q 398.652 180.442 398.435 179.827 Q 398.218 179.212 398.218 178.462 Q 398.218 177.653 398.499 176.974 Q 398.78 176.294 399.267 175.749 Q 399.753 175.204 400.392 174.794 Q 401.03 174.384 401.757 174.108 Q 402.484 173.833 403.251 173.698 Q 404.019 173.563 404.745 173.563 Q 405.683 173.563 406.521 173.768 Q 407.359 173.974 407.986 174.366 Q 408.613 174.759 408.982 175.321 Q 409.351 175.884 409.351 176.587 Q 409.351 176.856 409.257 177.173 Q 409.163 177.489 408.941 177.765 Q 408.718 178.04 408.355 178.227 Q 407.991 178.415 407.464 178.427 Q 406.972 178.427 406.433 178.274 L 406.398 178.157 Q 406.562 177.782 406.632 177.466 Q 406.702 177.149 406.702 176.88 Q 406.691 176.341 406.427 175.972 Q 406.163 175.602 405.765 175.368 Q 405.366 175.134 404.88 175.028 Q 404.394 174.923 403.925 174.923 Q 403.093 174.923 402.437 175.145 Q 401.78 175.368 401.329 175.737 Q 400.878 176.106 400.638 176.575 Q 400.398 177.044 400.398 177.548 Q 400.398 178.192 400.738 178.702 Q 401.077 179.212 401.64 179.64 Q 402.202 180.067 402.935 180.442 Q 403.667 180.817 404.464 181.192 Q 405.355 181.614 406.234 182.065 Q 407.113 182.516 407.804 183.091 Q 408.495 183.665 408.923 184.409 Q 409.351 185.153 409.351 186.161 Q 409.351 187.368 408.818 188.306 Q 408.284 189.243 407.394 189.888 Q 406.503 190.532 405.349 190.866 Q 404.195 191.2 402.952 191.2 Q 402.331 191.2 401.669 191.106 Q 401.007 191.013 400.386 190.825 Q 399.765 190.638 399.208 190.362 Q 398.652 190.087 398.236 189.729 Q 397.82 189.372 397.579 188.933 Q 397.339 188.493 397.339 187.966 Q 397.339 187.509 397.532 187.192 Q 397.726 186.876 398.042 186.677 Q 398.359 186.477 398.751 186.378 Q 399.144 186.278 399.554 186.266 Z" style="fill: rgb(0, 82, 156);"/>
  </g>
</svg>