<?xml version="1.0" encoding="utf-8"?>
<svg viewBox="62.8806 227.1769 360.454 59.2014" xmlns="http://www.w3.org/2000/svg">
  <path d="M 75.314 244.422 L 82.284 243.48 L 78.94 259.212 Q 81.201 259.023 83.109 257.234 Q 85.016 255.444 86.099 252.806 Q 87.183 250.169 87.183 247.625 Q 87.183 244.799 85.723 243.009 Q 84.263 241.22 81.342 241.22 Q 75.596 241.22 72.37 244.234 Q 69.143 247.248 69.143 252.665 Q 69.143 254.408 69.473 255.091 Q 69.803 255.773 69.803 255.868 Q 67.259 255.868 66.011 254.808 Q 64.763 253.748 64.763 251.299 Q 64.763 248.285 67.236 245.435 Q 69.709 242.585 73.571 240.819 Q 77.433 239.053 81.295 239.053 Q 85.016 239.053 87.512 240.325 Q 90.009 241.596 91.21 243.692 Q 92.411 245.788 92.411 248.332 Q 92.411 251.393 90.739 254.313 Q 89.067 257.234 85.958 259.094 Q 82.85 260.954 78.799 260.954 L 78.563 260.954 L 75.69 274.378 L 68.908 274.378 Z" style="fill: rgb(51, 51, 51); text-transform: capitalize;"/>
  <path d="M 96.134 250.828 L 102.916 250.828 L 102.304 253.748 Q 103.905 252.335 105.201 251.582 Q 106.496 250.828 108.003 250.828 Q 109.51 250.828 110.382 251.864 Q 111.253 252.9 111.253 254.36 Q 111.253 255.726 110.358 256.763 Q 109.463 257.799 107.862 257.799 Q 106.826 257.799 106.472 257.304 Q 106.119 256.81 105.931 255.868 Q 105.789 255.255 105.648 254.973 Q 105.507 254.69 105.13 254.69 Q 104.141 254.69 103.458 255.091 Q 102.775 255.491 101.692 256.48 L 97.924 274.378 L 91.141 274.378 Z" style="fill: rgb(51, 51, 51); text-transform: capitalize;"/>
  <path d="M 118.842 274.661 Q 115.357 274.661 113.425 272.847 Q 111.494 271.034 111.494 267.172 Q 111.494 263.922 112.766 260.012 Q 114.038 256.103 116.911 253.254 Q 119.784 250.404 124.211 250.404 Q 129.392 250.404 129.392 254.926 Q 129.392 257.563 127.885 259.777 Q 126.378 261.991 123.882 263.333 Q 121.385 264.675 118.559 264.864 Q 118.465 266.277 118.465 266.748 Q 118.465 269.056 119.266 269.88 Q 120.067 270.704 121.856 270.704 Q 124.4 270.704 126.213 269.527 Q 128.026 268.349 130.193 265.947 L 131.794 265.947 Q 126.566 274.661 118.842 274.661 Z M 118.936 262.603 Q 120.679 262.509 122.257 261.378 Q 123.835 260.248 124.8 258.505 Q 125.766 256.763 125.766 254.831 Q 125.766 252.9 124.588 252.9 Q 122.893 252.9 121.268 255.868 Q 119.643 258.835 118.936 262.603 Z" style="fill: rgb(51, 51, 51); text-transform: capitalize;"/>
  <path d="M 160.306 274.661 Q 157.433 274.661 156.091 273.13 Q 154.749 271.599 154.749 269.338 Q 154.749 268.349 154.984 267.101 Q 155.22 265.853 155.479 264.675 Q 155.738 263.498 155.832 263.168 Q 156.209 261.52 156.538 259.918 Q 156.868 258.317 156.868 257.328 Q 156.868 254.926 155.173 254.926 Q 153.948 254.926 153.006 256.127 Q 152.064 257.328 151.499 259.259 L 148.296 274.378 L 141.514 274.378 L 144.952 258.128 Q 145.093 257.563 145.093 256.951 Q 145.093 254.879 143.68 254.879 Q 142.361 254.879 141.396 256.08 Q 140.43 257.281 139.865 259.259 L 136.662 274.378 L 129.88 274.378 L 134.872 250.828 L 141.655 250.828 L 141.137 253.277 Q 143.539 250.592 146.883 250.592 Q 151.028 250.592 151.734 254.643 Q 154.325 250.64 158.281 250.64 Q 160.683 250.64 162.096 251.958 Q 163.509 253.277 163.509 255.962 Q 163.509 257.328 163.18 259 Q 162.85 260.672 162.238 263.074 Q 161.861 264.534 161.555 265.924 Q 161.248 267.313 161.248 268.114 Q 161.248 269.056 161.672 269.574 Q 162.096 270.092 163.132 270.092 Q 164.545 270.092 165.393 269.079 Q 166.241 268.067 167.089 265.947 L 169.067 265.947 Q 167.324 271.128 165.04 272.894 Q 162.756 274.661 160.306 274.661 Z" style="fill: rgb(51, 51, 51); text-transform: capitalize;"/>
  <path d="M 176.424 248.285 Q 174.869 248.285 173.786 247.201 Q 172.703 246.118 172.703 244.564 Q 172.703 243.009 173.786 241.903 Q 174.869 240.796 176.424 240.796 Q 177.978 240.796 179.085 241.903 Q 180.192 243.009 180.192 244.564 Q 180.192 246.118 179.085 247.201 Q 177.978 248.285 176.424 248.285 Z M 173.221 274.661 Q 170.96 274.661 169.571 273.248 Q 168.181 271.835 168.181 269.009 Q 168.181 267.831 168.558 265.947 L 171.761 250.828 L 178.543 250.828 L 175.152 266.842 Q 174.964 267.548 174.964 268.349 Q 174.964 269.291 175.411 269.692 Q 175.858 270.092 176.895 270.092 Q 178.261 270.092 179.438 268.938 Q 180.616 267.784 181.134 265.947 L 183.112 265.947 Q 181.369 271.034 178.637 272.847 Q 175.906 274.661 173.221 274.661 Z" style="fill: rgb(51, 51, 51); text-transform: capitalize;"/>
  <path d="M 187.259 274.661 Q 184.998 274.661 183.608 273.248 Q 182.219 271.835 182.219 269.009 Q 182.219 267.831 182.596 265.947 L 185.799 250.828 L 192.581 250.828 L 189.19 266.842 Q 189.049 267.548 189.049 268.161 Q 189.049 270.092 190.462 270.092 Q 191.78 270.092 192.722 268.985 Q 193.664 267.878 194.23 265.947 L 197.432 250.828 L 204.215 250.828 L 200.824 266.842 Q 200.635 267.548 200.635 268.349 Q 200.635 269.291 201.083 269.692 Q 201.53 270.092 202.566 270.092 Q 203.885 270.092 204.851 268.961 Q 205.816 267.831 206.381 265.947 L 208.36 265.947 Q 206.617 271.034 204.05 272.847 Q 201.483 274.661 198.892 274.661 Q 196.867 274.661 195.666 273.53 Q 194.465 272.4 194.23 270.186 Q 192.628 272.777 190.862 273.719 Q 189.096 274.661 187.259 274.661 Z" style="fill: rgb(51, 51, 51); text-transform: capitalize;"/>
  <path d="M 235.683 274.661 Q 233.186 274.661 232.056 273.153 Q 230.925 271.646 230.925 269.338 Q 230.925 268.349 231.161 267.101 Q 231.396 265.853 231.655 264.675 Q 231.915 263.498 232.009 263.168 Q 232.386 261.52 232.715 259.918 Q 233.045 258.317 233.045 257.328 Q 233.045 254.926 231.349 254.926 Q 230.125 254.926 229.183 256.127 Q 228.241 257.328 227.676 259.259 L 224.473 274.378 L 217.69 274.378 L 221.129 258.128 Q 221.27 257.563 221.27 256.951 Q 221.27 254.879 219.857 254.879 Q 218.538 254.879 217.573 256.08 Q 216.607 257.281 216.042 259.259 L 212.839 274.378 L 206.057 274.378 L 211.049 250.828 L 217.832 250.828 L 217.314 253.277 Q 219.716 250.592 223.06 250.592 Q 227.205 250.592 227.911 254.643 Q 230.502 250.64 234.458 250.64 Q 236.86 250.64 238.273 251.958 Q 239.686 253.277 239.686 255.962 Q 239.686 257.328 239.356 259 Q 239.027 260.672 238.414 263.074 Q 238.038 264.534 237.731 265.924 Q 237.425 267.313 237.425 268.114 Q 237.425 269.056 237.849 269.574 Q 238.273 270.092 239.309 270.092 Q 240.44 270.092 240.864 269.809 Q 240.581 272.211 239.144 273.436 Q 237.708 274.661 235.683 274.661 Z" style="fill: rgb(51, 51, 51); text-transform: capitalize;"/>
  <path d="M 256.193 242.114 Q 252.99 243.245 251.318 245.671 Q 249.646 248.096 249.646 251.534 Q 249.646 253.042 249.975 254.29 Q 250.305 255.538 250.917 256.339 Q 247.903 256.339 246.466 255.091 Q 245.03 253.842 245.03 251.252 Q 245.03 247.955 246.961 245.105 Q 248.892 242.256 252.189 240.56 Q 255.486 238.865 259.348 238.865 Q 260.432 238.865 261.232 239.006 Q 262.033 239.147 263.069 239.524 L 268.721 264.722 L 273.996 239.147 L 278.565 239.147 L 270.888 274.378 L 264.388 274.378 L 258.924 251.016 L 253.555 274.378 L 249.08 274.378 Z" style="fill: rgb(48, 175, 91); text-transform: capitalize;"/>
  <path d="M 282.336 274.661 Q 280.075 274.661 278.686 273.248 Q 277.296 271.835 277.296 269.009 Q 277.296 267.831 277.673 265.947 L 280.876 250.828 L 287.658 250.828 L 284.267 266.842 Q 284.126 267.548 284.126 268.161 Q 284.126 270.092 285.539 270.092 Q 286.858 270.092 287.8 268.985 Q 288.742 267.878 289.307 265.947 L 292.51 250.828 L 299.292 250.828 L 295.901 266.842 Q 295.712 267.548 295.712 268.349 Q 295.712 269.291 296.16 269.692 Q 296.607 270.092 297.643 270.092 Q 298.962 270.092 299.928 268.961 Q 300.893 267.831 301.459 265.947 L 303.437 265.947 Q 301.694 271.034 299.127 272.847 Q 296.56 274.661 293.97 274.661 Q 291.944 274.661 290.743 273.53 Q 289.542 272.4 289.307 270.186 Q 287.705 272.777 285.939 273.719 Q 284.173 274.661 282.336 274.661 Z" style="fill: rgb(48, 175, 91); text-transform: capitalize;"/>
  <path d="M 331.56 274.661 Q 328.687 274.661 327.345 273.13 Q 326.003 271.599 326.003 269.338 Q 326.003 268.349 326.238 267.101 Q 326.474 265.853 326.733 264.675 Q 326.992 263.498 327.086 263.168 Q 327.463 261.52 327.792 259.918 Q 328.122 258.317 328.122 257.328 Q 328.122 254.926 326.427 254.926 Q 325.202 254.926 324.26 256.127 Q 323.318 257.328 322.753 259.259 L 319.55 274.378 L 312.768 274.378 L 316.206 258.128 Q 316.347 257.563 316.347 256.951 Q 316.347 254.879 314.934 254.879 Q 313.615 254.879 312.65 256.08 Q 311.684 257.281 311.119 259.259 L 307.916 274.378 L 301.134 274.378 L 306.126 250.828 L 312.909 250.828 L 312.391 253.277 Q 314.793 250.592 318.137 250.592 Q 322.282 250.592 322.988 254.643 Q 325.579 250.64 329.535 250.64 Q 331.937 250.64 333.35 251.958 Q 334.763 253.277 334.763 255.962 Q 334.763 257.328 334.434 259 Q 334.104 260.672 333.492 263.074 Q 333.115 264.534 332.809 265.924 Q 332.502 267.313 332.502 268.114 Q 332.502 269.056 332.926 269.574 Q 333.35 270.092 334.386 270.092 Q 335.799 270.092 336.647 269.079 Q 337.495 268.067 338.343 265.947 L 340.321 265.947 Q 338.578 271.128 336.294 272.894 Q 334.01 274.661 331.56 274.661 Z" style="fill: rgb(48, 175, 91); text-transform: capitalize;"/>
  <path d="M 346.076 274.661 Q 342.874 274.661 341.178 273.083 Q 339.482 271.505 339.482 268.632 Q 339.482 267.219 339.812 265.947 L 344.852 242.35 L 351.823 241.408 L 349.562 252.005 Q 350.881 251.205 351.728 250.946 Q 352.576 250.687 353.424 250.687 Q 358.982 250.687 358.982 258.741 Q 358.982 261.991 357.734 265.688 Q 356.485 269.385 353.589 272.023 Q 350.692 274.661 346.076 274.661 Z M 348.714 270.092 Q 350.174 270.092 351.446 268.279 Q 352.717 266.465 353.471 263.757 Q 354.225 261.049 354.225 258.552 Q 354.225 256.668 353.565 255.35 Q 352.906 254.031 351.728 254.031 Q 351.022 254.031 350.15 254.243 Q 349.279 254.455 348.949 254.879 L 346.359 266.842 Q 346.218 267.407 346.218 267.925 Q 346.218 270.092 348.714 270.092 Z" style="fill: rgb(48, 175, 91); text-transform: capitalize;"/>
  <path d="M 368.935 274.661 Q 365.45 274.661 363.519 272.847 Q 361.588 271.034 361.588 267.172 Q 361.588 263.922 362.859 260.012 Q 364.131 256.103 367.004 253.254 Q 369.877 250.404 374.305 250.404 Q 379.486 250.404 379.486 254.926 Q 379.486 257.563 377.979 259.777 Q 376.471 261.991 373.975 263.333 Q 371.479 264.675 368.653 264.864 Q 368.559 266.277 368.559 266.748 Q 368.559 269.056 369.359 269.88 Q 370.16 270.704 371.95 270.704 Q 374.493 270.704 376.307 269.527 Q 378.12 268.349 380.286 265.947 L 381.888 265.947 Q 376.66 274.661 368.935 274.661 Z M 369.03 262.603 Q 370.772 262.509 372.35 261.378 Q 373.928 260.248 374.894 258.505 Q 375.859 256.763 375.859 254.831 Q 375.859 252.9 374.682 252.9 Q 372.986 252.9 371.361 255.868 Q 369.736 258.835 369.03 262.603 Z" style="fill: rgb(48, 175, 91); text-transform: capitalize;"/>
  <path d="M 384.953 250.828 L 391.736 250.828 L 391.123 253.748 Q 392.725 252.335 394.02 251.582 Q 395.315 250.828 396.823 250.828 Q 398.33 250.828 399.201 251.864 Q 400.072 252.9 400.072 254.36 Q 400.072 255.726 399.178 256.763 Q 398.283 257.799 396.681 257.799 Q 395.645 257.799 395.292 257.304 Q 394.939 256.81 394.75 255.868 Q 394.609 255.255 394.468 254.973 Q 394.326 254.69 393.949 254.69 Q 392.96 254.69 392.277 255.091 Q 391.594 255.491 390.511 256.48 L 386.743 274.378 L 379.961 274.378 Z" style="fill: rgb(48, 175, 91); text-transform: capitalize;"/>
  <path d="M 406.295 274.661 Q 404.035 274.661 402.48 273.789 Q 400.926 272.918 400.172 271.528 Q 399.419 270.139 399.419 268.632 Q 399.419 267.077 400.149 265.924 Q 400.879 264.77 401.915 264.251 Q 403.752 260.954 405.118 257.587 Q 406.484 254.219 407.708 250.31 L 414.679 249.368 Q 414.915 255.397 415.48 262.415 Q 415.715 265.241 415.715 266.512 Q 415.715 269.385 414.255 271.222 Q 412.795 273.059 410.652 273.86 Q 408.509 274.661 406.295 274.661 Z M 404.788 270.94 Q 406.531 270.94 407.708 269.903 Q 408.886 268.867 408.886 266.559 Q 408.886 265.146 408.603 262.603 Q 408.132 257.234 407.991 255.397 Q 406.861 259.118 404.176 264.299 Q 405.259 264.864 405.259 265.947 Q 405.259 266.842 404.67 267.548 Q 404.082 268.255 403.187 268.255 Q 402.198 268.255 401.915 267.643 Q 401.915 269.338 402.598 270.139 Q 403.281 270.94 404.788 270.94 Z" style="fill: rgb(48, 175, 91); text-transform: capitalize;"/>
</svg>