<?xml version="1.0" encoding="utf-8"?>
<svg viewBox="43.1418 194.946 418.0125 71.2" width="418.013" height="71.2" xmlns="http://www.w3.org/2000/svg">
  <path d="M 58.488 269.228 Q 56.856 269.228 55.56 268.004 Q 54.264 266.78 54.264 263.852 Q 54.264 261.932 54.816 259.58 Q 55.368 257.228 56.16 254.708 Q 56.952 252.188 57.768 249.836 Q 58.584 247.484 59.112 245.564 Q 59.64 243.644 59.64 242.54 Q 59.64 241.244 58.632 241.244 Q 57.432 241.244 56.376 242.612 Q 55.32 243.98 54.024 246.428 L 53.736 246.332 Q 53.736 242.54 55.752 239.732 Q 57.768 236.924 61.2 235.388 Q 64.632 233.852 68.856 233.852 Q 73.128 233.852 75.792 235.316 Q 78.456 236.78 79.728 239.108 Q 81 241.436 81 244.076 Q 81 246.332 80.16 248.564 Q 79.32 250.796 77.76 252.62 Q 76.2 254.444 74.088 255.548 Q 71.976 256.652 69.432 256.652 Q 66.792 256.652 63.96 255.308 Q 63.336 257.66 62.856 260.084 Q 62.376 262.508 62.376 265.052 Q 62.376 266.3 62.52 267.548 Q 61.704 268.364 60.624 268.796 Q 59.544 269.228 58.488 269.228 Z M 66.168 251.852 Q 68.088 251.852 69.528 250.772 Q 70.968 249.692 71.76 248.036 Q 72.552 246.38 72.552 244.7 Q 72.552 242.732 71.28 241.196 Q 70.008 239.66 67.128 239.66 Q 66.744 239.66 66.24 239.708 Q 65.736 239.756 65.208 239.852 Q 65.592 241.052 65.712 242.228 Q 65.832 243.404 65.832 244.508 Q 65.832 246.428 65.544 248.204 Q 65.256 249.98 64.872 251.708 Q 65.544 251.852 66.168 251.852 Z" transform="matrix(1, 0, 0, 1, -8.833926, -16.489971)" style="fill: rgb(51, 51, 51); text-transform: capitalize;"/>
  <path d="M 89.932 269.228 Q 88.204 269.228 86.86 267.812 Q 85.516 266.396 85.516 263.804 Q 85.516 262.556 85.804 260.972 Q 86.092 259.388 86.476 257.732 Q 86.86 256.076 87.148 254.612 Q 87.436 253.148 87.436 252.188 Q 87.436 251.18 87.076 250.58 Q 86.716 249.98 86.14 249.98 Q 85.228 249.98 84.268 251.228 L 83.98 251.036 Q 83.932 250.268 84.316 249.212 Q 84.7 248.156 85.516 247.172 Q 86.332 246.188 87.604 245.516 Q 88.876 244.844 90.604 244.844 Q 93.148 244.844 94.3 246.308 Q 95.452 247.772 95.452 249.836 Q 95.452 250.172 95.428 250.532 Q 95.404 250.892 95.356 251.228 Q 97.084 248.108 98.98 246.452 Q 100.876 244.796 102.508 244.796 Q 104.044 244.796 104.764 245.996 Q 105.484 247.196 105.484 248.876 Q 105.484 250.412 104.884 251.996 Q 104.284 253.58 103.108 254.612 Q 101.932 255.644 100.252 255.596 L 100.06 255.5 Q 100.012 254.252 99.244 253.532 Q 98.476 252.812 97.516 252.812 Q 96.22 252.812 95.092 254.108 Q 93.964 255.404 93.964 257.852 Q 93.964 259.34 94.3 261.068 Q 94.636 262.796 94.636 263.996 Q 94.636 265.436 93.964 266.636 Q 93.292 267.836 92.236 268.532 Q 91.18 269.228 89.932 269.228 Z" transform="matrix(1, 0, 0, 1, -8.833926, -16.489971)" style="fill: rgb(51, 51, 51); text-transform: capitalize;"/>
  <path d="M 117.686 269.372 Q 114.182 269.372 111.878 267.956 Q 109.574 266.54 108.422 264.212 Q 107.27 261.884 107.27 259.196 Q 107.27 256.652 108.254 254.084 Q 109.238 251.516 111.134 249.404 Q 113.03 247.292 115.742 245.996 Q 118.454 244.7 121.862 244.7 Q 126.086 244.7 128.03 246.596 Q 129.974 248.492 129.974 251.18 Q 129.974 253.484 128.75 255.428 Q 127.526 257.372 125.51 258.548 Q 123.494 259.724 121.094 259.724 Q 119.846 259.724 118.55 259.34 Q 117.254 258.956 116.006 258.14 Q 116.246 261.116 117.734 262.46 Q 119.222 263.804 121.286 263.804 Q 122.726 263.804 124.166 263.252 Q 125.606 262.7 126.83 261.812 Q 128.054 260.924 128.726 259.916 L 129.062 260.156 Q 129.062 262.652 128.03 264.404 Q 126.998 266.156 125.318 267.26 Q 123.638 268.364 121.646 268.868 Q 119.654 269.372 117.686 269.372 Z M 118.79 256.412 Q 120.326 256.412 121.286 255.524 Q 122.246 254.636 122.726 253.436 Q 123.206 252.236 123.206 251.324 Q 123.206 250.22 122.582 249.476 Q 121.958 248.732 120.854 248.732 Q 119.99 248.732 118.958 249.356 Q 117.926 249.98 117.11 251.492 Q 116.294 253.004 116.054 255.692 Q 117.59 256.412 118.79 256.412 Z" transform="matrix(1, 0, 0, 1, -8.833926, -16.489971)" style="fill: rgb(51, 51, 51); text-transform: capitalize;"/>
  <path d="M 139.4 269.228 Q 137.672 269.228 136.304 267.812 Q 134.936 266.396 134.936 263.9 Q 134.936 262.652 135.272 261.044 Q 135.608 259.436 136.016 257.756 Q 136.424 256.076 136.76 254.588 Q 137.096 253.1 137.096 252.092 Q 137.096 251.276 136.712 250.772 Q 136.328 250.268 135.704 250.268 Q 134.888 250.268 133.928 251.228 L 133.64 251.036 Q 133.592 250.268 133.976 249.212 Q 134.36 248.156 135.224 247.172 Q 136.088 246.188 137.48 245.516 Q 138.872 244.844 140.792 244.844 Q 142.952 244.844 144.032 246.356 Q 145.112 247.868 145.112 249.98 Q 145.112 250.22 145.112 250.484 Q 145.112 250.748 145.064 250.988 Q 145.976 249.5 147.2 248.108 Q 148.424 246.716 149.984 245.78 Q 151.544 244.844 153.368 244.844 Q 155.72 244.844 156.632 246.356 Q 157.544 247.868 157.544 249.788 Q 157.544 250.172 157.52 250.532 Q 157.496 250.892 157.448 251.228 Q 158.456 249.74 159.68 248.276 Q 160.904 246.812 162.488 245.828 Q 164.072 244.844 166.136 244.844 Q 168.68 244.844 169.616 246.332 Q 170.552 247.82 170.552 249.836 Q 170.552 251.612 170.12 253.892 Q 169.688 256.172 169.256 258.38 Q 168.824 260.588 168.824 262.124 Q 168.824 263.036 169.088 263.612 Q 169.352 264.188 169.976 264.188 Q 170.504 264.188 170.96 263.876 Q 171.416 263.564 171.608 263.132 L 171.992 263.276 Q 171.992 265.052 170.984 266.396 Q 169.976 267.74 168.44 268.484 Q 166.904 269.228 165.368 269.228 Q 163.496 269.228 162.08 267.98 Q 160.664 266.732 160.664 263.852 Q 160.664 262.076 161.12 260.012 Q 161.576 257.948 162.032 256.004 Q 162.488 254.06 162.488 252.812 Q 162.488 251.036 161.24 251.036 Q 160.328 251.036 159.44 251.78 Q 158.552 252.524 157.856 253.748 Q 157.16 254.972 156.728 256.316 Q 156.296 257.66 156.296 258.908 Q 156.296 260.06 156.56 261.428 Q 156.824 262.796 156.824 264.044 Q 156.824 266.54 155.432 267.884 Q 154.04 269.228 152.168 269.228 Q 150.44 269.228 149.072 268.076 Q 147.704 266.924 147.704 264.62 Q 147.704 263.564 147.992 262.052 Q 148.28 260.54 148.64 258.884 Q 149 257.228 149.288 255.692 Q 149.576 254.156 149.576 253.004 Q 149.576 252.092 149.312 251.564 Q 149.048 251.036 148.28 251.036 Q 147.176 251.036 146.168 252.14 Q 145.16 253.244 144.44 254.804 Q 143.72 256.364 143.48 257.804 Q 143.432 258.14 143.408 258.332 Q 143.384 258.524 143.384 258.524 Q 143.384 260.012 143.72 261.236 Q 144.056 262.46 144.056 263.756 Q 144.056 266.108 142.64 267.668 Q 141.224 269.228 139.4 269.228 Z" transform="matrix(1, 0, 0, 1, -8.833926, -16.489971)" style="fill: rgb(51, 51, 51); text-transform: capitalize;"/>
  <path d="M 184.915 243.356 Q 182.995 243.356 181.771 242.18 Q 180.547 241.004 180.547 239.228 Q 180.547 237.308 181.987 235.916 Q 183.427 234.524 185.491 234.524 Q 187.411 234.524 188.635 235.724 Q 189.859 236.924 189.859 238.7 Q 189.859 240.62 188.419 241.988 Q 186.979 243.356 184.915 243.356 Z M 181.555 269.228 Q 179.683 269.228 178.195 267.908 Q 176.707 266.588 176.707 263.66 Q 176.707 261.98 177.163 260.516 Q 177.619 259.052 178.219 257.66 Q 178.819 256.268 179.275 254.948 Q 179.731 253.628 179.731 252.332 Q 179.731 251.18 179.347 250.676 Q 178.963 250.172 178.435 250.172 Q 177.619 250.172 176.851 251.228 L 176.515 251.036 Q 176.707 249.116 177.739 247.748 Q 178.771 246.38 180.283 245.612 Q 181.795 244.844 183.283 244.844 Q 185.107 244.844 186.451 246.02 Q 187.795 247.196 187.795 249.836 Q 187.795 251.42 187.339 253.172 Q 186.883 254.924 186.283 256.652 Q 185.683 258.38 185.227 259.868 Q 184.771 261.356 184.771 262.412 Q 184.771 263.324 185.131 263.708 Q 185.491 264.092 185.923 264.092 Q 186.355 264.092 186.763 263.828 Q 187.171 263.564 187.363 263.228 L 187.699 263.324 Q 187.699 265.1 186.763 266.42 Q 185.827 267.74 184.435 268.484 Q 183.043 269.228 181.555 269.228 Z" transform="matrix(1, 0, 0, 1, -8.833926, -16.489971)" style="fill: rgb(51, 51, 51); text-transform: capitalize;"/>
  <path d="M 199.087 269.228 Q 196.927 269.228 195.463 267.452 Q 193.999 265.676 193.999 262.7 Q 193.999 261.068 194.383 259.196 Q 194.767 257.324 195.151 255.644 Q 195.487 254.396 195.703 253.316 Q 195.919 252.236 195.919 251.564 Q 195.919 250.7 195.559 250.316 Q 195.199 249.932 194.719 249.932 Q 194.239 249.932 193.759 250.244 Q 193.279 250.556 192.991 251.18 L 192.607 251.036 Q 192.607 249.068 193.567 247.676 Q 194.527 246.284 196.015 245.564 Q 197.503 244.844 199.039 244.844 Q 200.287 244.844 201.439 245.348 Q 202.591 245.852 203.335 246.908 Q 204.079 247.964 204.079 249.548 Q 204.079 250.508 203.815 251.852 Q 203.551 253.196 203.215 254.636 Q 202.879 256.124 202.567 257.636 Q 202.255 259.148 202.255 260.3 Q 202.255 261.356 202.591 262.028 Q 202.927 262.7 203.599 262.7 Q 204.847 262.7 206.407 260.396 Q 207.967 258.092 208.927 254.204 Q 209.119 253.436 209.263 252.572 Q 209.407 251.708 209.407 250.796 Q 209.407 250.076 209.311 249.332 Q 209.215 248.588 209.023 247.82 L 209.023 247.484 Q 209.791 246.188 211.015 245.516 Q 212.239 244.844 213.487 244.844 Q 215.167 244.844 216.511 245.996 Q 217.855 247.148 217.855 249.356 Q 217.855 250.652 217.375 252.356 Q 216.895 254.06 216.319 255.884 Q 215.743 257.66 215.263 259.388 Q 214.783 261.116 214.783 262.46 Q 214.783 264.428 216.175 264.428 Q 216.559 264.428 217.111 264.212 Q 217.663 263.996 218.143 263.324 L 218.479 263.42 Q 218.479 265.148 217.543 266.468 Q 216.607 267.788 215.167 268.508 Q 213.727 269.228 212.191 269.228 Q 210.223 269.228 208.663 267.788 Q 207.103 266.348 207.103 263.084 L 207.103 262.988 Q 205.135 266.348 203.023 267.788 Q 200.911 269.228 199.087 269.228 Z" transform="matrix(1, 0, 0, 1, -8.833926, -16.489971)" style="fill: rgb(51, 51, 51); text-transform: capitalize;"/>
  <path d="M 227.95 269.228 Q 226.222 269.228 224.854 267.812 Q 223.486 266.396 223.486 263.9 Q 223.486 262.652 223.822 261.044 Q 224.158 259.436 224.566 257.756 Q 224.974 256.076 225.31 254.588 Q 225.646 253.1 225.646 252.092 Q 225.646 251.276 225.262 250.772 Q 224.878 250.268 224.254 250.268 Q 223.438 250.268 222.478 251.228 L 222.19 251.036 Q 222.142 250.268 222.526 249.212 Q 222.91 248.156 223.774 247.172 Q 224.638 246.188 226.03 245.516 Q 227.422 244.844 229.342 244.844 Q 231.502 244.844 232.582 246.356 Q 233.662 247.868 233.662 249.98 Q 233.662 250.22 233.662 250.484 Q 233.662 250.748 233.614 250.988 Q 234.526 249.5 235.75 248.108 Q 236.974 246.716 238.534 245.78 Q 240.094 244.844 241.918 244.844 Q 244.27 244.844 245.182 246.356 Q 246.094 247.868 246.094 249.788 Q 246.094 250.172 246.07 250.532 Q 246.046 250.892 245.998 251.228 Q 247.006 249.74 248.23 248.276 Q 249.454 246.812 251.038 245.828 Q 252.622 244.844 254.686 244.844 Q 257.23 244.844 258.166 246.332 Q 259.102 247.82 259.102 249.836 Q 259.102 251.612 258.67 253.892 Q 258.238 256.172 257.806 258.38 Q 257.374 260.588 257.374 262.124 Q 257.374 263.036 257.638 263.612 Q 257.902 264.188 258.526 264.188 Q 259.054 264.188 259.51 263.876 Q 259.966 263.564 260.158 263.132 L 260.542 263.276 Q 260.542 265.052 259.534 266.396 Q 258.526 267.74 256.99 268.484 Q 255.454 269.228 253.918 269.228 Q 252.046 269.228 250.63 267.98 Q 249.214 266.732 249.214 263.852 Q 249.214 262.076 249.67 260.012 Q 250.126 257.948 250.582 256.004 Q 251.038 254.06 251.038 252.812 Q 251.038 251.036 249.79 251.036 Q 248.878 251.036 247.99 251.78 Q 247.102 252.524 246.406 253.748 Q 245.71 254.972 245.278 256.316 Q 244.846 257.66 244.846 258.908 Q 244.846 260.06 245.11 261.428 Q 245.374 262.796 245.374 264.044 Q 245.374 266.54 243.982 267.884 Q 242.59 269.228 240.718 269.228 Q 238.99 269.228 237.622 268.076 Q 236.254 266.924 236.254 264.62 Q 236.254 263.564 236.542 262.052 Q 236.83 260.54 237.19 258.884 Q 237.55 257.228 237.838 255.692 Q 238.126 254.156 238.126 253.004 Q 238.126 252.092 237.862 251.564 Q 237.598 251.036 236.83 251.036 Q 235.726 251.036 234.718 252.14 Q 233.71 253.244 232.99 254.804 Q 232.27 256.364 232.03 257.804 Q 231.982 258.14 231.958 258.332 Q 231.934 258.524 231.934 258.524 Q 231.934 260.012 232.27 261.236 Q 232.606 262.46 232.606 263.756 Q 232.606 266.108 231.19 267.668 Q 229.774 269.228 227.95 269.228 Z" transform="matrix(1, 0, 0, 1, -8.833926, -16.489971)" style="fill: rgb(51, 51, 51); text-transform: capitalize;"/>
  <path d="M 268.437 269.228 Q 266.661 269.228 265.197 267.788 Q 263.733 266.348 263.733 263.228 Q 263.733 260.108 264.333 257.204 Q 264.933 254.3 265.725 251.612 Q 266.517 248.924 267.117 246.5 Q 267.717 244.076 267.717 241.916 Q 266.997 241.628 266.373 241.628 Q 265.509 241.628 264.933 242.156 Q 264.357 242.684 264.021 243.596 L 263.541 243.452 Q 263.589 240.092 264.525 238.1 Q 265.461 236.108 266.949 235.244 Q 268.437 234.38 270.021 234.38 Q 272.421 234.38 274.317 235.94 Q 276.213 237.5 277.725 240.188 Q 279.237 242.876 280.365 246.26 Q 281.493 249.644 282.309 253.316 Q 283.125 256.988 283.605 260.54 Q 283.893 258.62 284.205 255.836 Q 284.517 253.052 284.757 249.98 Q 284.997 246.908 284.997 244.124 Q 284.997 242.108 284.853 240.452 Q 284.709 238.796 284.373 237.596 L 284.373 237.212 Q 285.621 235.82 286.893 235.1 Q 288.165 234.38 289.269 234.38 Q 290.901 234.38 291.981 235.796 Q 293.061 237.212 293.061 239.804 Q 293.061 241.724 292.533 244.484 Q 292.005 247.244 291.285 250.364 Q 290.565 253.484 290.013 256.484 Q 289.461 259.484 289.413 261.884 Q 289.413 262.556 289.509 263.324 Q 289.605 264.092 290.517 264.092 Q 290.565 264.284 290.565 264.38 Q 290.565 264.476 290.565 264.572 Q 290.517 266.396 289.077 267.812 Q 287.637 269.228 285.237 269.228 Q 283.365 269.228 282.069 268.268 Q 280.773 267.308 279.909 265.7 Q 279.045 264.092 278.445 262.052 Q 277.845 260.012 277.317 257.852 Q 276.357 254.108 275.325 250.724 Q 274.293 247.34 272.565 244.508 Q 272.661 246.428 272.421 248.708 Q 272.181 250.988 271.917 253.316 Q 271.653 255.644 271.653 257.804 Q 271.653 259.724 271.989 261.332 Q 272.325 262.94 273.189 264.188 Q 273.189 266.54 271.701 267.884 Q 270.213 269.228 268.437 269.228 Z" transform="matrix(1, 0, 0, 1, -8.833926, -16.489971)" style="fill: rgb(48, 175, 91); text-transform: capitalize;"/>
  <path d="M 304.2 269.228 Q 302.04 269.228 300.576 267.452 Q 299.112 265.676 299.112 262.7 Q 299.112 261.068 299.496 259.196 Q 299.88 257.324 300.264 255.644 Q 300.6 254.396 300.816 253.316 Q 301.032 252.236 301.032 251.564 Q 301.032 250.7 300.672 250.316 Q 300.312 249.932 299.832 249.932 Q 299.352 249.932 298.872 250.244 Q 298.392 250.556 298.104 251.18 L 297.72 251.036 Q 297.72 249.068 298.68 247.676 Q 299.64 246.284 301.128 245.564 Q 302.616 244.844 304.152 244.844 Q 305.4 244.844 306.552 245.348 Q 307.704 245.852 308.448 246.908 Q 309.192 247.964 309.192 249.548 Q 309.192 250.508 308.928 251.852 Q 308.664 253.196 308.328 254.636 Q 307.992 256.124 307.68 257.636 Q 307.368 259.148 307.368 260.3 Q 307.368 261.356 307.704 262.028 Q 308.04 262.7 308.712 262.7 Q 309.96 262.7 311.52 260.396 Q 313.08 258.092 314.04 254.204 Q 314.232 253.436 314.376 252.572 Q 314.52 251.708 314.52 250.796 Q 314.52 250.076 314.424 249.332 Q 314.328 248.588 314.136 247.82 L 314.136 247.484 Q 314.904 246.188 316.128 245.516 Q 317.352 244.844 318.6 244.844 Q 320.28 244.844 321.624 245.996 Q 322.968 247.148 322.968 249.356 Q 322.968 250.652 322.488 252.356 Q 322.008 254.06 321.432 255.884 Q 320.856 257.66 320.376 259.388 Q 319.896 261.116 319.896 262.46 Q 319.896 264.428 321.288 264.428 Q 321.672 264.428 322.224 264.212 Q 322.776 263.996 323.256 263.324 L 323.592 263.42 Q 323.592 265.148 322.656 266.468 Q 321.72 267.788 320.28 268.508 Q 318.84 269.228 317.304 269.228 Q 315.336 269.228 313.776 267.788 Q 312.216 266.348 312.216 263.084 L 312.216 262.988 Q 310.248 266.348 308.136 267.788 Q 306.024 269.228 304.2 269.228 Z" transform="matrix(1, 0, 0, 1, -8.833926, -16.489971)" style="fill: rgb(48, 175, 91); text-transform: capitalize;"/>
  <path d="M 333.062 269.228 Q 331.334 269.228 329.966 267.812 Q 328.598 266.396 328.598 263.9 Q 328.598 262.652 328.934 261.044 Q 329.27 259.436 329.678 257.756 Q 330.086 256.076 330.422 254.588 Q 330.758 253.1 330.758 252.092 Q 330.758 251.276 330.374 250.772 Q 329.99 250.268 329.366 250.268 Q 328.55 250.268 327.59 251.228 L 327.302 251.036 Q 327.254 250.268 327.638 249.212 Q 328.022 248.156 328.886 247.172 Q 329.75 246.188 331.142 245.516 Q 332.534 244.844 334.454 244.844 Q 336.614 244.844 337.694 246.356 Q 338.774 247.868 338.774 249.98 Q 338.774 250.22 338.774 250.484 Q 338.774 250.748 338.726 250.988 Q 339.638 249.5 340.862 248.108 Q 342.086 246.716 343.646 245.78 Q 345.206 244.844 347.03 244.844 Q 349.382 244.844 350.294 246.356 Q 351.206 247.868 351.206 249.788 Q 351.206 250.172 351.182 250.532 Q 351.158 250.892 351.11 251.228 Q 352.118 249.74 353.342 248.276 Q 354.566 246.812 356.15 245.828 Q 357.734 244.844 359.798 244.844 Q 362.342 244.844 363.278 246.332 Q 364.214 247.82 364.214 249.836 Q 364.214 251.612 363.782 253.892 Q 363.35 256.172 362.918 258.38 Q 362.486 260.588 362.486 262.124 Q 362.486 263.036 362.75 263.612 Q 363.014 264.188 363.638 264.188 Q 364.166 264.188 364.622 263.876 Q 365.078 263.564 365.27 263.132 L 365.654 263.276 Q 365.654 265.052 364.646 266.396 Q 363.638 267.74 362.102 268.484 Q 360.566 269.228 359.03 269.228 Q 357.158 269.228 355.742 267.98 Q 354.326 266.732 354.326 263.852 Q 354.326 262.076 354.782 260.012 Q 355.238 257.948 355.694 256.004 Q 356.15 254.06 356.15 252.812 Q 356.15 251.036 354.902 251.036 Q 353.99 251.036 353.102 251.78 Q 352.214 252.524 351.518 253.748 Q 350.822 254.972 350.39 256.316 Q 349.958 257.66 349.958 258.908 Q 349.958 260.06 350.222 261.428 Q 350.486 262.796 350.486 264.044 Q 350.486 266.54 349.094 267.884 Q 347.702 269.228 345.83 269.228 Q 344.102 269.228 342.734 268.076 Q 341.366 266.924 341.366 264.62 Q 341.366 263.564 341.654 262.052 Q 341.942 260.54 342.302 258.884 Q 342.662 257.228 342.95 255.692 Q 343.238 254.156 343.238 253.004 Q 343.238 252.092 342.974 251.564 Q 342.71 251.036 341.942 251.036 Q 340.838 251.036 339.83 252.14 Q 338.822 253.244 338.102 254.804 Q 337.382 256.364 337.142 257.804 Q 337.094 258.14 337.07 258.332 Q 337.046 258.524 337.046 258.524 Q 337.046 260.012 337.382 261.236 Q 337.718 262.46 337.718 263.756 Q 337.718 266.108 336.302 267.668 Q 334.886 269.228 333.062 269.228 Z" transform="matrix(1, 0, 0, 1, -8.833926, -16.489971)" style="fill: rgb(48, 175, 91); text-transform: capitalize;"/>
  <path d="M 382.077 269.228 Q 380.157 269.228 378.573 268.388 Q 376.989 267.548 375.981 265.916 Q 375.933 266.828 375.309 267.596 Q 374.685 268.364 372.957 268.364 Q 371.037 268.364 370.125 267.308 Q 369.213 266.252 369.213 264.524 Q 369.213 263.468 369.501 261.476 Q 369.789 259.484 370.197 256.988 Q 370.605 254.492 371.013 251.804 Q 371.421 249.116 371.709 246.572 Q 371.997 244.028 371.997 242.012 Q 371.997 240.668 371.853 239.66 Q 371.709 238.652 371.325 238.076 L 371.325 237.788 Q 372.429 236.588 373.629 235.988 Q 374.829 235.388 375.933 235.388 Q 377.565 235.388 378.717 236.684 Q 379.869 237.98 379.869 240.812 Q 379.869 242.204 379.581 244.724 Q 379.293 247.244 378.861 249.74 Q 380.589 247.292 382.533 245.996 Q 384.477 244.7 386.301 244.7 Q 388.749 244.7 390.477 247.028 Q 392.205 249.356 392.205 254.06 Q 392.205 256.844 391.557 259.556 Q 390.909 262.268 389.613 264.452 Q 388.317 266.636 386.421 267.932 Q 384.525 269.228 382.077 269.228 Z M 379.677 264.38 Q 381.213 264.38 382.293 263.036 Q 383.373 261.692 383.925 259.604 Q 384.477 257.516 384.477 255.308 Q 384.477 253.868 384.237 252.548 Q 383.997 251.228 383.517 250.388 Q 383.037 249.548 382.269 249.548 Q 380.925 249.548 379.221 252.692 Q 377.517 255.836 376.557 261.596 Q 377.421 264.38 379.677 264.38 Z" transform="matrix(1, 0, 0, 1, -8.833926, -16.489971)" style="fill: rgb(48, 175, 91); text-transform: capitalize;"/>
  <path d="M 406.811 269.372 Q 403.307 269.372 401.003 267.956 Q 398.699 266.54 397.547 264.212 Q 396.395 261.884 396.395 259.196 Q 396.395 256.652 397.379 254.084 Q 398.363 251.516 400.259 249.404 Q 402.155 247.292 404.867 245.996 Q 407.579 244.7 410.987 244.7 Q 415.211 244.7 417.155 246.596 Q 419.099 248.492 419.099 251.18 Q 419.099 253.484 417.875 255.428 Q 416.651 257.372 414.635 258.548 Q 412.619 259.724 410.219 259.724 Q 408.971 259.724 407.675 259.34 Q 406.379 258.956 405.131 258.14 Q 405.371 261.116 406.859 262.46 Q 408.347 263.804 410.411 263.804 Q 411.851 263.804 413.291 263.252 Q 414.731 262.7 415.955 261.812 Q 417.179 260.924 417.851 259.916 L 418.187 260.156 Q 418.187 262.652 417.155 264.404 Q 416.123 266.156 414.443 267.26 Q 412.763 268.364 410.771 268.868 Q 408.779 269.372 406.811 269.372 Z M 407.915 256.412 Q 409.451 256.412 410.411 255.524 Q 411.371 254.636 411.851 253.436 Q 412.331 252.236 412.331 251.324 Q 412.331 250.22 411.707 249.476 Q 411.083 248.732 409.979 248.732 Q 409.115 248.732 408.083 249.356 Q 407.051 249.98 406.235 251.492 Q 405.419 253.004 405.179 255.692 Q 406.715 256.412 407.915 256.412 Z" transform="matrix(1, 0, 0, 1, -8.833926, -16.489971)" style="fill: rgb(48, 175, 91); text-transform: capitalize;"/>
  <path d="M 428.619 269.228 Q 426.891 269.228 425.547 267.812 Q 424.203 266.396 424.203 263.804 Q 424.203 262.556 424.491 260.972 Q 424.779 259.388 425.163 257.732 Q 425.547 256.076 425.835 254.612 Q 426.123 253.148 426.123 252.188 Q 426.123 251.18 425.763 250.58 Q 425.403 249.98 424.827 249.98 Q 423.915 249.98 422.955 251.228 L 422.667 251.036 Q 422.619 250.268 423.003 249.212 Q 423.387 248.156 424.203 247.172 Q 425.019 246.188 426.291 245.516 Q 427.563 244.844 429.291 244.844 Q 431.835 244.844 432.987 246.308 Q 434.139 247.772 434.139 249.836 Q 434.139 250.172 434.115 250.532 Q 434.091 250.892 434.043 251.228 Q 435.771 248.108 437.667 246.452 Q 439.563 244.796 441.195 244.796 Q 442.731 244.796 443.451 245.996 Q 444.171 247.196 444.171 248.876 Q 444.171 250.412 443.571 251.996 Q 442.971 253.58 441.795 254.612 Q 440.619 255.644 438.939 255.596 L 438.747 255.5 Q 438.699 254.252 437.931 253.532 Q 437.163 252.812 436.203 252.812 Q 434.907 252.812 433.779 254.108 Q 432.651 255.404 432.651 257.852 Q 432.651 259.34 432.987 261.068 Q 433.323 262.796 433.323 263.996 Q 433.323 265.436 432.651 266.636 Q 431.979 267.836 430.923 268.532 Q 429.867 269.228 428.619 269.228 Z" transform="matrix(1, 0, 0, 1, -8.833926, -16.489971)" style="fill: rgb(48, 175, 91); text-transform: capitalize;"/>
  <path d="M 454.313 269.468 Q 451.337 269.468 449.369 268.652 Q 447.401 267.836 446.441 266.564 Q 445.481 265.292 445.481 263.996 Q 445.481 262.172 447.113 260.756 Q 448.745 259.34 451.529 259.34 Q 451.529 261.788 452.153 263.252 Q 452.777 264.716 453.761 265.34 Q 454.745 265.964 455.657 265.964 Q 456.761 265.964 457.505 265.316 Q 458.249 264.668 458.249 263.708 Q 458.249 262.364 456.857 261.356 Q 455.465 260.348 453.257 259.1 Q 452.153 258.428 450.857 257.54 Q 449.561 256.652 448.649 255.38 Q 447.737 254.108 447.737 252.332 Q 447.737 250.46 448.817 249.02 Q 449.897 247.58 451.673 246.596 Q 453.449 245.612 455.513 245.108 Q 457.577 244.604 459.545 244.604 Q 463.241 244.604 465.113 246.092 Q 466.985 247.58 466.985 249.26 Q 466.985 250.7 465.545 251.852 Q 464.105 253.004 461.129 253.004 Q 461.177 250.556 460.121 249.428 Q 459.065 248.3 457.865 248.3 Q 457.001 248.3 456.425 248.828 Q 455.849 249.356 455.849 250.364 Q 455.849 251.516 456.593 252.356 Q 457.337 253.196 458.465 253.844 Q 459.593 254.492 460.793 255.068 Q 462.425 255.836 463.865 256.7 Q 465.305 257.564 466.217 258.668 Q 467.129 259.772 467.129 261.356 Q 467.129 263.516 465.377 265.364 Q 463.625 267.212 460.697 268.34 Q 457.769 269.468 454.313 269.468 Z" transform="matrix(1, 0, 0, 1, -8.833926, -16.489971)" style="fill: rgb(48, 175, 91); text-transform: capitalize;"/>
</svg>