<?xml version="1.0" encoding="utf-8"?>
<svg viewBox="71.9963 213.1918 332.155 70.671" xmlns="http://www.w3.org/2000/svg">
  <g transform="matrix(0.9999999999999999, 0, 0, 0.9999999999999999, -27.090687201778387, 67.13780312445465)">
    <rect x="99.087" y="146.054" width="332.155" height="70.671" style="stroke: rgb(0, 0, 0); fill: none; fill-rule: nonzero; paint-order: fill; vector-effect: non-scaling-stroke; stroke-opacity: 0; stroke-width: 0px; stroke-dasharray: 1, 0;"/>
    <path d="M 121.271 167.294 C 121.271 166.966 121.24366666666667 166.68466666666666 121.189 166.45 C 121.13433333333333 166.21599999999998 121.03866666666667 166.02466666666666 120.902 165.876 C 120.76533333333333 165.72733333333332 120.57600000000001 165.618 120.334 165.548 C 120.09133333333334 165.47733333333335 119.78266666666667 165.442 119.408 165.442 C 118.892 165.442 118.23166666666667 165.50066666666666 117.427 165.618 L 117.287 164.575 C 118.021 164.44233333333332 118.82366666666667 164.30566666666667 119.695 164.165 C 120.56633333333333 164.02433333333335 121.461 163.89533333333333 122.379 163.778 C 123.29633333333334 163.66066666666666 124.218 163.565 125.144 163.491 C 126.07000000000001 163.417 126.95866666666667 163.38 127.81 163.38 C 128.93533333333332 163.38 129.992 163.48133333333334 130.98 163.684 C 131.968 163.88733333333334 132.83133333333333 164.23333333333335 133.57 164.722 C 134.308 165.21 134.892 165.864 135.322 166.684 C 135.75133333333335 167.50466666666665 135.966 168.52833333333334 135.966 169.755 C 135.966 171.18433333333334 135.726 172.46733333333333 135.246 173.604 C 134.76533333333333 174.74066666666667 134.09133333333332 175.70366666666666 133.224 176.493 C 132.35666666666665 177.28233333333333 131.31566666666666 177.886 130.101 178.304 C 128.88633333333334 178.722 127.54466666666666 178.931 126.076 178.931 C 125.748 178.931 125.51733333333334 178.88 125.384 178.778 C 125.25133333333333 178.67666666666668 125.185 178.458 125.185 178.122 L 125.185 177.97 C 125.185 177.89133333333334 125.18900000000001 177.83266666666668 125.197 177.794 C 126.34566666666667 177.794 127.33200000000001 177.67466666666667 128.156 177.436 C 128.98 177.198 129.67333333333332 176.88166666666666 130.236 176.487 C 130.79866666666666 176.09233333333333 131.24800000000002 175.64333333333335 131.584 175.14 C 131.91933333333333 174.636 132.177 174.11633333333333 132.357 173.581 C 132.537 173.04566666666665 132.65433333333334 172.51633333333334 132.709 171.993 C 132.76366666666667 171.46966666666665 132.791 170.99699999999999 132.791 170.575 C 132.791 169.44233333333332 132.63266666666667 168.499 132.316 167.745 C 131.99933333333334 166.991 131.56966666666668 166.39133333333334 131.027 165.946 C 130.48366666666666 165.50066666666666 129.849 165.18633333333332 129.123 165.003 C 128.39633333333333 164.819 127.62266666666666 164.727 126.802 164.727 C 126.388 164.727 125.99166666666666 164.74266666666668 125.613 164.774 C 125.23433333333334 164.80533333333332 124.82233333333333 164.84833333333333 124.377 164.903 C 124.36099999999999 165.505 124.33933333333333 166.3096666666667 124.312 167.317 C 124.28466666666667 168.32500000000002 124.25333333333333 169.48333333333335 124.218 170.792 C 124.18333333333334 172.10066666666665 124.14233333333333 173.53433333333334 124.095 175.093 C 124.04833333333333 176.65166666666667 124.00166666666667 178.28033333333335 123.955 179.979 C 123.90766666666667 181.67833333333334 123.85666666666667 183.42466666666667 123.802 185.218 C 123.74733333333333 187.01066666666668 123.69266666666667 188.7976666666667 123.638 190.579 L 120.861 190.931 L 120.65 190.907 C 120.744 188.66500000000002 120.83 186.54000000000002 120.908 184.532 C 120.986 182.524 121.05033333333334 180.56900000000002 121.101 178.667 C 121.15166666666667 176.76433333333333 121.19266666666667 174.88133333333332 121.224 173.018 C 121.25533333333334 171.15533333333332 121.271 169.24733333333333 121.271 167.294 Z" style="fill: rgb(51, 51, 51);"/>
    <path d="M 233.08 175.005 C 233.63466666666667 174.80966666666666 234.168 174.632 234.68 174.472 C 235.192 174.31133333333332 235.66266666666667 174.17266666666666 236.092 174.056 C 236.522 173.93866666666668 236.901 173.84866666666667 237.229 173.786 C 237.55700000000002 173.72333333333333 237.81466666666668 173.692 238.002 173.692 C 238.45533333333333 173.692 238.809 173.827 239.063 174.097 C 239.31699999999998 174.36633333333333 239.444 174.829 239.444 175.485 C 239.444 175.64166666666668 239.4283333333333 175.97566666666665 239.397 176.487 C 239.36566666666667 176.999 239.32066666666665 177.64166666666665 239.262 178.415 C 239.20333333333335 179.18833333333333 239.131 180.071 239.045 181.063 C 238.959 182.05566666666667 238.86133333333333 183.11033333333333 238.752 184.227 L 238.823 184.239 C 239.36966666666666 182.255 239.95166666666665 180.589 240.569 179.241 C 241.18566666666666 177.89366666666666 241.81433333333334 176.80566666666667 242.455 175.977 C 243.09566666666666 175.149 243.74033333333333 174.55733333333333 244.389 174.202 C 245.03766666666667 173.84666666666666 245.66666666666666 173.669 246.276 173.669 C 246.81466666666668 173.669 247.27166666666668 173.80166666666668 247.647 174.067 C 248.02166666666668 174.333 248.32633333333334 174.68066666666667 248.561 175.11 C 248.79500000000002 175.54 248.96666666666667 176.02633333333333 249.076 176.569 C 249.186 177.1123333333333 249.241 177.665 249.241 178.227 C 249.241 178.71966666666668 249.22533333333334 179.24133333333333 249.194 179.792 C 249.16266666666667 180.34266666666667 249.12333333333333 180.88566666666665 249.076 181.421 C 249.02933333333334 181.95633333333333 248.98066666666668 182.464 248.93 182.944 C 248.87933333333334 183.42466666666667 248.83433333333335 183.84466666666665 248.795 184.204 L 248.866 184.216 C 249.41266666666667 182.20000000000002 249.99633333333333 180.51033333333334 250.617 179.147 C 251.23833333333334 177.78366666666668 251.87133333333333 176.68800000000002 252.516 175.86 C 253.16066666666666 175.032 253.80700000000002 174.44033333333334 254.455 174.085 C 255.10366666666667 173.72966666666667 255.73266666666666 173.552 256.342 173.552 C 256.73266666666666 173.552 257.1116666666667 173.634 257.479 173.798 C 257.8463333333333 173.96200000000002 258.1723333333333 174.22566666666668 258.457 174.589 C 258.7423333333333 174.9523333333333 258.971 175.41899999999998 259.143 175.989 C 259.315 176.55966666666666 259.401 177.24733333333333 259.401 178.052 C 259.401 178.278 259.38733333333334 178.58833333333334 259.36 178.983 C 259.3326666666667 179.37766666666667 259.2993333333333 179.81733333333332 259.26 180.302 C 259.22066666666666 180.786 259.1756666666667 181.29966666666667 259.125 181.843 C 259.0743333333333 182.38566666666668 259.0296666666666 182.91866666666667 258.991 183.442 C 258.95166666666665 183.96533333333335 258.91833333333335 184.46333333333334 258.891 184.936 C 258.8636666666667 185.40866666666668 258.85 185.817 258.85 186.161 C 258.85 186.77033333333333 258.87533333333334 187.26633333333334 258.926 187.649 C 258.9766666666667 188.03233333333333 259.0606666666667 188.33533333333332 259.178 188.558 C 259.2953333333333 188.78 259.45166666666665 188.93233333333333 259.647 189.015 C 259.84233333333333 189.097 260.0806666666667 189.138 260.362 189.138 C 260.76800000000003 189.138 261.18966666666665 189.08133333333333 261.627 188.968 C 262.065 188.85466666666667 262.5063333333333 188.69633333333334 262.951 188.493 L 263.174 189.102 C 262.8926666666667 189.32866666666666 262.5373333333333 189.55933333333334 262.108 189.794 C 261.678 190.02800000000002 261.2266666666667 190.24266666666668 260.754 190.438 C 260.28133333333335 190.63333333333333 259.8106666666667 190.79166666666666 259.342 190.913 C 258.87333333333333 191.03433333333334 258.45933333333335 191.095 258.1 191.095 C 257.678 191.095 257.346 190.98166666666665 257.104 190.755 C 256.86199999999997 190.52833333333334 256.68033333333335 190.21966666666665 256.559 189.829 C 256.4376666666667 189.43833333333333 256.35966666666667 188.98133333333334 256.325 188.458 C 256.2896666666667 187.93466666666666 256.272 187.372 256.272 186.77 C 256.272 186.044 256.2973333333333 185.28233333333336 256.348 184.485 C 256.39866666666666 183.68833333333333 256.45533333333333 182.93066666666667 256.518 182.212 C 256.5806666666667 181.4933333333333 256.63733333333334 180.843 256.688 180.261 C 256.7386666666667 179.679 256.764 179.23933333333335 256.764 178.942 C 256.764 178.09066666666666 256.6136666666667 177.452 256.313 177.026 C 256.01233333333334 176.60066666666668 255.60399999999998 176.388 255.088 176.388 C 254.69 176.388 254.26633333333334 176.57733333333334 253.817 176.956 C 253.36766666666668 177.33466666666666 252.91833333333332 177.856 252.469 178.52 C 252.01966666666667 179.184 251.58599999999998 179.96733333333333 251.168 180.87 C 250.75 181.77266666666665 250.373 182.75133333333332 250.037 183.806 C 249.70166666666665 184.86066666666667 249.41866666666667 185.964 249.188 187.116 C 248.95733333333334 188.26866666666666 248.80700000000002 189.423 248.737 190.579 L 246.287 190.884 L 246.1 190.872 C 246.186 189.23133333333334 246.26600000000002 187.77833333333334 246.34 186.513 C 246.414 185.247 246.48033333333333 184.14133333333334 246.539 183.196 C 246.59766666666667 182.25066666666666 246.64466666666667 181.45 246.68 180.794 C 246.71533333333335 180.13733333333334 246.733 179.59433333333334 246.733 179.165 C 246.733 178.28966666666668 246.58266666666668 177.62933333333334 246.282 177.184 C 245.98066666666668 176.73866666666666 245.5956666666667 176.516 245.127 176.516 C 244.713 176.516 244.27766666666668 176.70166666666665 243.821 177.073 C 243.36366666666666 177.44433333333333 242.91233333333332 177.958 242.467 178.614 C 242.02166666666668 179.27066666666667 241.594 180.046 241.184 180.94 C 240.774 181.83466666666666 240.403 182.80166666666668 240.071 183.841 C 239.739 184.87966666666668 239.46166666666667 185.97333333333333 239.239 187.122 C 239.01633333333334 188.27066666666667 238.86966666666666 189.423 238.799 190.579 L 236.35 190.884 L 236.162 190.872 C 236.22466666666668 190.13 236.28333333333333 189.3213333333333 236.338 188.446 C 236.39266666666666 187.5713333333333 236.44366666666667 186.68266666666665 236.491 185.78 C 236.53766666666667 184.878 236.57866666666666 183.98366666666666 236.614 183.097 C 236.64866666666666 182.20966666666666 236.67966666666666 181.38133333333332 236.707 180.612 C 236.73433333333332 179.84266666666667 236.754 179.15333333333334 236.766 178.544 C 236.778 177.93466666666666 236.784 177.454 236.784 177.102 C 236.784 176.782 236.76033333333334 176.5126666666667 236.713 176.294 C 236.66633333333334 176.07533333333333 236.594 175.90133333333333 236.496 175.772 C 236.39866666666666 175.64333333333335 236.27566666666667 175.55166666666668 236.127 175.497 C 235.979 175.44233333333332 235.80333333333334 175.415 235.6 175.415 C 235.31866666666667 175.415 234.98266666666666 175.454 234.592 175.532 C 234.20133333333334 175.61 233.756 175.71566666666666 233.256 175.849 L 233.08 175.005 Z" style="fill: rgb(51, 51, 51);"/>
    <path d="M 217.956 175.907 C 217.956 176.43833333333333 217.93833333333333 177.00666666666666 217.903 177.612 C 217.86766666666665 178.21733333333333 217.82466666666667 178.83266666666668 217.774 179.458 C 217.72333333333333 180.08266666666668 217.66866666666667 180.70566666666667 217.61 181.327 C 217.55133333333333 181.94833333333332 217.49666666666667 182.53633333333332 217.446 183.091 C 217.39533333333333 183.64566666666667 217.35233333333335 184.15533333333335 217.317 184.62 C 217.28233333333333 185.08466666666666 217.265 185.47333333333333 217.265 185.786 C 217.265 186.716 217.44066666666666 187.39566666666667 217.792 187.825 C 218.14333333333332 188.255 218.612 188.47 219.198 188.47 C 219.862 188.47 220.54166666666666 188.11233333333334 221.237 187.397 C 221.93233333333333 186.68233333333333 222.59633333333335 185.63766666666666 223.229 184.263 C 223.86233333333334 182.88766666666666 224.40166666666667 181.34266666666664 224.847 179.628 C 225.29233333333332 177.91333333333333 225.5773333333333 176.06366666666668 225.702 174.079 L 228.186 173.774 L 228.374 173.786 C 228.30333333333334 174.528 228.239 175.315 228.181 176.147 C 228.12233333333333 176.979 228.06933333333333 177.811 228.022 178.643 C 227.97533333333334 179.475 227.94033333333334 180.28966666666665 227.917 181.087 C 227.89366666666666 181.88366666666667 227.882 182.618 227.882 183.29 C 227.882 184.56333333333333 227.95600000000002 185.60433333333333 228.104 186.413 C 228.25266666666667 187.22166666666666 228.44433333333333 187.85833333333335 228.679 188.323 C 228.913 188.78766666666667 229.18033333333332 189.108 229.481 189.284 C 229.78166666666667 189.46 230.08466666666666 189.548 230.39 189.548 C 230.56933333333333 189.548 230.74699999999999 189.52433333333335 230.923 189.477 C 231.09833333333333 189.43033333333335 231.26433333333333 189.374 231.421 189.308 C 231.577 189.24133333333333 231.71933333333334 189.169 231.848 189.091 C 231.97733333333335 189.013 232.08866666666665 188.94266666666667 232.182 188.88 L 232.569 189.419 C 232.34233333333333 189.65300000000002 232.08466666666666 189.87366666666668 231.796 190.081 C 231.50666666666666 190.28766666666667 231.202 190.46733333333333 230.882 190.62 C 230.56133333333335 190.77266666666665 230.22533333333334 190.89166666666665 229.874 190.977 C 229.52266666666668 191.063 229.167 191.106 228.807 191.106 C 228.35433333333333 191.106 227.915 191.01633333333334 227.489 190.837 C 227.063 190.657 226.686 190.356 226.358 189.934 C 226.03 189.51266666666666 225.76633333333334 188.95033333333333 225.567 188.247 C 225.36766666666668 187.54366666666667 225.268 186.66866666666667 225.268 185.622 C 225.268 185.286 225.276 184.946 225.292 184.602 C 225.30733333333333 184.25866666666667 225.33066666666667 183.89566666666667 225.362 183.513 C 225.39333333333332 183.12966666666665 225.43433333333334 182.71733333333333 225.485 182.276 C 225.53566666666669 181.83466666666666 225.59633333333335 181.34833333333333 225.667 180.817 L 225.538 180.794 C 225.0066666666667 182.75466666666668 224.43033333333335 184.399 223.809 185.727 C 223.18833333333333 187.05566666666667 222.55166666666665 188.126 221.899 188.938 C 221.24699999999999 189.75066666666666 220.59266666666667 190.33100000000002 219.936 190.679 C 219.28 191.02633333333333 218.655 191.2 218.061 191.2 C 217.61566666666667 191.2 217.188 191.124 216.778 190.972 C 216.368 190.81933333333333 216.00266666666667 190.56933333333333 215.682 190.222 C 215.362 189.874 215.10633333333334 189.415 214.915 188.845 C 214.72366666666665 188.27433333333335 214.628 187.571 214.628 186.735 C 214.628 186.18833333333333 214.65933333333334 185.55366666666666 214.722 184.831 C 214.784 184.10833333333335 214.85233333333332 183.33866666666668 214.927 182.522 C 215.001 181.706 215.06933333333333 180.86233333333334 215.132 179.991 C 215.194 179.11966666666666 215.225 178.25833333333333 215.225 177.407 C 215.225 177.063 215.21333333333334 176.766 215.19 176.516 C 215.16666666666666 176.266 215.116 176.059 215.038 175.895 C 214.96 175.731 214.84466666666665 175.61 214.692 175.532 C 214.54 175.454 214.331 175.415 214.065 175.415 C 213.79966666666667 175.415 213.454 175.454 213.028 175.532 C 212.60266666666666 175.61 212.15533333333332 175.71566666666666 211.686 175.849 L 211.511 175.005 C 212.15166666666667 174.77833333333334 212.74733333333333 174.581 213.298 174.413 C 213.84866666666667 174.245 214.34066666666666 174.10633333333334 214.774 173.997 C 215.208 173.88766666666666 215.57533333333333 173.80566666666667 215.876 173.751 C 216.17666666666668 173.69633333333334 216.39733333333334 173.669 216.538 173.669 C 216.81933333333333 173.669 217.04966666666667 173.71966666666668 217.229 173.821 C 217.409 173.923 217.55366666666666 174.0713333333333 217.663 174.266 C 217.77233333333334 174.46133333333333 217.84833333333333 174.696 217.891 174.97 C 217.9343333333333 175.24333333333334 217.956 175.55566666666667 217.956 175.907 Z" style="fill: rgb(51, 51, 51);"/>
    <path d="M 207.019 174.091 C 206.88566666666665 174.98166666666665 206.77233333333334 175.874 206.679 176.768 C 206.585 177.66266666666667 206.50866666666667 178.52800000000002 206.45 179.364 C 206.39133333333334 180.2 206.34833333333333 180.99099999999999 206.321 181.737 C 206.29366666666667 182.483 206.28 183.15699999999998 206.28 183.759 C 206.28 184.571 206.292 185.268 206.316 185.85 C 206.33933333333334 186.43266666666665 206.37833333333333 186.923 206.433 187.321 C 206.48766666666666 187.71966666666668 206.55599999999998 188.038 206.638 188.276 C 206.72 188.51466666666667 206.82166666666666 188.69833333333332 206.943 188.827 C 207.06366666666668 188.95566666666667 207.204 189.03966666666668 207.364 189.079 C 207.52466666666666 189.11833333333334 207.70633333333333 189.138 207.909 189.138 C 208.28433333333334 189.138 208.68866666666668 189.08133333333333 209.122 188.968 C 209.556 188.85466666666667 209.99566666666666 188.69633333333334 210.441 188.493 L 210.663 189.102 C 210.3816666666667 189.32866666666666 210.02833333333334 189.55933333333334 209.603 189.794 C 209.177 190.02800000000002 208.72966666666667 190.24266666666668 208.261 190.438 C 207.79233333333332 190.63333333333333 207.33333333333331 190.79166666666666 206.884 190.913 C 206.43466666666666 191.03433333333334 206.046 191.095 205.718 191.095 C 205.4993333333333 191.095 205.29999999999998 191.07733333333334 205.12 191.042 C 204.94066666666666 191.00666666666666 204.77866666666665 190.91866666666667 204.634 190.778 C 204.48933333333332 190.63733333333334 204.36033333333333 190.43033333333335 204.247 190.157 C 204.13366666666667 189.88366666666667 204.04 189.5126666666667 203.966 189.044 C 203.892 188.57533333333333 203.83533333333332 187.98933333333335 203.796 187.286 C 203.75666666666666 186.58266666666665 203.737 185.731 203.737 184.731 C 203.737 184.145 203.743 183.483 203.755 182.745 C 203.767 182.007 203.78466666666665 181.214 203.808 180.366 C 203.83133333333333 179.51866666666666 203.86266666666666 178.62433333333334 203.902 177.683 C 203.94066666666666 176.741 203.99133333333333 175.77 204.054 174.77 C 204.06933333333333 174.55133333333333 204.128 174.37366666666668 204.23 174.237 C 204.33133333333333 174.10033333333334 204.45633333333333 173.995 204.605 173.921 C 204.753 173.84633333333332 204.911 173.79533333333333 205.079 173.768 C 205.24699999999999 173.74066666666667 205.40133333333333 173.727 205.542 173.727 C 206.06533333333334 173.727 206.55766666666668 173.84833333333333 207.019 174.091 Z" style="fill: rgb(51, 51, 51);"/>
    <path d="M 205.999 168.794 C 205.72566666666665 168.794 205.48366666666666 168.73733333333334 205.273 168.624 C 205.06166666666667 168.51066666666668 204.882 168.36233333333334 204.734 168.179 C 204.58533333333332 167.995 204.472 167.784 204.394 167.546 C 204.316 167.30733333333333 204.277 167.063 204.277 166.813 C 204.277 166.46166666666667 204.33533333333332 166.15133333333333 204.452 165.882 C 204.56933333333333 165.612 204.72166666666666 165.38533333333334 204.909 165.202 C 205.097 165.01866666666666 205.304 164.882 205.53 164.792 C 205.75666666666666 164.702 205.97933333333333 164.657 206.198 164.657 C 206.464 164.657 206.70233333333334 164.70600000000002 206.913 164.804 C 207.12433333333334 164.90133333333333 207.30599999999998 165.036 207.458 165.208 C 207.61066666666667 165.38 207.728 165.57733333333334 207.81 165.8 C 207.892 166.02266666666665 207.933 166.26266666666666 207.933 166.52 C 207.933 166.794 207.886 167.0656666666667 207.792 167.335 C 207.69866666666667 167.60433333333333 207.56799999999998 167.84833333333333 207.4 168.067 C 207.232 168.28566666666669 207.02866666666665 168.46166666666667 206.79 168.595 C 206.552 168.72766666666666 206.28833333333333 168.794 205.999 168.794 Z" style="fill: rgb(51, 51, 51);"/>
    <path d="M 169.698 175.005 C 170.25266666666667 174.80966666666666 170.78566666666666 174.632 171.297 174.472 C 171.809 174.31133333333332 172.27966666666666 174.17266666666666 172.709 174.056 C 173.139 173.93866666666668 173.518 173.84866666666667 173.846 173.786 C 174.174 173.72333333333333 174.432 173.692 174.62 173.692 C 175.07266666666666 173.692 175.42600000000002 173.827 175.68 174.097 C 175.934 174.36633333333333 176.061 174.829 176.061 175.485 C 176.061 175.64166666666668 176.04533333333333 175.97566666666665 176.014 176.487 C 175.9826666666667 176.999 175.93766666666667 177.64166666666665 175.879 178.415 C 175.821 179.18833333333333 175.749 180.071 175.663 181.063 C 175.577 182.05566666666667 175.47933333333333 183.11033333333333 175.37 184.227 L 175.44 184.239 C 175.98666666666665 182.255 176.56866666666667 180.589 177.186 179.241 C 177.80333333333334 177.89366666666666 178.43233333333333 176.80566666666667 179.073 175.977 C 179.71366666666665 175.149 180.358 174.55733333333333 181.006 174.202 C 181.65466666666669 173.84666666666666 182.28366666666668 173.669 182.893 173.669 C 183.43233333333333 173.669 183.88933333333333 173.80166666666668 184.264 174.067 C 184.63933333333333 174.333 184.944 174.68066666666667 185.178 175.11 C 185.41266666666667 175.54 185.58466666666666 176.02633333333333 185.694 176.569 C 185.80333333333334 177.1123333333333 185.858 177.665 185.858 178.227 C 185.858 178.71966666666668 185.84233333333333 179.24133333333333 185.811 179.792 C 185.77966666666669 180.34266666666667 185.74066666666667 180.88566666666665 185.694 181.421 C 185.64733333333334 181.95633333333333 185.59833333333333 182.464 185.547 182.944 C 185.49633333333333 183.42466666666667 185.45166666666668 183.84466666666665 185.413 184.204 L 185.483 184.216 C 186.02966666666666 182.20000000000002 186.61366666666666 180.51033333333334 187.235 179.147 C 187.85633333333334 177.78366666666668 188.489 176.68800000000002 189.133 175.86 C 189.77766666666668 175.032 190.42433333333332 174.44033333333334 191.073 174.085 C 191.721 173.72966666666667 192.34966666666665 173.552 192.959 173.552 C 193.34966666666665 173.552 193.72866666666667 173.634 194.096 173.798 C 194.46333333333334 173.96200000000002 194.78966666666665 174.22566666666668 195.075 174.589 C 195.35966666666667 174.9523333333333 195.588 175.41899999999998 195.76 175.989 C 195.932 176.55966666666666 196.018 177.24733333333333 196.018 178.052 C 196.018 178.278 196.00433333333334 178.58833333333334 195.977 178.983 C 195.94966666666667 179.37766666666667 195.91633333333334 179.81733333333332 195.877 180.302 C 195.83833333333334 180.786 195.79366666666667 181.29966666666667 195.743 181.843 C 195.69233333333332 182.38566666666668 195.64733333333334 182.91866666666667 195.608 183.442 C 195.56866666666667 183.96533333333335 195.53533333333334 184.46333333333334 195.508 184.936 C 195.48066666666668 185.40866666666668 195.467 185.817 195.467 186.161 C 195.467 186.77033333333333 195.49233333333333 187.26633333333334 195.543 187.649 C 195.59433333333334 188.03233333333333 195.67833333333334 188.33533333333332 195.795 188.558 C 195.91233333333332 188.78 196.06866666666667 188.93233333333333 196.264 189.015 C 196.45933333333332 189.097 196.69766666666666 189.138 196.979 189.138 C 197.385 189.138 197.807 189.08133333333333 198.245 188.968 C 198.68233333333333 188.85466666666667 199.12366666666668 188.69633333333334 199.569 188.493 L 199.792 189.102 C 199.51066666666668 189.32866666666666 199.155 189.55933333333334 198.725 189.794 C 198.29566666666665 190.02800000000002 197.84466666666665 190.24266666666668 197.372 190.438 C 196.89933333333335 190.63333333333333 196.42833333333334 190.79166666666666 195.959 190.913 C 195.49033333333333 191.03433333333334 195.07633333333334 191.095 194.717 191.095 C 194.29500000000002 191.095 193.963 190.98166666666665 193.721 190.755 C 193.479 190.52833333333334 193.29733333333334 190.21966666666665 193.176 189.829 C 193.05533333333332 189.43833333333333 192.97733333333335 188.98133333333334 192.942 188.458 C 192.90666666666667 187.93466666666666 192.889 187.372 192.889 186.77 C 192.889 186.044 192.91433333333333 185.28233333333336 192.965 184.485 C 193.01633333333334 183.68833333333333 193.073 182.93066666666667 193.135 182.212 C 193.19766666666666 181.4933333333333 193.25433333333334 180.843 193.305 180.261 C 193.35566666666668 179.679 193.381 179.23933333333335 193.381 178.942 C 193.381 178.09066666666666 193.23066666666668 177.452 192.93 177.026 C 192.62933333333334 176.60066666666668 192.22133333333335 176.388 191.706 176.388 C 191.30733333333333 176.388 190.88333333333333 176.57733333333334 190.434 176.956 C 189.98466666666667 177.33466666666666 189.53533333333334 177.856 189.086 178.52 C 188.63733333333334 179.184 188.204 179.96733333333333 187.786 180.87 C 187.368 181.77266666666665 186.99099999999999 182.75133333333332 186.655 183.806 C 186.31900000000002 184.86066666666667 186.03566666666669 185.964 185.805 187.116 C 185.57433333333333 188.26866666666666 185.424 189.423 185.354 190.579 L 182.905 190.884 L 182.717 190.872 C 182.803 189.23133333333334 182.88333333333333 187.77833333333334 182.958 186.513 C 183.03199999999998 185.247 183.09833333333333 184.14133333333334 183.157 183.196 C 183.21566666666666 182.25066666666666 183.26233333333334 181.45 183.297 180.794 C 183.33233333333334 180.13733333333334 183.35 179.59433333333334 183.35 179.165 C 183.35 178.28966666666668 183.19966666666667 177.62933333333334 182.899 177.184 C 182.59833333333333 176.73866666666666 182.21366666666668 176.516 181.745 176.516 C 181.331 176.516 180.89533333333333 176.70166666666665 180.438 177.073 C 179.98066666666668 177.44433333333333 179.52933333333334 177.958 179.084 178.614 C 178.63933333333333 179.27066666666667 178.21166666666667 180.046 177.801 180.94 C 177.391 181.83466666666666 177.02 182.80166666666668 176.688 183.841 C 176.356 184.87966666666668 176.07866666666666 185.97333333333333 175.856 187.122 C 175.63333333333333 188.27066666666667 175.487 189.423 175.417 190.579 L 172.967 190.884 L 172.78 190.872 C 172.84266666666667 190.13 172.90133333333333 189.3213333333333 172.956 188.446 C 173.01066666666668 187.5713333333333 173.06133333333335 186.68266666666665 173.108 185.78 C 173.15466666666666 184.878 173.19566666666665 183.98366666666666 173.231 183.097 C 173.26633333333334 182.20966666666666 173.29766666666666 181.38133333333332 173.325 180.612 C 173.35233333333335 179.84266666666667 173.37166666666667 179.15333333333334 173.383 178.544 C 173.395 177.93466666666666 173.401 177.454 173.401 177.102 C 173.401 176.782 173.37766666666667 176.5126666666667 173.331 176.294 C 173.28366666666665 176.07533333333333 173.21133333333333 175.90133333333333 173.114 175.772 C 173.01600000000002 175.64333333333335 172.893 175.55166666666668 172.745 175.497 C 172.59633333333332 175.44233333333332 172.42033333333333 175.415 172.217 175.415 C 171.93566666666666 175.415 171.59966666666665 175.454 171.209 175.532 C 170.819 175.61 170.374 175.71566666666666 169.874 175.849 L 169.698 175.005 Z" style="fill: rgb(51, 51, 51);"/>
    <path d="M 164.588 177.536 C 164.588 177.17666666666668 164.52733333333333 176.84066666666666 164.406 176.528 C 164.28533333333334 176.21533333333332 164.11733333333333 175.944 163.902 175.714 C 163.68733333333333 175.48333333333332 163.43166666666667 175.30166666666668 163.135 175.169 C 162.83833333333334 175.03633333333335 162.518 174.97 162.174 174.97 C 161.666 174.97 161.205 175.05966666666666 160.791 175.239 C 160.37699999999998 175.41899999999998 160.006 175.66333333333333 159.678 175.972 C 159.35 176.28 159.061 176.63933333333333 158.811 177.05 C 158.561 177.46 158.348 177.89533333333333 158.172 178.356 C 157.99599999999998 178.81733333333332 157.85333333333332 179.29 157.744 179.774 C 157.63466666666667 180.25866666666667 157.55666666666667 180.73133333333334 157.51 181.192 C 158.61933333333334 181.114 159.61333333333334 180.97933333333333 160.492 180.788 C 161.37133333333333 180.59666666666666 162.11366666666666 180.35066666666668 162.719 180.05 C 163.32433333333333 179.74933333333334 163.78733333333335 179.39 164.108 178.972 C 164.428 178.554 164.588 178.07533333333333 164.588 177.536 Z" style="fill: rgb(51, 51, 51);"/>
    <path d="M 166.791 186.946 C 166.83766666666665 186.96933333333334 166.89833333333334 187.00266666666667 166.973 187.046 C 167.047 187.08866666666668 167.11533333333333 187.13533333333334 167.178 187.186 C 167.24066666666667 187.23733333333334 167.29533333333333 187.292 167.342 187.35 C 167.38866666666667 187.40866666666665 167.412 187.46533333333332 167.412 187.52 C 167.412 187.55133333333333 167.40033333333335 187.58266666666668 167.377 187.614 C 166.93966666666668 188.22333333333333 166.469 188.75266666666667 165.965 189.202 C 165.461 189.65133333333333 164.93766666666667 190.02633333333333 164.395 190.327 C 163.8516666666667 190.62766666666667 163.29866666666666 190.85033333333334 162.736 190.995 C 162.174 191.13966666666667 161.61933333333334 191.212 161.072 191.212 C 160.13466666666667 191.212 159.27533333333332 191.02066666666667 158.494 190.638 C 157.71266666666668 190.25466666666665 157.041 189.731 156.479 189.067 C 155.91633333333334 188.403 155.47666666666666 187.62366666666668 155.16 186.729 C 154.844 185.835 154.686 184.876 154.686 183.852 C 154.686 183.01666666666665 154.77766666666668 182.18099999999998 154.961 181.345 C 155.14433333333332 180.50900000000001 155.41 179.71200000000002 155.758 178.954 C 156.10533333333333 178.196 156.529 177.491 157.029 176.839 C 157.529 176.18633333333335 158.09733333333332 175.62 158.734 175.14 C 159.37133333333333 174.65933333333334 160.07066666666665 174.28233333333333 160.832 174.009 C 161.594 173.73566666666665 162.41233333333332 173.599 163.287 173.599 C 163.865 173.599 164.416 173.677 164.94 173.833 C 165.46333333333334 173.989 165.922 174.21366666666668 166.316 174.507 C 166.71066666666667 174.79966666666667 167.02533333333332 175.161 167.26 175.591 C 167.494 176.02033333333335 167.611 176.50866666666667 167.611 177.056 C 167.611 177.85266666666666 167.35133333333332 178.54766666666666 166.832 179.141 C 166.31266666666667 179.735 165.596 180.239 164.682 180.653 C 163.768 181.067 162.69166666666666 181.401 161.453 181.655 C 160.215 181.909 158.87733333333333 182.09866666666667 157.44 182.224 L 157.44 182.423 C 157.44 183.423 157.56666666666666 184.337 157.82 185.165 C 158.07399999999998 185.993 158.42366666666666 186.702 158.869 187.292 C 159.31433333333334 187.882 159.838 188.341 160.44 188.669 C 161.04133333333334 188.997 161.68966666666668 189.161 162.385 189.161 C 163.08833333333334 189.161 163.809 188.98733333333334 164.547 188.64 C 165.285 188.292 166.033 187.72733333333332 166.791 186.946 Z" style="fill: rgb(51, 51, 51);"/>
    <path d="M 141.489 190.884 L 141.301 190.872 C 141.36366666666666 190.13 141.42233333333334 189.3213333333333 141.477 188.446 C 141.53166666666667 187.5713333333333 141.58233333333334 186.68266666666665 141.629 185.78 C 141.67566666666667 184.878 141.71666666666667 183.98366666666666 141.752 183.097 C 141.78733333333335 182.20966666666666 141.81866666666667 181.38133333333332 141.846 180.612 C 141.87333333333333 179.84266666666667 141.893 179.15333333333334 141.905 178.544 C 141.91633333333334 177.93466666666666 141.922 177.454 141.922 177.102 C 141.922 176.81333333333333 141.91033333333334 176.56333333333333 141.887 176.352 C 141.86366666666666 176.14133333333334 141.811 175.96566666666666 141.729 175.825 C 141.647 175.68433333333334 141.52766666666668 175.581 141.371 175.515 C 141.215 175.44833333333332 141.00433333333334 175.415 140.739 175.415 C 140.60566666666665 175.415 140.46866666666665 175.42266666666666 140.328 175.438 C 140.18733333333333 175.45399999999998 140.03133333333332 175.47766666666666 139.86 175.509 C 139.68800000000002 175.54033333333334 139.49466666666666 175.58133333333333 139.28 175.632 C 139.06466666666665 175.68266666666668 138.81633333333332 175.743 138.535 175.813 L 138.36 174.97 C 139.65666666666667 174.50066666666666 140.70733333333334 174.17033333333333 141.512 173.979 C 142.31666666666666 173.78766666666667 142.85966666666667 173.692 143.141 173.692 C 143.65633333333332 173.692 144.02533333333332 173.84233333333333 144.248 174.143 C 144.47066666666666 174.44433333333333 144.582 174.89166666666668 144.582 175.485 C 144.582 175.53966666666668 144.57433333333333 175.70000000000002 144.559 175.966 C 144.543 176.23133333333334 144.52133333333333 176.577 144.494 177.003 C 144.46666666666667 177.4283333333333 144.43366666666668 177.92233333333334 144.395 178.485 C 144.35566666666668 179.0476666666667 144.31066666666666 179.65133333333333 144.26 180.296 C 144.20933333333332 180.94066666666666 144.15266666666668 181.61233333333334 144.09 182.311 C 144.02733333333333 183.01033333333334 143.961 183.70766666666668 143.891 184.403 L 144.008 184.415 C 144.38333333333333 182.88366666666667 144.80733333333333 181.456 145.28 180.132 C 145.75266666666667 178.80733333333333 146.28366666666668 177.657 146.873 176.681 C 147.463 175.70433333333335 148.11166666666668 174.93666666666667 148.819 174.378 C 149.52566666666667 173.81933333333333 150.301 173.54 151.145 173.54 C 151.44166666666666 173.54 151.719 173.587 151.977 173.681 C 152.235 173.77433333333335 152.45766666666668 173.905 152.645 174.073 C 152.83233333333334 174.24099999999999 152.98066666666665 174.4403333333333 153.09 174.671 C 153.19933333333333 174.90099999999998 153.254 175.153 153.254 175.427 C 153.254 175.77833333333334 153.178 176.116 153.026 176.44 C 152.87333333333333 176.76466666666667 152.633 177.052 152.305 177.302 L 152.211 177.302 C 151.883 177.028 151.57266666666666 176.83066666666667 151.28 176.71 C 150.98666666666668 176.58866666666665 150.67600000000002 176.528 150.348 176.528 C 149.99666666666667 176.528 149.65666666666667 176.59433333333334 149.328 176.727 C 149 176.86033333333333 148.69933333333333 177.052 148.426 177.302 C 147.98066666666668 177.708 147.56666666666666 178.245 147.184 178.913 C 146.80133333333333 179.581 146.45166666666668 180.3213333333333 146.135 181.134 C 145.81833333333333 181.946 145.53333333333333 182.79933333333332 145.28 183.694 C 145.026 184.58866666666665 144.807 185.46 144.623 186.308 C 144.43966666666668 187.15533333333335 144.29133333333334 187.952 144.178 188.698 C 144.06466666666668 189.44400000000002 143.98466666666667 190.071 143.938 190.579 L 141.489 190.884 Z" style="fill: rgb(51, 51, 51);"/>
    <path d="M 272.5 165.641 C 272.8593333333333 166.28166666666667 273.26733333333334 166.99466666666666 273.724 167.78 C 274.1813333333333 168.56533333333334 274.66766666666666 169.39366666666666 275.183 170.265 C 275.699 171.13566666666665 276.23633333333333 172.036 276.795 172.966 C 277.35366666666664 173.89533333333335 277.92 174.82866666666666 278.494 175.766 C 279.06800000000004 176.704 279.63633333333337 177.63 280.199 178.544 C 280.76166666666666 179.458 281.3066666666667 180.335 281.834 181.175 C 282.36133333333333 182.01433333333333 282.86133333333333 182.80133333333333 283.334 183.536 C 283.8066666666667 184.27066666666667 284.2343333333333 184.927 284.617 185.505 C 284.617 183.411 284.62100000000004 181.50466666666668 284.629 179.786 C 284.6363333333333 178.06733333333332 284.652 176.51666666666665 284.676 175.134 C 284.69933333333336 173.75066666666666 284.7266666666667 172.522 284.758 171.448 C 284.78866666666664 170.374 284.82966666666664 169.43266666666665 284.881 168.624 C 284.9316666666667 167.81533333333334 284.99 167.12766666666667 285.056 166.561 C 285.12266666666665 165.995 285.199 165.52833333333334 285.285 165.161 C 285.355 164.84833333333333 285.45466666666664 164.58866666666668 285.584 164.382 C 285.7126666666667 164.17466666666667 285.861 164.00866666666667 286.029 163.884 C 286.197 163.75866666666667 286.3806666666667 163.67066666666668 286.58 163.62 C 286.77933333333334 163.56933333333333 286.98833333333334 163.544 287.207 163.544 C 287.73033333333336 163.544 288.27333333333337 163.65733333333333 288.836 163.884 L 288.836 164.001 C 288.4526666666667 164.53966666666668 288.12233333333336 165.24266666666668 287.845 166.11 C 287.56766666666664 166.97733333333335 287.3313333333333 167.94033333333334 287.136 168.999 C 286.9413333333333 170.05766666666665 286.7833333333333 171.173 286.662 172.345 C 286.54066666666665 173.51633333333334 286.445 174.67833333333334 286.375 175.831 C 286.3043333333333 176.983 286.25166666666667 178.09033333333332 286.217 179.153 C 286.1816666666667 180.21566666666666 286.15233333333333 181.16500000000002 286.129 182.001 C 286.113 182.735 286.0973333333333 183.45166666666668 286.082 184.151 C 286.066 184.85033333333334 286.0523333333333 185.54966666666667 286.041 186.249 C 286.029 186.94833333333332 286.019 187.65533333333335 286.011 188.37 C 286.0036666666667 189.08466666666666 286 189.821 286 190.579 L 284.57 190.766 L 284.359 190.743 C 284.125 190.415 283.8263333333333 189.97566666666668 283.463 189.425 C 283.0996666666667 188.87433333333334 282.6913333333333 188.24333333333334 282.238 187.532 C 281.7846666666667 186.82133333333334 281.2943333333333 186.044 280.767 185.2 C 280.23966666666666 184.356 279.693 183.477 279.127 182.563 C 278.56033333333335 181.649 277.984 180.71566666666666 277.398 179.763 C 276.812 178.80966666666666 276.232 177.86433333333332 275.658 176.927 C 275.084 175.989 274.5253333333334 175.07466666666667 273.982 174.184 C 273.43933333333337 173.29399999999998 272.92966666666666 172.45633333333333 272.453 171.671 C 271.97633333333334 170.88566666666665 271.54266666666666 170.16866666666667 271.152 169.52 C 270.7613333333333 168.872 270.4293333333333 168.32133333333334 270.156 167.868 C 270.1406666666667 169.59466666666665 270.1153333333333 171.27633333333333 270.08 172.913 C 270.04466666666667 174.54966666666667 269.99966666666666 176.12199999999999 269.945 177.63 C 269.89033333333333 179.13733333333332 269.82966666666664 180.569 269.763 181.925 C 269.697 183.28033333333335 269.625 184.54 269.547 185.704 C 269.4923333333333 186.524 269.43566666666663 187.22333333333333 269.377 187.802 C 269.3183333333333 188.38 269.248 188.86233333333334 269.166 189.249 C 269.084 189.63566666666668 268.9823333333333 189.94233333333335 268.861 190.169 C 268.73966666666666 190.39566666666667 268.58933333333334 190.56566666666666 268.41 190.679 C 268.23 190.79233333333332 268.015 190.86433333333332 267.765 190.895 C 267.515 190.92633333333333 267.2183333333333 190.942 266.875 190.942 L 266.558 190.942 C 266.496 190.942 266.418 190.94 266.324 190.936 C 266.23 190.93266666666668 266.109 190.92700000000002 265.961 190.919 L 265.797 190.802 C 266.133 190.04399999999998 266.4316666666667 189.1963333333333 266.693 188.259 C 266.955 187.321 267.1836666666667 186.32666666666668 267.379 185.276 C 267.57433333333336 184.22533333333334 267.744 183.13933333333333 267.888 182.018 C 268.03266666666667 180.89733333333334 268.152 179.77433333333332 268.246 178.649 C 268.33933333333334 177.52433333333332 268.41533333333336 176.417 268.474 175.327 C 268.53266666666667 174.237 268.5776666666667 173.20000000000002 268.609 172.216 C 268.64033333333333 171.23133333333334 268.66 170.31733333333332 268.668 169.474 C 268.6753333333333 168.63 268.679 167.89533333333333 268.679 167.27 C 268.679 166.934 268.65366666666665 166.647 268.603 166.409 C 268.5523333333333 166.171 268.45866666666666 165.97566666666665 268.322 165.823 C 268.18533333333335 165.671 267.99966666666666 165.55966666666666 267.765 165.489 C 267.531 165.41899999999998 267.22633333333334 165.384 266.851 165.384 C 266.58566666666667 165.384 266.287 165.39966666666666 265.955 165.431 C 265.623 165.46166666666667 265.246 165.50833333333333 264.824 165.571 L 264.695 164.54 C 265.351 164.39133333333334 265.94466666666665 164.25833333333333 266.476 164.141 C 267.00733333333335 164.02433333333335 267.488 163.927 267.918 163.849 C 268.3473333333333 163.77033333333333 268.736 163.70966666666666 269.084 163.667 C 269.4313333333333 163.62366666666668 269.7456666666667 163.602 270.027 163.602 C 270.3163333333333 163.602 270.5683333333333 163.63733333333334 270.783 163.708 C 270.9976666666667 163.778 271.197 163.89133333333334 271.381 164.048 C 271.5643333333333 164.204 271.744 164.413 271.92 164.675 C 272.0953333333333 164.93633333333335 272.28866666666664 165.25833333333333 272.5 165.641 Z" style="fill: rgb(0, 82, 156);"/>
    <path d="M 399.648 186.349 C 399.7026666666667 186.94233333333332 399.8606666666667 187.454 400.122 187.884 C 400.384 188.31333333333333 400.7063333333333 188.66466666666665 401.089 188.938 C 401.4716666666667 189.212 401.89566666666667 189.41533333333334 402.361 189.548 C 402.8256666666667 189.68066666666667 403.28833333333336 189.747 403.749 189.747 C 404.17900000000003 189.747 404.593 189.68833333333333 404.991 189.571 C 405.38966666666664 189.45366666666666 405.74133333333333 189.28566666666669 406.046 189.067 C 406.35066666666665 188.84833333333333 406.59499999999997 188.579 406.779 188.259 C 406.96233333333333 187.93833333333333 407.054 187.579 407.054 187.181 C 407.054 186.76633333333334 406.9563333333333 186.403 406.761 186.091 C 406.5656666666667 185.77833333333334 406.30400000000003 185.49300000000002 405.976 185.235 C 405.64799999999997 184.97766666666666 405.267 184.73933333333332 404.833 184.52 C 404.3996666666667 184.30133333333333 403.94866666666667 184.07866666666666 403.48 183.852 C 403.066 183.65666666666667 402.65 183.45966666666666 402.232 183.261 C 401.814 183.06166666666667 401.4096666666667 182.84466666666665 401.019 182.61 C 400.62833333333333 182.376 400.263 182.12233333333333 399.923 181.849 C 399.583 181.575 399.286 181.272 399.032 180.94 C 398.77866666666665 180.608 398.57966666666664 180.237 398.435 179.827 C 398.29033333333336 179.417 398.218 178.962 398.218 178.462 C 398.218 177.92266666666666 398.31166666666667 177.42666666666665 398.499 176.974 C 398.6863333333333 176.52066666666667 398.9423333333333 176.11233333333334 399.267 175.749 C 399.591 175.38566666666668 399.966 175.06733333333335 400.392 174.794 C 400.8173333333333 174.52066666666667 401.27233333333334 174.292 401.757 174.108 C 402.2416666666667 173.92466666666667 402.73966666666666 173.788 403.251 173.698 C 403.763 173.608 404.261 173.563 404.745 173.563 C 405.37033333333335 173.563 405.96233333333333 173.63133333333332 406.521 173.768 C 407.07966666666664 173.90533333333332 407.568 174.10466666666667 407.986 174.366 C 408.404 174.628 408.736 174.9463333333333 408.982 175.321 C 409.228 175.6963333333333 409.351 176.1183333333333 409.351 176.587 C 409.351 176.76633333333334 409.31966666666665 176.96166666666667 409.257 177.173 C 409.19433333333336 177.38366666666667 409.089 177.581 408.941 177.765 C 408.7923333333333 177.94833333333332 408.59700000000004 178.10233333333332 408.355 178.227 C 408.1123333333333 178.35233333333332 407.81533333333334 178.41899999999998 407.464 178.427 C 407.13599999999997 178.427 406.7923333333333 178.376 406.433 178.274 L 406.398 178.157 C 406.50733333333335 177.907 406.5853333333333 177.67666666666668 406.632 177.466 C 406.6786666666667 177.25466666666668 406.702 177.05933333333334 406.702 176.88 C 406.69466666666665 176.52066666666667 406.603 176.21800000000002 406.427 175.972 C 406.25100000000003 175.72533333333334 406.0303333333333 175.524 405.765 175.368 C 405.49899999999997 175.212 405.204 175.09866666666665 404.88 175.028 C 404.556 174.958 404.23766666666666 174.923 403.925 174.923 C 403.37033333333335 174.923 402.87433333333337 174.997 402.437 175.145 C 401.99899999999997 175.29366666666667 401.62966666666665 175.49099999999999 401.329 175.737 C 401.0283333333333 175.983 400.798 176.26233333333332 400.638 176.575 C 400.478 176.88766666666666 400.398 177.21200000000002 400.398 177.548 C 400.398 177.97733333333335 400.51133333333337 178.362 400.738 178.702 C 400.964 179.042 401.26466666666664 179.35466666666665 401.64 179.64 C 402.01466666666664 179.92466666666667 402.4463333333333 180.192 402.935 180.442 C 403.423 180.692 403.93266666666665 180.942 404.464 181.192 C 405.058 181.47333333333333 405.648 181.76433333333333 406.234 182.065 C 406.82 182.36566666666667 407.3433333333333 182.70766666666665 407.804 183.091 C 408.26466666666664 183.47366666666667 408.6376666666667 183.91299999999998 408.923 184.409 C 409.2083333333333 184.905 409.351 185.489 409.351 186.161 C 409.351 186.96566666666666 409.17333333333335 187.68066666666667 408.818 188.306 C 408.462 188.93066666666667 407.9873333333333 189.458 407.394 189.888 C 406.8 190.31733333333335 406.11833333333334 190.64333333333335 405.349 190.866 C 404.57966666666664 191.08866666666665 403.78066666666666 191.2 402.952 191.2 C 402.538 191.2 402.11033333333336 191.16866666666667 401.669 191.106 C 401.22766666666666 191.044 400.8 190.95033333333333 400.386 190.825 C 399.972 190.70033333333333 399.57933333333335 190.546 399.208 190.362 C 398.83733333333333 190.17866666666666 398.5133333333333 189.96766666666667 398.236 189.729 C 397.95866666666666 189.491 397.73966666666666 189.22566666666668 397.579 188.933 C 397.419 188.63966666666667 397.339 188.31733333333332 397.339 187.966 C 397.339 187.66133333333332 397.4033333333333 187.40333333333334 397.532 187.192 C 397.66133333333335 186.98133333333334 397.8313333333333 186.80966666666666 398.042 186.677 C 398.25333333333333 186.54366666666667 398.48966666666666 186.444 398.751 186.378 C 399.013 186.31133333333332 399.28066666666666 186.274 399.554 186.266 L 399.648 186.349 Z" style="fill: rgb(0, 82, 156);"/>
    <path d="M 384.043 190.884 L 383.855 190.872 C 383.91766666666666 190.13 383.97633333333334 189.3213333333333 384.031 188.446 C 384.08566666666667 187.5713333333333 384.1363333333333 186.68266666666665 384.183 185.78 C 384.23033333333336 184.878 384.27133333333336 183.98366666666666 384.306 183.097 C 384.3413333333333 182.20966666666666 384.37266666666665 181.38133333333332 384.4 180.612 C 384.4273333333333 179.84266666666667 384.447 179.15333333333334 384.459 178.544 C 384.4703333333333 177.93466666666666 384.476 177.454 384.476 177.102 C 384.476 176.81333333333333 384.46433333333334 176.56333333333333 384.441 176.352 C 384.41766666666666 176.14133333333334 384.365 175.96566666666666 384.283 175.825 C 384.201 175.68433333333334 384.0816666666667 175.581 383.925 175.515 C 383.769 175.44833333333332 383.55833333333334 175.415 383.293 175.415 C 383.1596666666667 175.415 383.023 175.42266666666666 382.883 175.438 C 382.74233333333336 175.45399999999998 382.586 175.47766666666666 382.414 175.509 C 382.242 175.54033333333334 382.0486666666667 175.58133333333333 381.834 175.632 C 381.6186666666667 175.68266666666668 381.3706666666667 175.743 381.09 175.813 L 380.914 174.97 C 382.21066666666667 174.50066666666666 383.2613333333333 174.17033333333333 384.066 173.979 C 384.8706666666667 173.78766666666667 385.4136666666667 173.692 385.695 173.692 C 386.2103333333333 173.692 386.57933333333335 173.84233333333333 386.802 174.143 C 387.0246666666667 174.44433333333333 387.136 174.89166666666668 387.136 175.485 C 387.136 175.53966666666668 387.12833333333333 175.70000000000002 387.113 175.966 C 387.09766666666667 176.23133333333334 387.0763333333333 176.577 387.049 177.003 C 387.02166666666665 177.4283333333333 386.98833333333334 177.92233333333334 386.949 178.485 C 386.9096666666667 179.0476666666667 386.86466666666666 179.65133333333333 386.814 180.296 C 386.7633333333333 180.94066666666666 386.70666666666665 181.61233333333334 386.644 182.311 C 386.58133333333336 183.01033333333334 386.515 183.70766666666668 386.445 184.403 L 386.562 184.415 C 386.93733333333336 182.88366666666667 387.36133333333333 181.456 387.834 180.132 C 388.3066666666667 178.80733333333333 388.8376666666667 177.657 389.427 176.681 C 390.017 175.70433333333335 390.66566666666665 174.93666666666667 391.373 174.378 C 392.07966666666664 173.81933333333333 392.855 173.54 393.699 173.54 C 393.9956666666667 173.54 394.273 173.587 394.531 173.681 C 394.789 173.77433333333335 395.01166666666666 173.905 395.199 174.073 C 395.38633333333337 174.24099999999999 395.5346666666667 174.4403333333333 395.644 174.671 C 395.75333333333333 174.90099999999998 395.808 175.153 395.808 175.427 C 395.808 175.77833333333334 395.73199999999997 176.116 395.58 176.44 C 395.4273333333333 176.76466666666667 395.187 177.052 394.859 177.302 L 394.765 177.302 C 394.437 177.028 394.12666666666667 176.83066666666667 393.834 176.71 C 393.54066666666665 176.58866666666665 393.23 176.528 392.902 176.528 C 392.55066666666664 176.528 392.211 176.59433333333334 391.883 176.727 C 391.5543333333333 176.86033333333333 391.25333333333333 177.052 390.98 177.302 C 390.5346666666667 177.708 390.1206666666667 178.245 389.738 178.913 C 389.3553333333333 179.581 389.0056666666667 180.3213333333333 388.689 181.134 C 388.373 181.946 388.08799999999997 182.79933333333332 387.834 183.694 C 387.58 184.58866666666665 387.361 185.46 387.177 186.308 C 386.9936666666667 187.15533333333335 386.8453333333333 187.952 386.732 188.698 C 386.6186666666667 189.44400000000002 386.5386666666667 190.071 386.492 190.579 L 384.043 190.884 Z" style="fill: rgb(0, 82, 156);"/>
    <path d="M 375.663 177.536 C 375.663 177.17666666666668 375.60266666666666 176.84066666666666 375.482 176.528 C 375.3606666666667 176.21533333333332 375.1926666666667 175.944 374.978 175.714 C 374.7633333333333 175.48333333333332 374.50733333333335 175.30166666666668 374.21 175.169 C 373.9133333333333 175.03633333333335 373.593 174.97 373.249 174.97 C 372.7416666666667 174.97 372.28066666666666 175.05966666666666 371.866 175.239 C 371.452 175.41899999999998 371.081 175.66333333333333 370.753 175.972 C 370.425 176.28 370.136 176.63933333333333 369.886 177.05 C 369.636 177.46 369.423 177.89533333333333 369.247 178.356 C 369.07166666666666 178.81733333333332 368.9293333333333 179.29 368.82 179.774 C 368.71066666666667 180.25866666666667 368.63233333333335 180.73133333333334 368.585 181.192 C 369.69433333333336 181.114 370.6886666666667 180.97933333333333 371.568 180.788 C 372.44666666666666 180.59666666666666 373.1886666666667 180.35066666666668 373.794 180.05 C 374.39933333333335 179.74933333333334 374.8623333333333 179.39 375.183 178.972 C 375.503 178.554 375.663 178.07533333333333 375.663 177.536 Z" style="fill: rgb(0, 82, 156);"/>
    <path d="M 377.866 186.946 C 377.91333333333336 186.96933333333334 377.974 187.00266666666667 378.048 187.046 C 378.122 187.08866666666668 378.19033333333334 187.13533333333334 378.253 187.186 C 378.31566666666663 187.23733333333334 378.3703333333333 187.292 378.417 187.35 C 378.46433333333334 187.40866666666665 378.488 187.46533333333332 378.488 187.52 C 378.488 187.55133333333333 378.476 187.58266666666668 378.452 187.614 C 378.01466666666664 188.22333333333333 377.544 188.75266666666667 377.04 189.202 C 376.536 189.65133333333333 376.0126666666667 190.02633333333333 375.47 190.327 C 374.92733333333337 190.62766666666667 374.37466666666666 190.85033333333334 373.812 190.995 C 373.24933333333337 191.13966666666667 372.6946666666667 191.212 372.148 191.212 C 371.21 191.212 370.35066666666665 191.02066666666667 369.57 190.638 C 368.7886666666667 190.25466666666665 368.1166666666667 189.731 367.554 189.067 C 366.99133333333333 188.403 366.55199999999996 187.62366666666668 366.236 186.729 C 365.9193333333333 185.835 365.761 184.876 365.761 183.852 C 365.761 183.01666666666665 365.85266666666666 182.18099999999998 366.036 181.345 C 366.22 180.50900000000001 366.4856666666667 179.71200000000002 366.833 178.954 C 367.18100000000004 178.196 367.605 177.491 368.105 176.839 C 368.605 176.18633333333335 369.17333333333335 175.62 369.81 175.14 C 370.44666666666666 174.65933333333334 371.146 174.28233333333333 371.908 174.009 C 372.6693333333333 173.73566666666665 373.48766666666666 173.599 374.363 173.599 C 374.94100000000003 173.599 375.4916666666667 173.677 376.015 173.833 C 376.53833333333336 173.989 376.99733333333336 174.21366666666668 377.392 174.507 C 377.78666666666663 174.79966666666667 378.101 175.161 378.335 175.591 C 378.56966666666665 176.02033333333335 378.687 176.50866666666667 378.687 177.056 C 378.687 177.85266666666666 378.42733333333337 178.54766666666666 377.908 179.141 C 377.388 179.735 376.671 180.239 375.757 180.653 C 374.843 181.067 373.767 181.401 372.529 181.655 C 371.2903333333333 181.909 369.95233333333334 182.09866666666667 368.515 182.224 L 368.515 182.423 C 368.515 183.423 368.642 184.337 368.896 185.165 C 369.15 185.993 369.49966666666666 186.702 369.945 187.292 C 370.39033333333333 187.882 370.91366666666664 188.341 371.515 188.669 C 372.11633333333333 188.997 372.76466666666664 189.161 373.46 189.161 C 374.1633333333333 189.161 374.884 188.98733333333334 375.622 188.64 C 376.3606666666667 188.292 377.1086666666667 187.72733333333332 377.866 186.946 Z" style="fill: rgb(0, 82, 156);"/>
    <path d="M 358.783 181.099 C 358.783 180.56766666666667 358.742 180.02066666666667 358.66 179.458 C 358.578 178.89533333333333 358.449 178.38566666666668 358.273 177.929 C 358.09700000000004 177.47166666666666 357.8666666666667 177.09666666666666 357.582 176.804 C 357.2966666666667 176.51066666666668 356.9506666666667 176.364 356.544 176.364 C 356.068 176.364 355.5973333333333 176.48333333333335 355.132 176.722 C 354.6673333333333 176.96 354.21833333333336 177.28033333333335 353.785 177.683 C 353.351 178.085 352.935 178.54966666666667 352.537 179.077 C 352.1383333333333 179.60433333333333 351.76533333333333 180.157 351.418 180.735 C 351.07 181.31300000000002 350.75733333333335 181.897 350.48 182.487 C 350.2026666666667 183.077 349.96433333333334 183.6376666666667 349.765 184.169 C 349.5656666666667 184.70033333333333 349.41133333333335 185.18266666666668 349.302 185.616 C 349.19266666666664 186.04933333333332 349.138 186.39499999999998 349.138 186.653 C 349.25533333333334 187.13766666666666 349.437 187.57733333333334 349.683 187.972 C 349.92900000000003 188.36599999999999 350.226 188.70166666666665 350.574 188.979 C 350.92133333333334 189.25633333333334 351.308 189.46933333333334 351.734 189.618 C 352.15999999999997 189.76666666666668 352.611 189.841 353.087 189.841 C 353.86833333333334 189.841 354.6046666666667 189.64366666666666 355.296 189.249 C 355.988 188.85433333333333 356.5916666666667 188.282 357.107 187.532 C 357.62233333333336 186.782 358.03066666666666 185.866 358.332 184.784 C 358.6326666666667 183.702 358.783 182.47366666666667 358.783 181.099 Z" style="fill: rgb(0, 82, 156);"/>
    <path d="M 351.107 159.126 C 350.95833333333337 160.376 350.81 161.665 350.662 162.993 C 350.5133333333333 164.321 350.3706666666667 165.66466666666668 350.234 167.024 C 350.0973333333333 168.38333333333333 349.96433333333334 169.75066666666666 349.835 171.126 C 349.7063333333333 172.50066666666666 349.58933333333334 173.858 349.484 175.198 C 349.3786666666667 176.538 349.28700000000003 177.85066666666665 349.209 179.136 C 349.13033333333334 180.42066666666665 349.0676666666667 181.653 349.021 182.833 L 349.15 182.845 C 349.76733333333334 181.329 350.4313333333333 179.993 351.142 178.837 C 351.85333333333335 177.68033333333332 352.576 176.71166666666667 353.31 175.931 C 354.04466666666667 175.14966666666666 354.7733333333333 174.55966666666666 355.496 174.161 C 356.21866666666665 173.76233333333332 356.9003333333333 173.563 357.541 173.563 C 358.07966666666664 173.563 358.556 173.66266666666667 358.97 173.862 C 359.384 174.06133333333332 359.74333333333334 174.327 360.048 174.659 C 360.35266666666666 174.991 360.6066666666667 175.374 360.81 175.808 C 361.0133333333333 176.24133333333333 361.17733333333337 176.69433333333333 361.302 177.167 C 361.42733333333337 177.63966666666667 361.51533333333333 178.118 361.566 178.602 C 361.6166666666667 179.08666666666667 361.642 179.54 361.642 179.962 C 361.642 181.126 361.52666666666664 182.21366666666665 361.296 183.225 C 361.06600000000003 184.237 360.7476666666667 185.159 360.341 185.991 C 359.935 186.823 359.4546666666667 187.56333333333333 358.9 188.212 C 358.3453333333333 188.85999999999999 357.7436666666667 189.40666666666667 357.095 189.852 C 356.447 190.29733333333334 355.7633333333333 190.63533333333334 355.044 190.866 C 354.32533333333333 191.09666666666666 353.60266666666666 191.212 352.876 191.212 C 352.392 191.212 351.906 191.15733333333333 351.418 191.048 C 350.9293333333333 190.93866666666665 350.4526666666667 190.77066666666667 349.988 190.544 C 349.5233333333333 190.31733333333335 349.08366666666666 190.02633333333333 348.669 189.671 C 348.255 189.31566666666666 347.884 188.89566666666667 347.556 188.411 C 347.28266666666667 189.09833333333333 347.00533333333334 189.661 346.724 190.099 C 346.4426666666667 190.53633333333332 346.18100000000004 190.88766666666666 345.939 191.153 L 345.33 191.001 C 345.7593333333333 189.80566666666667 346.0756666666667 188.37 346.279 186.694 C 346.4823333333333 185.01866666666666 346.63866666666667 183.12233333333333 346.748 181.005 C 346.78666666666663 180.09833333333333 346.8353333333333 179.067 346.894 177.911 C 346.9526666666667 176.755 347.0133333333334 175.53633333333332 347.076 174.255 C 347.138 172.97366666666667 347.2043333333333 171.663 347.275 170.323 C 347.34499999999997 168.983 347.4153333333333 167.68033333333332 347.486 166.415 C 347.556 165.149 347.62233333333336 163.94966666666667 347.685 162.817 C 347.74766666666665 161.68433333333334 347.8063333333333 160.68066666666667 347.861 159.806 C 347.86899999999997 159.618 347.92766666666665 159.45566666666667 348.037 159.319 C 348.14633333333336 159.18233333333333 348.283 159.073 348.447 158.991 C 348.611 158.909 348.79633333333334 158.84833333333333 349.003 158.809 C 349.2103333333333 158.77033333333333 349.4156666666667 158.751 349.619 158.751 C 350.09566666666666 158.751 350.5916666666667 158.876 351.107 159.126 Z" style="fill: rgb(0, 82, 156);"/>
    <path d="M 312.602 175.005 C 313.1566666666667 174.80966666666666 313.69 174.632 314.202 174.472 C 314.714 174.31133333333332 315.18466666666666 174.17266666666666 315.614 174.056 C 316.044 173.93866666666668 316.423 173.84866666666667 316.751 173.786 C 317.079 173.72333333333333 317.33666666666664 173.692 317.524 173.692 C 317.9773333333333 173.692 318.331 173.827 318.585 174.097 C 318.839 174.36633333333333 318.966 174.829 318.966 175.485 C 318.966 175.64166666666668 318.95033333333333 175.97566666666665 318.919 176.487 C 318.8876666666667 176.999 318.8426666666667 177.64166666666665 318.784 178.415 C 318.72533333333337 179.18833333333333 318.653 180.071 318.567 181.063 C 318.481 182.05566666666667 318.3833333333333 183.11033333333333 318.274 184.227 L 318.345 184.239 C 318.8916666666667 182.255 319.4736666666667 180.589 320.091 179.241 C 320.7083333333333 177.89366666666666 321.337 176.80566666666667 321.977 175.977 C 322.61766666666665 175.149 323.26233333333334 174.55733333333333 323.911 174.202 C 324.55966666666666 173.84666666666666 325.1886666666667 173.669 325.798 173.669 C 326.33666666666664 173.669 326.79366666666664 173.80166666666668 327.169 174.067 C 327.54366666666664 174.333 327.84833333333336 174.68066666666667 328.083 175.11 C 328.317 175.54 328.48900000000003 176.02633333333333 328.599 176.569 C 328.7083333333333 177.1123333333333 328.763 177.665 328.763 178.227 C 328.763 178.71966666666668 328.7473333333333 179.24133333333333 328.716 179.792 C 328.68466666666666 180.34266666666667 328.64566666666667 180.88566666666665 328.599 181.421 C 328.5516666666667 181.95633333333333 328.5026666666667 182.464 328.452 182.944 C 328.4013333333333 183.42466666666667 328.35633333333334 183.84466666666665 328.317 184.204 L 328.388 184.216 C 328.93466666666666 182.20000000000002 329.51866666666666 180.51033333333334 330.14 179.147 C 330.7606666666667 177.78366666666668 331.3933333333334 176.68800000000002 332.038 175.86 C 332.68266666666665 175.032 333.329 174.44033333333334 333.977 174.085 C 334.62566666666663 173.72966666666667 335.25466666666665 173.552 335.864 173.552 C 336.25466666666665 173.552 336.63366666666667 173.634 337.001 173.798 C 337.36833333333334 173.96200000000002 337.69433333333336 174.22566666666668 337.979 174.589 C 338.2643333333333 174.9523333333333 338.493 175.41899999999998 338.665 175.989 C 338.837 176.55966666666666 338.923 177.24733333333333 338.923 178.052 C 338.923 178.278 338.90933333333334 178.58833333333334 338.882 178.983 C 338.8546666666667 179.37766666666667 338.8213333333333 179.81733333333332 338.782 180.302 C 338.74333333333334 180.786 338.6983333333333 181.29966666666667 338.647 181.843 C 338.59633333333335 182.38566666666668 338.5516666666667 182.91866666666667 338.513 183.442 C 338.47366666666665 183.96533333333335 338.44033333333334 184.46333333333334 338.413 184.936 C 338.3856666666667 185.40866666666668 338.372 185.817 338.372 186.161 C 338.372 186.77033333333333 338.39733333333334 187.26633333333334 338.448 187.649 C 338.4986666666667 188.03233333333333 338.5826666666667 188.33533333333332 338.7 188.558 C 338.8173333333333 188.78 338.97366666666665 188.93233333333333 339.169 189.015 C 339.3643333333333 189.097 339.60266666666666 189.138 339.884 189.138 C 340.29 189.138 340.71166666666664 189.08133333333333 341.149 188.968 C 341.587 188.85466666666667 342.02866666666665 188.69633333333334 342.474 188.493 L 342.696 189.102 C 342.4146666666667 189.32866666666666 342.0593333333333 189.55933333333334 341.63 189.794 C 341.2 190.02800000000002 340.7486666666667 190.24266666666668 340.276 190.438 C 339.80333333333334 190.63333333333333 339.3326666666667 190.79166666666666 338.864 190.913 C 338.3953333333333 191.03433333333334 337.98133333333334 191.095 337.622 191.095 C 337.2 191.095 336.868 190.98166666666665 336.626 190.755 C 336.38399999999996 190.52833333333334 336.20233333333334 190.21966666666665 336.081 189.829 C 335.9596666666667 189.43833333333333 335.88166666666666 188.98133333333334 335.847 188.458 C 335.81166666666667 187.93466666666666 335.794 187.372 335.794 186.77 C 335.794 186.044 335.8193333333333 185.28233333333336 335.87 184.485 C 335.9206666666667 183.68833333333333 335.9773333333334 182.93066666666667 336.04 182.212 C 336.10266666666666 181.4933333333333 336.15933333333334 180.843 336.21 180.261 C 336.2606666666667 179.679 336.286 179.23933333333335 336.286 178.942 C 336.286 178.09066666666666 336.1356666666667 177.452 335.835 177.026 C 335.53433333333334 176.60066666666668 335.12600000000003 176.388 334.61 176.388 C 334.212 176.388 333.7883333333333 176.57733333333334 333.339 176.956 C 332.8896666666667 177.33466666666666 332.44033333333334 177.856 331.991 178.52 C 331.5416666666667 179.184 331.108 179.96733333333333 330.69 180.87 C 330.272 181.77266666666665 329.895 182.75133333333332 329.559 183.806 C 329.22366666666665 184.86066666666667 328.94066666666663 185.964 328.71 187.116 C 328.47933333333333 188.26866666666666 328.329 189.423 328.259 190.579 L 325.809 190.884 L 325.622 190.872 C 325.70799999999997 189.23133333333334 325.788 187.77833333333334 325.862 186.513 C 325.93666666666667 185.247 326.003 184.14133333333334 326.061 183.196 C 326.11966666666666 182.25066666666666 326.1666666666667 181.45 326.202 180.794 C 326.2373333333333 180.13733333333334 326.255 179.59433333333334 326.255 179.165 C 326.255 178.28966666666668 326.1046666666667 177.62933333333334 325.804 177.184 C 325.50266666666664 176.73866666666666 325.11766666666665 176.516 324.649 176.516 C 324.235 176.516 323.79966666666667 176.70166666666665 323.343 177.073 C 322.8856666666667 177.44433333333333 322.4343333333333 177.958 321.989 178.614 C 321.5436666666667 179.27066666666667 321.11600000000004 180.046 320.706 180.94 C 320.296 181.83466666666666 319.925 182.80166666666668 319.593 183.841 C 319.261 184.87966666666668 318.9836666666667 185.97333333333333 318.761 187.122 C 318.53833333333336 188.27066666666667 318.3916666666667 189.423 318.321 190.579 L 315.872 190.884 L 315.684 190.872 C 315.74666666666667 190.13 315.80533333333335 189.3213333333333 315.86 188.446 C 315.9146666666667 187.5713333333333 315.96566666666666 186.68266666666665 316.013 185.78 C 316.05966666666666 184.878 316.1006666666667 183.98366666666666 316.136 183.097 C 316.17066666666665 182.20966666666666 316.20166666666665 181.38133333333332 316.229 180.612 C 316.2563333333333 179.84266666666667 316.276 179.15333333333334 316.288 178.544 C 316.3 177.93466666666666 316.306 177.454 316.306 177.102 C 316.306 176.782 316.2823333333333 176.5126666666667 316.235 176.294 C 316.18833333333333 176.07533333333333 316.116 175.90133333333333 316.018 175.772 C 315.92066666666665 175.64333333333335 315.79766666666666 175.55166666666668 315.649 175.497 C 315.50100000000003 175.44233333333332 315.32533333333333 175.415 315.122 175.415 C 314.84066666666666 175.415 314.50466666666665 175.454 314.114 175.532 C 313.72333333333336 175.61 313.278 175.71566666666666 312.778 175.849 L 312.602 175.005 Z" style="fill: rgb(0, 82, 156);"/>
    <path d="M 297.478 175.907 C 297.478 176.43833333333333 297.4603333333333 177.00666666666666 297.425 177.612 C 297.39033333333333 178.21733333333333 297.3473333333333 178.83266666666668 297.296 179.458 C 297.24533333333335 180.08266666666668 297.1906666666667 180.70566666666667 297.132 181.327 C 297.0733333333333 181.94833333333332 297.01866666666666 182.53633333333332 296.968 183.091 C 296.9173333333333 183.64566666666667 296.8743333333333 184.15533333333335 296.839 184.62 C 296.8043333333333 185.08466666666666 296.787 185.47333333333333 296.787 185.786 C 296.787 186.716 296.9626666666667 187.39566666666667 297.314 187.825 C 297.66533333333336 188.255 298.134 188.47 298.72 188.47 C 299.384 188.47 300.0636666666667 188.11233333333334 300.759 187.397 C 301.45433333333335 186.68233333333333 302.11833333333334 185.63766666666666 302.751 184.263 C 303.38433333333336 182.88766666666666 303.9236666666667 181.34266666666664 304.369 179.628 C 304.8143333333333 177.91333333333333 305.09933333333333 176.06366666666668 305.224 174.079 L 307.708 173.774 L 307.896 173.786 C 307.82533333333333 174.528 307.761 175.315 307.703 176.147 C 307.64433333333335 176.979 307.59133333333335 177.811 307.544 178.643 C 307.4973333333333 179.475 307.46233333333333 180.28966666666665 307.439 181.087 C 307.41566666666665 181.88366666666667 307.404 182.618 307.404 183.29 C 307.404 184.56333333333333 307.478 185.60433333333333 307.626 186.413 C 307.77466666666663 187.22166666666666 307.96633333333335 187.85833333333335 308.201 188.323 C 308.435 188.78766666666667 308.70233333333334 189.108 309.003 189.284 C 309.3043333333333 189.46 309.6073333333333 189.548 309.912 189.548 C 310.0913333333333 189.548 310.269 189.52433333333335 310.445 189.477 C 310.62033333333335 189.43033333333335 310.78633333333335 189.374 310.943 189.308 C 311.099 189.24133333333333 311.2416666666667 189.169 311.371 189.091 C 311.49966666666666 189.013 311.611 188.94266666666667 311.705 188.88 L 312.091 189.419 C 311.8643333333333 189.65300000000002 311.6066666666666 189.87366666666668 311.318 190.081 C 311.02866666666665 190.28766666666667 310.724 190.46733333333333 310.404 190.62 C 310.0833333333333 190.77266666666665 309.74733333333336 190.89166666666665 309.396 190.977 C 309.04466666666667 191.063 308.68933333333337 191.106 308.33 191.106 C 307.87666666666667 191.106 307.437 191.01633333333334 307.011 190.837 C 306.58566666666667 190.657 306.20866666666666 190.356 305.88 189.934 C 305.55199999999996 189.51266666666666 305.2883333333333 188.95033333333333 305.089 188.247 C 304.8896666666667 187.54366666666667 304.79 186.66866666666667 304.79 185.622 C 304.79 185.286 304.798 184.946 304.814 184.602 C 304.82933333333335 184.25866666666667 304.85266666666666 183.89566666666667 304.884 183.513 C 304.9153333333333 183.12966666666665 304.9563333333333 182.71733333333333 305.007 182.276 C 305.0576666666667 181.83466666666666 305.11833333333334 181.34833333333333 305.189 180.817 L 305.06 180.794 C 304.52866666666665 182.75466666666668 303.95266666666663 184.399 303.332 185.727 C 302.71066666666667 187.05566666666667 302.07366666666667 188.126 301.421 188.938 C 300.769 189.75066666666666 300.11466666666666 190.33100000000002 299.458 190.679 C 298.802 191.02633333333333 298.177 191.2 297.583 191.2 C 297.1376666666667 191.2 296.71000000000004 191.124 296.3 190.972 C 295.89 190.81933333333333 295.525 190.56933333333333 295.205 190.222 C 294.8843333333333 189.874 294.62833333333333 189.415 294.437 188.845 C 294.24566666666664 188.27433333333335 294.15 187.571 294.15 186.735 C 294.15 186.18833333333333 294.1813333333333 185.55366666666666 294.244 184.831 C 294.306 184.10833333333335 294.3743333333333 183.33866666666668 294.449 182.522 C 294.523 181.706 294.59133333333335 180.86233333333334 294.654 179.991 C 294.71666666666664 179.11966666666666 294.748 178.25833333333333 294.748 177.407 C 294.748 177.063 294.736 176.766 294.712 176.516 C 294.6886666666667 176.266 294.63800000000003 176.059 294.56 175.895 C 294.48199999999997 175.731 294.3666666666667 175.61 294.214 175.532 C 294.062 175.454 293.853 175.415 293.587 175.415 C 293.32166666666666 175.415 292.976 175.454 292.55 175.532 C 292.12466666666666 175.61 291.6773333333333 175.71566666666666 291.208 175.849 L 291.033 175.005 C 291.6736666666667 174.77833333333334 292.26933333333335 174.581 292.82 174.413 C 293.3706666666667 174.245 293.86266666666666 174.10633333333334 294.296 173.997 C 294.73 173.88766666666666 295.0973333333333 173.80566666666667 295.398 173.751 C 295.69866666666667 173.69633333333334 295.9193333333333 173.669 296.06 173.669 C 296.34133333333335 173.669 296.57166666666666 173.71966666666668 296.751 173.821 C 296.931 173.923 297.0756666666667 174.0713333333333 297.185 174.266 C 297.2943333333333 174.46133333333333 297.37066666666664 174.696 297.414 174.97 C 297.45666666666665 175.24333333333334 297.478 175.55566666666667 297.478 175.907 Z" style="fill: rgb(0, 82, 156);"/>
  </g>
</svg>
