<?xml version="1.0" encoding="utf-8"?>
<svg viewBox="13.693 186.0165 446.92 112.0019" xmlns="http://www.w3.org/2000/svg">
  <path d="M 54.463 268.418 L 66.973 208.568 L 72.103 208.568 L 56.983 275.618 L 46.993 275.618 L 33.583 213.248 Q 29.983 213.248 27.598 214.463 Q 25.213 215.678 23.818 217.703 Q 22.423 219.728 21.838 222.293 Q 21.253 224.858 21.253 227.558 Q 21.253 231.428 22.333 234.488 Q 23.413 237.548 25.483 240.158 Q 23.683 240.158 21.883 239.618 Q 20.083 239.078 18.643 237.728 Q 17.203 236.378 16.303 234.083 Q 15.403 231.788 15.403 228.278 Q 15.403 224.228 16.933 220.538 Q 18.463 216.848 21.433 214.103 Q 24.403 211.358 28.723 209.738 Q 33.043 208.118 38.623 208.118 Q 39.613 208.118 40.558 208.208 Q 41.503 208.298 42.493 208.478 Z" style="fill: rgb(51, 51, 51);"/>
  <path d="M 100.804 241.868 Q 100.804 248.168 95.629 252.398 Q 90.454 256.628 81.274 257.618 Q 81.634 261.218 82.579 263.468 Q 83.524 265.718 84.874 267.023 Q 86.224 268.328 87.979 268.823 Q 89.734 269.318 91.624 269.318 Q 95.944 269.318 99.724 267.068 Q 103.504 264.818 105.844 259.508 L 108.724 259.508 Q 107.554 262.838 105.484 265.853 Q 103.414 268.868 100.624 271.163 Q 97.834 273.458 94.594 274.808 Q 91.354 276.158 87.934 276.158 Q 84.784 276.158 81.859 275.078 Q 78.934 273.998 76.684 271.523 Q 74.434 269.048 73.039 265.088 Q 71.644 261.128 71.644 255.368 Q 71.644 251.588 72.499 247.178 Q 73.354 242.768 75.379 238.988 Q 77.404 235.208 80.689 232.688 Q 83.974 230.168 88.834 230.168 Q 91.084 230.168 93.199 230.663 Q 95.314 231.158 97.024 232.463 Q 98.734 233.768 99.769 236.018 Q 100.804 238.268 100.804 241.868 Z M 81.184 254.108 Q 87.574 253.118 91.309 249.608 Q 95.044 246.098 95.044 240.968 Q 95.044 237.548 93.874 236.063 Q 92.704 234.578 90.544 234.578 Q 88.204 234.578 86.449 236.378 Q 84.694 238.178 83.524 241.013 Q 82.354 243.848 81.769 247.313 Q 81.184 250.778 81.184 254.108 Z" style="fill: rgb(51, 51, 51);"/>
  <path d="M 114.747 230.618 L 114.747 237.458 Q 116.097 235.028 117.492 233.543 Q 118.887 232.058 120.327 231.338 Q 121.767 230.618 123.072 230.393 Q 124.377 230.168 125.547 230.168 Q 129.597 230.168 132.072 231.698 Q 134.547 233.228 135.807 235.613 Q 137.067 237.998 137.472 240.833 Q 137.877 243.668 137.877 246.278 Q 137.877 247.898 137.787 249.833 Q 137.697 251.768 137.607 253.793 Q 137.517 255.818 137.427 257.843 Q 137.337 259.868 137.337 261.578 Q 137.337 262.298 137.427 263.603 Q 137.517 264.908 137.877 266.168 Q 138.237 267.428 139.047 268.373 Q 139.857 269.318 141.387 269.318 Q 143.457 269.318 145.122 266.978 Q 146.787 264.638 147.867 259.508 L 151.197 259.508 Q 150.207 265.178 148.677 268.463 Q 147.147 271.748 145.437 273.458 Q 143.727 275.168 142.017 275.663 Q 140.307 276.158 138.867 276.158 Q 135.987 276.158 134.007 275.033 Q 132.027 273.908 130.767 272.018 Q 129.507 270.128 128.922 267.608 Q 128.337 265.088 128.337 262.388 Q 128.337 261.578 128.382 259.373 Q 128.427 257.168 128.472 254.648 Q 128.517 252.128 128.562 249.878 Q 128.607 247.628 128.607 246.728 Q 128.607 243.848 128.157 241.958 Q 127.707 240.068 126.897 238.988 Q 126.087 237.908 125.052 237.458 Q 124.017 237.008 122.847 237.008 Q 120.057 237.008 118.032 239.258 Q 116.007 241.508 114.747 246.818 L 114.747 275.618 L 105.747 275.618 L 105.747 230.618 Z" style="fill: rgb(51, 51, 51);"/>
  <path d="M 156.863 216.938 L 156.863 230.618 L 163.793 230.618 L 163.793 233.768 L 156.863 233.768 L 156.863 261.218 Q 156.863 262.298 156.953 263.693 Q 157.043 265.088 157.448 266.348 Q 157.853 267.608 158.708 268.463 Q 159.563 269.318 161.093 269.318 Q 163.523 269.318 165.728 266.888 Q 167.933 264.458 169.193 259.508 L 172.523 259.508 Q 170.993 265.178 169.238 268.463 Q 167.483 271.748 165.593 273.458 Q 163.703 275.168 161.858 275.663 Q 160.013 276.158 158.483 276.158 Q 155.243 276.158 153.173 274.943 Q 151.103 273.728 149.933 271.838 Q 148.763 269.948 148.313 267.653 Q 147.863 265.358 147.863 263.108 L 147.863 233.768 L 144.803 233.768 L 144.803 230.618 L 147.863 230.618 L 147.863 218.198 Z" style="fill: rgb(51, 51, 51);"/>
  <path d="M 199.431 230.618 L 199.431 261.218 Q 199.431 262.118 199.521 263.468 Q 199.611 264.818 200.016 266.123 Q 200.421 267.428 201.231 268.373 Q 202.041 269.318 203.481 269.318 Q 207.891 269.318 209.961 259.508 L 213.291 259.508 Q 212.301 265.178 210.771 268.463 Q 209.241 271.748 207.531 273.458 Q 205.821 275.168 204.021 275.663 Q 202.221 276.158 200.781 276.158 Q 198.711 276.158 197.226 275.438 Q 195.741 274.718 194.706 273.548 Q 193.671 272.378 193.041 270.848 Q 192.411 269.318 192.051 267.698 Q 190.341 272.108 187.551 274.133 Q 184.761 276.158 181.701 276.158 Q 179.091 276.158 176.751 275.438 Q 174.411 274.718 172.701 273.053 Q 170.991 271.388 170.001 268.733 Q 169.011 266.078 169.011 262.208 L 169.011 230.618 L 178.011 230.618 L 178.011 261.218 Q 178.011 265.628 179.541 267.473 Q 181.071 269.318 183.411 269.318 Q 184.671 269.318 185.931 268.643 Q 187.191 267.968 188.181 266.708 Q 189.171 265.448 189.801 263.648 Q 190.431 261.848 190.431 259.508 L 190.431 230.618 Z" style="fill: rgb(51, 51, 51);"/>
  <path d="M 218.874 230.618 L 218.874 238.178 Q 219.954 236.558 220.989 235.118 Q 222.024 233.678 223.284 232.598 Q 224.544 231.518 226.074 230.843 Q 227.604 230.168 229.494 230.168 Q 232.554 230.168 233.994 231.743 Q 235.434 233.318 235.434 235.568 Q 235.434 236.918 234.984 237.818 Q 234.534 238.718 233.904 239.258 Q 233.274 239.798 232.554 240.023 Q 231.834 240.248 231.294 240.248 Q 230.484 240.248 229.989 239.888 Q 229.494 239.528 228.999 239.123 Q 228.504 238.718 227.874 238.358 Q 227.244 237.998 226.254 237.998 Q 224.184 237.998 222.294 239.438 Q 220.404 240.878 218.874 242.498 L 218.874 275.618 L 209.874 275.618 L 209.874 230.618 Z" style="fill: rgb(51, 51, 51);"/>
  <path d="M 268.282 241.868 Q 268.282 248.168 263.107 252.398 Q 257.932 256.628 248.752 257.618 Q 249.112 261.218 250.057 263.468 Q 251.002 265.718 252.352 267.023 Q 253.702 268.328 255.457 268.823 Q 257.212 269.318 259.102 269.318 Q 261.982 269.318 264.547 268.328 Q 267.112 267.338 268.822 264.908 Q 268.912 265.538 268.957 266.123 Q 269.002 266.708 269.002 267.158 Q 269.002 269.228 267.967 270.848 Q 266.932 272.468 265.177 273.683 Q 263.422 274.898 261.127 275.528 Q 258.832 276.158 256.312 276.158 Q 253.252 276.158 250.192 275.033 Q 247.132 273.908 244.657 271.433 Q 242.182 268.958 240.652 264.998 Q 239.122 261.038 239.122 255.368 Q 239.122 251.588 239.977 247.178 Q 240.832 242.768 242.857 238.988 Q 244.882 235.208 248.167 232.688 Q 251.452 230.168 256.312 230.168 Q 258.562 230.168 260.677 230.663 Q 262.792 231.158 264.502 232.463 Q 266.212 233.768 267.247 236.018 Q 268.282 238.268 268.282 241.868 Z M 248.662 254.108 Q 255.052 253.118 258.787 249.608 Q 262.522 246.098 262.522 240.968 Q 262.522 237.548 261.352 236.063 Q 260.182 234.578 258.022 234.578 Q 255.682 234.578 253.927 236.378 Q 252.172 238.178 251.002 241.013 Q 249.832 243.848 249.247 247.313 Q 248.662 250.778 248.662 254.108 Z" style="fill: rgb(51, 51, 51);"/>
  <path d="M 323.285 260.318 Q 320.945 268.508 314.645 272.783 Q 308.345 277.058 299.795 277.058 Q 288.185 277.058 281.75 268.868 Q 275.315 260.678 275.315 244.118 Q 275.315 237.908 276.395 231.518 Q 277.475 225.128 280.175 219.953 Q 282.875 214.778 287.42 211.448 Q 291.965 208.118 298.895 208.118 Q 302.315 208.118 305.375 209.018 Q 308.435 209.918 310.73 211.673 Q 313.025 213.428 314.375 216.038 Q 315.725 218.648 315.725 222.158 Q 315.725 225.038 314.645 226.748 Q 313.565 228.458 310.955 228.458 Q 309.695 228.458 308.57 228.053 Q 307.445 227.648 306.725 226.838 Q 307.535 226.208 308.21 224.228 Q 308.885 222.248 308.885 219.728 Q 308.885 215.408 306.815 213.383 Q 304.745 211.358 301.325 211.358 Q 297.275 211.358 294.35 214.013 Q 291.425 216.668 289.535 221.078 Q 287.645 225.488 286.79 231.068 Q 285.935 236.648 285.935 242.588 Q 285.935 249.968 287.195 255.188 Q 288.455 260.408 290.885 263.738 Q 293.315 267.068 296.87 268.643 Q 300.425 270.218 305.015 270.218 Q 310.865 270.218 314.735 267.653 Q 318.605 265.088 321.035 259.418 Z" style="fill: rgb(48, 175, 91);"/>
  <path d="M 353.873 230.618 L 353.873 261.218 Q 353.873 262.118 353.963 263.468 Q 354.053 264.818 354.458 266.123 Q 354.863 267.428 355.673 268.373 Q 356.483 269.318 357.923 269.318 Q 362.333 269.318 364.403 259.508 L 367.733 259.508 Q 366.743 265.178 365.213 268.463 Q 363.683 271.748 361.973 273.458 Q 360.263 275.168 358.463 275.663 Q 356.663 276.158 355.223 276.158 Q 353.153 276.158 351.668 275.438 Q 350.183 274.718 349.148 273.548 Q 348.113 272.378 347.483 270.848 Q 346.853 269.318 346.493 267.608 Q 345.143 271.118 342.128 273.638 Q 339.113 276.158 334.793 276.158 Q 332.093 276.158 329.348 275.078 Q 326.603 273.998 324.398 271.523 Q 322.193 269.048 320.798 265.133 Q 319.403 261.218 319.403 255.548 Q 319.403 251.408 320.348 246.908 Q 321.293 242.408 323.363 238.718 Q 325.433 235.028 328.673 232.598 Q 331.913 230.168 336.503 230.168 Q 337.583 230.168 338.798 230.393 Q 340.013 230.618 341.138 231.158 Q 342.263 231.698 343.253 232.643 Q 344.243 233.588 344.873 234.938 L 344.873 230.618 Z M 337.043 269.318 Q 338.393 269.318 339.788 268.553 Q 341.183 267.788 342.308 266.483 Q 343.433 265.178 344.153 263.378 Q 344.873 261.578 344.873 259.508 L 344.873 238.988 Q 344.243 237.548 342.938 236.333 Q 341.633 235.118 339.563 235.118 Q 336.683 235.118 334.613 237.053 Q 332.543 238.988 331.283 241.913 Q 330.023 244.838 329.438 248.303 Q 328.853 251.768 328.853 254.918 Q 328.853 262.658 330.968 265.988 Q 333.083 269.318 337.043 269.318 Z" style="fill: rgb(48, 175, 91);"/>
  <path d="M 373.314 230.618 L 373.314 236.828 Q 375.654 232.508 378.264 231.338 Q 380.874 230.168 383.214 230.168 Q 385.554 230.168 387.309 230.798 Q 389.064 231.428 390.324 232.508 Q 391.584 233.588 392.439 235.028 Q 393.294 236.468 393.834 238.178 Q 395.094 235.478 396.444 233.903 Q 397.794 232.328 399.144 231.473 Q 400.494 230.618 401.799 230.393 Q 403.104 230.168 404.184 230.168 Q 408.234 230.168 410.709 231.698 Q 413.184 233.228 414.444 235.613 Q 415.704 237.998 416.109 240.833 Q 416.514 243.668 416.514 246.278 Q 416.514 247.898 416.424 249.833 Q 416.334 251.768 416.244 253.793 Q 416.154 255.818 416.064 257.843 Q 415.974 259.868 415.974 261.578 Q 415.974 262.298 416.064 263.603 Q 416.154 264.908 416.514 266.168 Q 416.874 267.428 417.684 268.373 Q 418.494 269.318 420.024 269.318 Q 422.094 269.318 423.759 266.978 Q 425.424 264.638 426.504 259.508 L 429.834 259.508 Q 428.844 265.178 427.314 268.463 Q 425.784 271.748 424.074 273.458 Q 422.364 275.168 420.654 275.663 Q 418.944 276.158 417.504 276.158 Q 414.624 276.158 412.644 275.033 Q 410.664 273.908 409.404 272.018 Q 408.144 270.128 407.559 267.608 Q 406.974 265.088 406.974 262.388 Q 406.974 261.578 407.019 259.373 Q 407.064 257.168 407.109 254.648 Q 407.154 252.128 407.199 249.878 Q 407.244 247.628 407.244 246.728 Q 407.244 243.848 406.794 241.958 Q 406.344 240.068 405.534 238.988 Q 404.724 237.908 403.689 237.458 Q 402.654 237.008 401.484 237.008 Q 398.694 237.008 396.939 239.258 Q 395.184 241.508 394.464 246.818 L 394.464 275.618 L 385.464 275.618 L 385.464 245.558 Q 385.464 243.938 385.329 242.408 Q 385.194 240.878 384.654 239.663 Q 384.114 238.448 383.124 237.728 Q 382.134 237.008 380.424 237.008 Q 377.544 237.008 376.059 239.393 Q 374.574 241.778 373.314 246.818 L 373.314 275.618 L 364.314 275.618 L 364.314 230.618 Z" style="fill: rgb(48, 175, 91);"/>
  <path d="M 435.767 227.288 L 435.767 234.218 Q 437.477 232.418 439.772 231.293 Q 442.067 230.168 445.127 230.168 Q 448.277 230.168 450.977 231.518 Q 453.677 232.868 455.702 235.613 Q 457.727 238.358 458.897 242.543 Q 460.067 246.728 460.067 252.488 Q 460.067 263.738 455.837 269.948 Q 451.607 276.158 444.587 276.158 Q 441.617 276.158 439.502 275.033 Q 437.387 273.908 435.767 271.838 L 435.767 295.868 L 426.677 298.118 L 426.677 227.288 Z M 441.977 236.018 Q 439.997 236.018 438.422 237.143 Q 436.847 238.268 435.767 240.338 L 435.767 267.338 Q 437.027 268.958 438.602 269.678 Q 440.177 270.398 441.707 270.398 Q 443.957 270.398 445.667 268.958 Q 447.377 267.518 448.592 265.043 Q 449.807 262.568 450.437 259.238 Q 451.067 255.908 451.067 252.128 Q 451.067 247.448 450.212 244.343 Q 449.357 241.238 448.007 239.393 Q 446.657 237.548 445.037 236.783 Q 443.417 236.018 441.977 236.018 Z" style="fill: rgb(48, 175, 91);"/>
</svg>